<?xml version="1.0" encoding="utf-8" standalone="no"?>
<!DOCTYPE svg PUBLIC "-//W3C//DTD SVG 1.1//EN"
  "http://www.w3.org/Graphics/SVG/1.1/DTD/svg11.dtd">
<svg xmlns:xlink="http://www.w3.org/1999/xlink" width="1022.3pt" height="1024.67625pt" viewBox="0 0 1022.3 1024.67625" xmlns="http://www.w3.org/2000/svg" version="1.1">
 <metadata>
  <rdf:RDF xmlns:dc="http://purl.org/dc/elements/1.1/" xmlns:cc="http://creativecommons.org/ns#" xmlns:rdf="http://www.w3.org/1999/02/22-rdf-syntax-ns#">
   <cc:Work>
    <dc:type rdf:resource="http://purl.org/dc/dcmitype/StillImage"/>
    <dc:date>2022-02-07T14:43:25.316015</dc:date>
    <dc:format>image/svg+xml</dc:format>
    <dc:creator>
     <cc:Agent>
      <dc:title>Matplotlib v3.5.0, https://matplotlib.org/</dc:title>
     </cc:Agent>
    </dc:creator>
   </cc:Work>
  </rdf:RDF>
 </metadata>
 <defs>
  <style type="text/css">*{stroke-linejoin: round; stroke-linecap: butt}</style>
 </defs>
 <g id="figure_1">
  <g id="patch_1">
   <path d="M 0 1024.67625 
L 1022.3 1024.67625 
L 1022.3 0 
L 0 0 
L 0 1024.67625 
z
" style="fill: none"/>
  </g>
  <g id="axes_1">
   <g id="patch_2">
    <path d="M 10.7 1000.798125 
L 1015.1 1000.798125 
L 1015.1 22.318125 
L 10.7 22.318125 
z
" style="fill: #ffffff"/>
   </g>
   <g id="PolyCollection_1">
    <defs>
     <path id="mbffec20270" d="M 56.354545 -504.693352 
L 56.354545 -521.542898 
L 65.577686 -523.321122 
L 74.800826 -525.357097 
L 84.023967 -527.659845 
L 93.247107 -530.231975 
L 102.470248 -533.068468 
L 111.693388 -536.155646 
L 120.916529 -539.470456 
L 130.139669 -542.980168 
L 139.36281 -546.642564 
L 148.58595 -550.406706 
L 157.809091 -554.214311 
L 167.032231 -558.001742 
L 176.255372 -561.702571 
L 185.478512 -565.250632 
L 194.701653 -568.583439 
L 203.924793 -571.645792 
L 213.147934 -574.393399 
L 222.371074 -576.796276 
L 231.594215 -578.841745 
L 240.817355 -580.536801 
L 250.040496 -581.909703 
L 259.263636 -583.010644 
L 268.486777 -583.911438 
L 277.709917 -584.704186 
L 286.933058 -585.498986 
L 296.156198 -586.420752 
L 305.379339 -587.605319 
L 314.602479 -589.194977 
L 323.82562 -591.333672 
L 333.04876 -594.162056 
L 342.271901 -597.812605 
L 351.495041 -602.404993 
L 360.718182 -608.041864 
L 369.941322 -614.80514 
L 379.164463 -622.75295 
L 388.387603 -631.917213 
L 397.610744 -642.301922 
L 406.833884 -653.882101 
L 416.057025 -666.603434 
L 425.280165 -680.382521 
L 434.503306 -695.107763 
L 443.726446 -710.640828 
L 452.949587 -726.818704 
L 462.172727 -743.456321 
L 471.395868 -760.349754 
L 480.619008 -777.279981 
L 489.842149 -794.017186 
L 499.065289 -810.325572 
L 508.28843 -825.968587 
L 517.51157 -840.714483 
L 526.734711 -854.342047 
L 535.957851 -866.646313 
L 545.180992 -877.444059 
L 554.404132 -886.57883 
L 563.627273 -893.92526 
L 572.850413 -899.392457 
L 582.073554 -902.926247 
L 591.296694 -904.510125 
L 600.519835 -904.164831 
L 609.742975 -901.946526 
L 618.966116 -897.943658 
L 628.189256 -892.272652 
L 637.412397 -885.072669 
L 646.635537 -876.499716 
L 655.858678 -866.720439 
L 665.081818 -855.905961 
L 674.304959 -844.226081 
L 683.528099 -831.84417 
L 692.75124 -818.912996 
L 701.97438 -805.571658 
L 711.197521 -791.94372 
L 720.420661 -778.136537 
L 729.643802 -764.241688 
L 738.866942 -750.336344 
L 748.090083 -736.485353 
L 757.313223 -722.743766 
L 766.536364 -709.159549 
L 775.759504 -695.776199 
L 784.982645 -682.635039 
L 794.205785 -669.777022 
L 803.428926 -657.2439 
L 812.652066 -645.078734 
L 821.875207 -633.325747 
L 831.098347 -622.029581 
L 840.321488 -611.234112 
L 849.544628 -600.980933 
L 858.767769 -591.307712 
L 867.990909 -582.246561 
L 877.21405 -573.822586 
L 886.43719 -566.052731 
L 895.660331 -558.945004 
L 904.883471 -552.498141 
L 914.106612 -546.701702 
L 923.329752 -541.536591 
L 932.552893 -536.975923 
L 941.776033 -532.986189 
L 950.999174 -529.528596 
L 960.222314 -526.560524 
L 969.445455 -524.036986 
L 969.445455 -502.199264 
L 969.445455 -502.199264 
L 960.222314 -499.675726 
L 950.999174 -496.707654 
L 941.776033 -493.250061 
L 932.552893 -489.260327 
L 923.329752 -484.699659 
L 914.106612 -479.534548 
L 904.883471 -473.738109 
L 895.660331 -467.291246 
L 886.43719 -460.183519 
L 877.21405 -452.413664 
L 867.990909 -443.989689 
L 858.767769 -434.928538 
L 849.544628 -425.255317 
L 840.321488 -415.002138 
L 831.098347 -404.206669 
L 821.875207 -392.910503 
L 812.652066 -381.157516 
L 803.428926 -368.99235 
L 794.205785 -356.459228 
L 784.982645 -343.601211 
L 775.759504 -330.460051 
L 766.536364 -317.076701 
L 757.313223 -303.492484 
L 748.090083 -289.750897 
L 738.866942 -275.899906 
L 729.643802 -261.994562 
L 720.420661 -248.099713 
L 711.197521 -234.29253 
L 701.97438 -220.664592 
L 692.75124 -207.323254 
L 683.528099 -194.39208 
L 674.304959 -182.010169 
L 665.081818 -170.330289 
L 655.858678 -159.515811 
L 646.635537 -149.736534 
L 637.412397 -141.163581 
L 628.189256 -133.963598 
L 618.966116 -128.292592 
L 609.742975 -124.289724 
L 600.519835 -122.071419 
L 591.296694 -121.726125 
L 582.073554 -123.310003 
L 572.850413 -126.843793 
L 563.627273 -132.31099 
L 554.404132 -139.65742 
L 545.180992 -148.792191 
L 535.957851 -159.589937 
L 526.734711 -171.894203 
L 517.51157 -185.521767 
L 508.28843 -200.267663 
L 499.065289 -215.910678 
L 489.842149 -232.219064 
L 480.619008 -248.956269 
L 471.395868 -265.886496 
L 462.172727 -282.779929 
L 452.949587 -299.417546 
L 443.726446 -315.595422 
L 434.503306 -331.128487 
L 425.280165 -345.853729 
L 416.057025 -359.632816 
L 406.833884 -372.354149 
L 397.610744 -383.934328 
L 388.387603 -394.319037 
L 379.164463 -403.4833 
L 369.941322 -411.43111 
L 360.718182 -418.194386 
L 351.495041 -423.831257 
L 342.271901 -428.423645 
L 333.04876 -432.074194 
L 323.82562 -434.902578 
L 314.602479 -437.041273 
L 305.379339 -438.630931 
L 296.156198 -439.815498 
L 286.933058 -440.737264 
L 277.709917 -441.532064 
L 268.486777 -442.324812 
L 259.263636 -443.225606 
L 250.040496 -444.326547 
L 240.817355 -445.699449 
L 231.594215 -447.394505 
L 222.371074 -449.439974 
L 213.147934 -451.842851 
L 203.924793 -454.590458 
L 194.701653 -457.652811 
L 185.478512 -460.985618 
L 176.255372 -464.533679 
L 167.032231 -468.234508 
L 157.809091 -472.021939 
L 148.58595 -475.829544 
L 139.36281 -479.593686 
L 130.139669 -483.256082 
L 120.916529 -486.765794 
L 111.693388 -490.080604 
L 102.470248 -493.167782 
L 93.247107 -496.004275 
L 84.023967 -498.576405 
L 74.800826 -500.879153 
L 65.577686 -502.915128 
L 56.354545 -504.693352 
z
" style="stroke: #3f3f3f; stroke-width: 1.5"/>
    </defs>
    <g clip-path="url(#p8f484a332b)">
     <use xlink:href="#mbffec20270" x="0" y="1024.67625" style="fill: #3274a1; stroke: #3f3f3f; stroke-width: 1.5"/>
    </g>
   </g>
   <g id="matplotlib.axis_1">
    <g id="xtick_1">
     <g id="line2d_1">
      <defs>
       <path id="mb463f40874" d="M 0 0 
L 0 3.5 
" style="stroke: #000000; stroke-width: 0.8"/>
      </defs>
      <g>
       <use xlink:href="#mb463f40874" x="119.108333" y="1000.798125" style="stroke: #000000; stroke-width: 0.8"/>
      </g>
     </g>
     <g id="text_1">
      <!-- 0.6 -->
      <g transform="translate(111.156771 1015.396562)scale(0.1 -0.1)">
       <defs>
        <path id="DejaVuSans-30" d="M 2034 4250 
Q 1547 4250 1301 3770 
Q 1056 3291 1056 2328 
Q 1056 1369 1301 889 
Q 1547 409 2034 409 
Q 2525 409 2770 889 
Q 3016 1369 3016 2328 
Q 3016 3291 2770 3770 
Q 2525 4250 2034 4250 
z
M 2034 4750 
Q 2819 4750 3233 4129 
Q 3647 3509 3647 2328 
Q 3647 1150 3233 529 
Q 2819 -91 2034 -91 
Q 1250 -91 836 529 
Q 422 1150 422 2328 
Q 422 3509 836 4129 
Q 1250 4750 2034 4750 
z
" transform="scale(0.015625)"/>
        <path id="DejaVuSans-2e" d="M 684 794 
L 1344 794 
L 1344 0 
L 684 0 
L 684 794 
z
" transform="scale(0.015625)"/>
        <path id="DejaVuSans-36" d="M 2113 2584 
Q 1688 2584 1439 2293 
Q 1191 2003 1191 1497 
Q 1191 994 1439 701 
Q 1688 409 2113 409 
Q 2538 409 2786 701 
Q 3034 994 3034 1497 
Q 3034 2003 2786 2293 
Q 2538 2584 2113 2584 
z
M 3366 4563 
L 3366 3988 
Q 3128 4100 2886 4159 
Q 2644 4219 2406 4219 
Q 1781 4219 1451 3797 
Q 1122 3375 1075 2522 
Q 1259 2794 1537 2939 
Q 1816 3084 2150 3084 
Q 2853 3084 3261 2657 
Q 3669 2231 3669 1497 
Q 3669 778 3244 343 
Q 2819 -91 2113 -91 
Q 1303 -91 875 529 
Q 447 1150 447 2328 
Q 447 3434 972 4092 
Q 1497 4750 2381 4750 
Q 2619 4750 2861 4703 
Q 3103 4656 3366 4563 
z
" transform="scale(0.015625)"/>
       </defs>
       <use xlink:href="#DejaVuSans-30"/>
       <use xlink:href="#DejaVuSans-2e" x="63.623047"/>
       <use xlink:href="#DejaVuSans-36" x="95.410156"/>
      </g>
     </g>
    </g>
    <g id="xtick_2">
     <g id="line2d_2">
      <g>
       <use xlink:href="#mb463f40874" x="277.874245" y="1000.798125" style="stroke: #000000; stroke-width: 0.8"/>
      </g>
     </g>
     <g id="text_2">
      <!-- 0.8 -->
      <g transform="translate(269.922682 1015.396562)scale(0.1 -0.1)">
       <defs>
        <path id="DejaVuSans-38" d="M 2034 2216 
Q 1584 2216 1326 1975 
Q 1069 1734 1069 1313 
Q 1069 891 1326 650 
Q 1584 409 2034 409 
Q 2484 409 2743 651 
Q 3003 894 3003 1313 
Q 3003 1734 2745 1975 
Q 2488 2216 2034 2216 
z
M 1403 2484 
Q 997 2584 770 2862 
Q 544 3141 544 3541 
Q 544 4100 942 4425 
Q 1341 4750 2034 4750 
Q 2731 4750 3128 4425 
Q 3525 4100 3525 3541 
Q 3525 3141 3298 2862 
Q 3072 2584 2669 2484 
Q 3125 2378 3379 2068 
Q 3634 1759 3634 1313 
Q 3634 634 3220 271 
Q 2806 -91 2034 -91 
Q 1263 -91 848 271 
Q 434 634 434 1313 
Q 434 1759 690 2068 
Q 947 2378 1403 2484 
z
M 1172 3481 
Q 1172 3119 1398 2916 
Q 1625 2713 2034 2713 
Q 2441 2713 2670 2916 
Q 2900 3119 2900 3481 
Q 2900 3844 2670 4047 
Q 2441 4250 2034 4250 
Q 1625 4250 1398 4047 
Q 1172 3844 1172 3481 
z
" transform="scale(0.015625)"/>
       </defs>
       <use xlink:href="#DejaVuSans-30"/>
       <use xlink:href="#DejaVuSans-2e" x="63.623047"/>
       <use xlink:href="#DejaVuSans-38" x="95.410156"/>
      </g>
     </g>
    </g>
    <g id="xtick_3">
     <g id="line2d_3">
      <g>
       <use xlink:href="#mb463f40874" x="436.640156" y="1000.798125" style="stroke: #000000; stroke-width: 0.8"/>
      </g>
     </g>
     <g id="text_3">
      <!-- 1.0 -->
      <g transform="translate(428.688593 1015.396562)scale(0.1 -0.1)">
       <defs>
        <path id="DejaVuSans-31" d="M 794 531 
L 1825 531 
L 1825 4091 
L 703 3866 
L 703 4441 
L 1819 4666 
L 2450 4666 
L 2450 531 
L 3481 531 
L 3481 0 
L 794 0 
L 794 531 
z
" transform="scale(0.015625)"/>
       </defs>
       <use xlink:href="#DejaVuSans-31"/>
       <use xlink:href="#DejaVuSans-2e" x="63.623047"/>
       <use xlink:href="#DejaVuSans-30" x="95.410156"/>
      </g>
     </g>
    </g>
    <g id="xtick_4">
     <g id="line2d_4">
      <g>
       <use xlink:href="#mb463f40874" x="595.406067" y="1000.798125" style="stroke: #000000; stroke-width: 0.8"/>
      </g>
     </g>
     <g id="text_4">
      <!-- 1.2 -->
      <g transform="translate(587.454504 1015.396562)scale(0.1 -0.1)">
       <defs>
        <path id="DejaVuSans-32" d="M 1228 531 
L 3431 531 
L 3431 0 
L 469 0 
L 469 531 
Q 828 903 1448 1529 
Q 2069 2156 2228 2338 
Q 2531 2678 2651 2914 
Q 2772 3150 2772 3378 
Q 2772 3750 2511 3984 
Q 2250 4219 1831 4219 
Q 1534 4219 1204 4116 
Q 875 4013 500 3803 
L 500 4441 
Q 881 4594 1212 4672 
Q 1544 4750 1819 4750 
Q 2544 4750 2975 4387 
Q 3406 4025 3406 3419 
Q 3406 3131 3298 2873 
Q 3191 2616 2906 2266 
Q 2828 2175 2409 1742 
Q 1991 1309 1228 531 
z
" transform="scale(0.015625)"/>
       </defs>
       <use xlink:href="#DejaVuSans-31"/>
       <use xlink:href="#DejaVuSans-2e" x="63.623047"/>
       <use xlink:href="#DejaVuSans-32" x="95.410156"/>
      </g>
     </g>
    </g>
    <g id="xtick_5">
     <g id="line2d_5">
      <g>
       <use xlink:href="#mb463f40874" x="754.171978" y="1000.798125" style="stroke: #000000; stroke-width: 0.8"/>
      </g>
     </g>
     <g id="text_5">
      <!-- 1.4 -->
      <g transform="translate(746.220415 1015.396562)scale(0.1 -0.1)">
       <defs>
        <path id="DejaVuSans-34" d="M 2419 4116 
L 825 1625 
L 2419 1625 
L 2419 4116 
z
M 2253 4666 
L 3047 4666 
L 3047 1625 
L 3713 1625 
L 3713 1100 
L 3047 1100 
L 3047 0 
L 2419 0 
L 2419 1100 
L 313 1100 
L 313 1709 
L 2253 4666 
z
" transform="scale(0.015625)"/>
       </defs>
       <use xlink:href="#DejaVuSans-31"/>
       <use xlink:href="#DejaVuSans-2e" x="63.623047"/>
       <use xlink:href="#DejaVuSans-34" x="95.410156"/>
      </g>
     </g>
    </g>
    <g id="xtick_6">
     <g id="line2d_6">
      <g>
       <use xlink:href="#mb463f40874" x="912.937889" y="1000.798125" style="stroke: #000000; stroke-width: 0.8"/>
      </g>
     </g>
     <g id="text_6">
      <!-- 1.6 -->
      <g transform="translate(904.986326 1015.396562)scale(0.1 -0.1)">
       <use xlink:href="#DejaVuSans-31"/>
       <use xlink:href="#DejaVuSans-2e" x="63.623047"/>
       <use xlink:href="#DejaVuSans-36" x="95.410156"/>
      </g>
     </g>
    </g>
   </g>
   <g id="matplotlib.axis_2">
    <g id="ytick_1">
     <g id="line2d_7">
      <defs>
       <path id="m4d9ac950a6" d="M 0 0 
L -3.5 0 
" style="stroke: #000000; stroke-width: 0.8"/>
      </defs>
      <g>
       <use xlink:href="#m4d9ac950a6" x="10.7" y="511.558125" style="stroke: #000000; stroke-width: 0.8"/>
      </g>
     </g>
    </g>
   </g>
   <g id="line2d_8">
    <path d="M 458.938197 511.558125 
L 781.319094 511.558125 
" clip-path="url(#p8f484a332b)" style="fill: none; stroke: #3f3f3f; stroke-width: 1.5; stroke-linecap: square"/>
   </g>
   <g id="line2d_9">
    <path d="M 535.755709 511.558125 
L 645.493803 511.558125 
" clip-path="url(#p8f484a332b)" style="fill: none; stroke: #3f3f3f; stroke-width: 4.5; stroke-linecap: square"/>
   </g>
   <g id="patch_3">
    <path d="M 10.7 1000.798125 
L 10.7 22.318125 
" style="fill: none; stroke: #000000; stroke-width: 0.8; stroke-linejoin: miter; stroke-linecap: square"/>
   </g>
   <g id="patch_4">
    <path d="M 1015.1 1000.798125 
L 1015.1 22.318125 
" style="fill: none; stroke: #000000; stroke-width: 0.8; stroke-linejoin: miter; stroke-linecap: square"/>
   </g>
   <g id="patch_5">
    <path d="M 10.7 1000.798125 
L 1015.1 1000.798125 
" style="fill: none; stroke: #000000; stroke-width: 0.8; stroke-linejoin: miter; stroke-linecap: square"/>
   </g>
   <g id="patch_6">
    <path d="M 10.7 22.318125 
L 1015.1 22.318125 
" style="fill: none; stroke: #000000; stroke-width: 0.8; stroke-linejoin: miter; stroke-linecap: square"/>
   </g>
   <g id="PathCollection_1">
    <defs>
     <path id="m1725218700" d="M 0 1.5 
C 0.397805 1.5 0.77937 1.341951 1.06066 1.06066 
C 1.341951 0.77937 1.5 0.397805 1.5 0 
C 1.5 -0.397805 1.341951 -0.77937 1.06066 -1.06066 
C 0.77937 -1.341951 0.397805 -1.5 0 -1.5 
C -0.397805 -1.5 -0.77937 -1.341951 -1.06066 -1.06066 
C -1.341951 -0.77937 -1.5 -0.397805 -1.5 0 
C -1.5 0.397805 -1.341951 0.77937 -1.06066 1.06066 
C -0.77937 1.341951 -0.397805 1.5 0 1.5 
z
" style="stroke: #3f3f3f"/>
    </defs>
    <g clip-path="url(#p8f484a332b)">
     <use xlink:href="#m1725218700" x="592.2547" y="511.558125" style="fill: #ffffff; stroke: #3f3f3f"/>
    </g>
   </g>
   <g id="text_7">
    <!-- Plot showing distribution of maximal fitness values in subsequent populations #2 -->
    <g transform="translate(268.0625 16.318125)scale(0.12 -0.12)">
     <defs>
      <path id="DejaVuSans-50" d="M 1259 4147 
L 1259 2394 
L 2053 2394 
Q 2494 2394 2734 2622 
Q 2975 2850 2975 3272 
Q 2975 3691 2734 3919 
Q 2494 4147 2053 4147 
L 1259 4147 
z
M 628 4666 
L 2053 4666 
Q 2838 4666 3239 4311 
Q 3641 3956 3641 3272 
Q 3641 2581 3239 2228 
Q 2838 1875 2053 1875 
L 1259 1875 
L 1259 0 
L 628 0 
L 628 4666 
z
" transform="scale(0.015625)"/>
      <path id="DejaVuSans-6c" d="M 603 4863 
L 1178 4863 
L 1178 0 
L 603 0 
L 603 4863 
z
" transform="scale(0.015625)"/>
      <path id="DejaVuSans-6f" d="M 1959 3097 
Q 1497 3097 1228 2736 
Q 959 2375 959 1747 
Q 959 1119 1226 758 
Q 1494 397 1959 397 
Q 2419 397 2687 759 
Q 2956 1122 2956 1747 
Q 2956 2369 2687 2733 
Q 2419 3097 1959 3097 
z
M 1959 3584 
Q 2709 3584 3137 3096 
Q 3566 2609 3566 1747 
Q 3566 888 3137 398 
Q 2709 -91 1959 -91 
Q 1206 -91 779 398 
Q 353 888 353 1747 
Q 353 2609 779 3096 
Q 1206 3584 1959 3584 
z
" transform="scale(0.015625)"/>
      <path id="DejaVuSans-74" d="M 1172 4494 
L 1172 3500 
L 2356 3500 
L 2356 3053 
L 1172 3053 
L 1172 1153 
Q 1172 725 1289 603 
Q 1406 481 1766 481 
L 2356 481 
L 2356 0 
L 1766 0 
Q 1100 0 847 248 
Q 594 497 594 1153 
L 594 3053 
L 172 3053 
L 172 3500 
L 594 3500 
L 594 4494 
L 1172 4494 
z
" transform="scale(0.015625)"/>
      <path id="DejaVuSans-20" transform="scale(0.015625)"/>
      <path id="DejaVuSans-73" d="M 2834 3397 
L 2834 2853 
Q 2591 2978 2328 3040 
Q 2066 3103 1784 3103 
Q 1356 3103 1142 2972 
Q 928 2841 928 2578 
Q 928 2378 1081 2264 
Q 1234 2150 1697 2047 
L 1894 2003 
Q 2506 1872 2764 1633 
Q 3022 1394 3022 966 
Q 3022 478 2636 193 
Q 2250 -91 1575 -91 
Q 1294 -91 989 -36 
Q 684 19 347 128 
L 347 722 
Q 666 556 975 473 
Q 1284 391 1588 391 
Q 1994 391 2212 530 
Q 2431 669 2431 922 
Q 2431 1156 2273 1281 
Q 2116 1406 1581 1522 
L 1381 1569 
Q 847 1681 609 1914 
Q 372 2147 372 2553 
Q 372 3047 722 3315 
Q 1072 3584 1716 3584 
Q 2034 3584 2315 3537 
Q 2597 3491 2834 3397 
z
" transform="scale(0.015625)"/>
      <path id="DejaVuSans-68" d="M 3513 2113 
L 3513 0 
L 2938 0 
L 2938 2094 
Q 2938 2591 2744 2837 
Q 2550 3084 2163 3084 
Q 1697 3084 1428 2787 
Q 1159 2491 1159 1978 
L 1159 0 
L 581 0 
L 581 4863 
L 1159 4863 
L 1159 2956 
Q 1366 3272 1645 3428 
Q 1925 3584 2291 3584 
Q 2894 3584 3203 3211 
Q 3513 2838 3513 2113 
z
" transform="scale(0.015625)"/>
      <path id="DejaVuSans-77" d="M 269 3500 
L 844 3500 
L 1563 769 
L 2278 3500 
L 2956 3500 
L 3675 769 
L 4391 3500 
L 4966 3500 
L 4050 0 
L 3372 0 
L 2619 2869 
L 1863 0 
L 1184 0 
L 269 3500 
z
" transform="scale(0.015625)"/>
      <path id="DejaVuSans-69" d="M 603 3500 
L 1178 3500 
L 1178 0 
L 603 0 
L 603 3500 
z
M 603 4863 
L 1178 4863 
L 1178 4134 
L 603 4134 
L 603 4863 
z
" transform="scale(0.015625)"/>
      <path id="DejaVuSans-6e" d="M 3513 2113 
L 3513 0 
L 2938 0 
L 2938 2094 
Q 2938 2591 2744 2837 
Q 2550 3084 2163 3084 
Q 1697 3084 1428 2787 
Q 1159 2491 1159 1978 
L 1159 0 
L 581 0 
L 581 3500 
L 1159 3500 
L 1159 2956 
Q 1366 3272 1645 3428 
Q 1925 3584 2291 3584 
Q 2894 3584 3203 3211 
Q 3513 2838 3513 2113 
z
" transform="scale(0.015625)"/>
      <path id="DejaVuSans-67" d="M 2906 1791 
Q 2906 2416 2648 2759 
Q 2391 3103 1925 3103 
Q 1463 3103 1205 2759 
Q 947 2416 947 1791 
Q 947 1169 1205 825 
Q 1463 481 1925 481 
Q 2391 481 2648 825 
Q 2906 1169 2906 1791 
z
M 3481 434 
Q 3481 -459 3084 -895 
Q 2688 -1331 1869 -1331 
Q 1566 -1331 1297 -1286 
Q 1028 -1241 775 -1147 
L 775 -588 
Q 1028 -725 1275 -790 
Q 1522 -856 1778 -856 
Q 2344 -856 2625 -561 
Q 2906 -266 2906 331 
L 2906 616 
Q 2728 306 2450 153 
Q 2172 0 1784 0 
Q 1141 0 747 490 
Q 353 981 353 1791 
Q 353 2603 747 3093 
Q 1141 3584 1784 3584 
Q 2172 3584 2450 3431 
Q 2728 3278 2906 2969 
L 2906 3500 
L 3481 3500 
L 3481 434 
z
" transform="scale(0.015625)"/>
      <path id="DejaVuSans-64" d="M 2906 2969 
L 2906 4863 
L 3481 4863 
L 3481 0 
L 2906 0 
L 2906 525 
Q 2725 213 2448 61 
Q 2172 -91 1784 -91 
Q 1150 -91 751 415 
Q 353 922 353 1747 
Q 353 2572 751 3078 
Q 1150 3584 1784 3584 
Q 2172 3584 2448 3432 
Q 2725 3281 2906 2969 
z
M 947 1747 
Q 947 1113 1208 752 
Q 1469 391 1925 391 
Q 2381 391 2643 752 
Q 2906 1113 2906 1747 
Q 2906 2381 2643 2742 
Q 2381 3103 1925 3103 
Q 1469 3103 1208 2742 
Q 947 2381 947 1747 
z
" transform="scale(0.015625)"/>
      <path id="DejaVuSans-72" d="M 2631 2963 
Q 2534 3019 2420 3045 
Q 2306 3072 2169 3072 
Q 1681 3072 1420 2755 
Q 1159 2438 1159 1844 
L 1159 0 
L 581 0 
L 581 3500 
L 1159 3500 
L 1159 2956 
Q 1341 3275 1631 3429 
Q 1922 3584 2338 3584 
Q 2397 3584 2469 3576 
Q 2541 3569 2628 3553 
L 2631 2963 
z
" transform="scale(0.015625)"/>
      <path id="DejaVuSans-62" d="M 3116 1747 
Q 3116 2381 2855 2742 
Q 2594 3103 2138 3103 
Q 1681 3103 1420 2742 
Q 1159 2381 1159 1747 
Q 1159 1113 1420 752 
Q 1681 391 2138 391 
Q 2594 391 2855 752 
Q 3116 1113 3116 1747 
z
M 1159 2969 
Q 1341 3281 1617 3432 
Q 1894 3584 2278 3584 
Q 2916 3584 3314 3078 
Q 3713 2572 3713 1747 
Q 3713 922 3314 415 
Q 2916 -91 2278 -91 
Q 1894 -91 1617 61 
Q 1341 213 1159 525 
L 1159 0 
L 581 0 
L 581 4863 
L 1159 4863 
L 1159 2969 
z
" transform="scale(0.015625)"/>
      <path id="DejaVuSans-75" d="M 544 1381 
L 544 3500 
L 1119 3500 
L 1119 1403 
Q 1119 906 1312 657 
Q 1506 409 1894 409 
Q 2359 409 2629 706 
Q 2900 1003 2900 1516 
L 2900 3500 
L 3475 3500 
L 3475 0 
L 2900 0 
L 2900 538 
Q 2691 219 2414 64 
Q 2138 -91 1772 -91 
Q 1169 -91 856 284 
Q 544 659 544 1381 
z
M 1991 3584 
L 1991 3584 
z
" transform="scale(0.015625)"/>
      <path id="DejaVuSans-66" d="M 2375 4863 
L 2375 4384 
L 1825 4384 
Q 1516 4384 1395 4259 
Q 1275 4134 1275 3809 
L 1275 3500 
L 2222 3500 
L 2222 3053 
L 1275 3053 
L 1275 0 
L 697 0 
L 697 3053 
L 147 3053 
L 147 3500 
L 697 3500 
L 697 3744 
Q 697 4328 969 4595 
Q 1241 4863 1831 4863 
L 2375 4863 
z
" transform="scale(0.015625)"/>
      <path id="DejaVuSans-6d" d="M 3328 2828 
Q 3544 3216 3844 3400 
Q 4144 3584 4550 3584 
Q 5097 3584 5394 3201 
Q 5691 2819 5691 2113 
L 5691 0 
L 5113 0 
L 5113 2094 
Q 5113 2597 4934 2840 
Q 4756 3084 4391 3084 
Q 3944 3084 3684 2787 
Q 3425 2491 3425 1978 
L 3425 0 
L 2847 0 
L 2847 2094 
Q 2847 2600 2669 2842 
Q 2491 3084 2119 3084 
Q 1678 3084 1418 2786 
Q 1159 2488 1159 1978 
L 1159 0 
L 581 0 
L 581 3500 
L 1159 3500 
L 1159 2956 
Q 1356 3278 1631 3431 
Q 1906 3584 2284 3584 
Q 2666 3584 2933 3390 
Q 3200 3197 3328 2828 
z
" transform="scale(0.015625)"/>
      <path id="DejaVuSans-61" d="M 2194 1759 
Q 1497 1759 1228 1600 
Q 959 1441 959 1056 
Q 959 750 1161 570 
Q 1363 391 1709 391 
Q 2188 391 2477 730 
Q 2766 1069 2766 1631 
L 2766 1759 
L 2194 1759 
z
M 3341 1997 
L 3341 0 
L 2766 0 
L 2766 531 
Q 2569 213 2275 61 
Q 1981 -91 1556 -91 
Q 1019 -91 701 211 
Q 384 513 384 1019 
Q 384 1609 779 1909 
Q 1175 2209 1959 2209 
L 2766 2209 
L 2766 2266 
Q 2766 2663 2505 2880 
Q 2244 3097 1772 3097 
Q 1472 3097 1187 3025 
Q 903 2953 641 2809 
L 641 3341 
Q 956 3463 1253 3523 
Q 1550 3584 1831 3584 
Q 2591 3584 2966 3190 
Q 3341 2797 3341 1997 
z
" transform="scale(0.015625)"/>
      <path id="DejaVuSans-78" d="M 3513 3500 
L 2247 1797 
L 3578 0 
L 2900 0 
L 1881 1375 
L 863 0 
L 184 0 
L 1544 1831 
L 300 3500 
L 978 3500 
L 1906 2253 
L 2834 3500 
L 3513 3500 
z
" transform="scale(0.015625)"/>
      <path id="DejaVuSans-65" d="M 3597 1894 
L 3597 1613 
L 953 1613 
Q 991 1019 1311 708 
Q 1631 397 2203 397 
Q 2534 397 2845 478 
Q 3156 559 3463 722 
L 3463 178 
Q 3153 47 2828 -22 
Q 2503 -91 2169 -91 
Q 1331 -91 842 396 
Q 353 884 353 1716 
Q 353 2575 817 3079 
Q 1281 3584 2069 3584 
Q 2775 3584 3186 3129 
Q 3597 2675 3597 1894 
z
M 3022 2063 
Q 3016 2534 2758 2815 
Q 2500 3097 2075 3097 
Q 1594 3097 1305 2825 
Q 1016 2553 972 2059 
L 3022 2063 
z
" transform="scale(0.015625)"/>
      <path id="DejaVuSans-76" d="M 191 3500 
L 800 3500 
L 1894 563 
L 2988 3500 
L 3597 3500 
L 2284 0 
L 1503 0 
L 191 3500 
z
" transform="scale(0.015625)"/>
      <path id="DejaVuSans-71" d="M 947 1747 
Q 947 1113 1208 752 
Q 1469 391 1925 391 
Q 2381 391 2643 752 
Q 2906 1113 2906 1747 
Q 2906 2381 2643 2742 
Q 2381 3103 1925 3103 
Q 1469 3103 1208 2742 
Q 947 2381 947 1747 
z
M 2906 525 
Q 2725 213 2448 61 
Q 2172 -91 1784 -91 
Q 1150 -91 751 415 
Q 353 922 353 1747 
Q 353 2572 751 3078 
Q 1150 3584 1784 3584 
Q 2172 3584 2448 3432 
Q 2725 3281 2906 2969 
L 2906 3500 
L 3481 3500 
L 3481 -1331 
L 2906 -1331 
L 2906 525 
z
" transform="scale(0.015625)"/>
      <path id="DejaVuSans-70" d="M 1159 525 
L 1159 -1331 
L 581 -1331 
L 581 3500 
L 1159 3500 
L 1159 2969 
Q 1341 3281 1617 3432 
Q 1894 3584 2278 3584 
Q 2916 3584 3314 3078 
Q 3713 2572 3713 1747 
Q 3713 922 3314 415 
Q 2916 -91 2278 -91 
Q 1894 -91 1617 61 
Q 1341 213 1159 525 
z
M 3116 1747 
Q 3116 2381 2855 2742 
Q 2594 3103 2138 3103 
Q 1681 3103 1420 2742 
Q 1159 2381 1159 1747 
Q 1159 1113 1420 752 
Q 1681 391 2138 391 
Q 2594 391 2855 752 
Q 3116 1113 3116 1747 
z
" transform="scale(0.015625)"/>
      <path id="DejaVuSans-23" d="M 3272 2816 
L 2363 2816 
L 2100 1772 
L 3016 1772 
L 3272 2816 
z
M 2803 4594 
L 2478 3297 
L 3391 3297 
L 3719 4594 
L 4219 4594 
L 3897 3297 
L 4872 3297 
L 4872 2816 
L 3775 2816 
L 3519 1772 
L 4513 1772 
L 4513 1294 
L 3397 1294 
L 3072 0 
L 2572 0 
L 2894 1294 
L 1978 1294 
L 1656 0 
L 1153 0 
L 1478 1294 
L 494 1294 
L 494 1772 
L 1594 1772 
L 1856 2816 
L 850 2816 
L 850 3297 
L 1978 3297 
L 2297 4594 
L 2803 4594 
z
" transform="scale(0.015625)"/>
     </defs>
     <use xlink:href="#DejaVuSans-50"/>
     <use xlink:href="#DejaVuSans-6c" x="60.302734"/>
     <use xlink:href="#DejaVuSans-6f" x="88.085938"/>
     <use xlink:href="#DejaVuSans-74" x="149.267578"/>
     <use xlink:href="#DejaVuSans-20" x="188.476562"/>
     <use xlink:href="#DejaVuSans-73" x="220.263672"/>
     <use xlink:href="#DejaVuSans-68" x="272.363281"/>
     <use xlink:href="#DejaVuSans-6f" x="335.742188"/>
     <use xlink:href="#DejaVuSans-77" x="396.923828"/>
     <use xlink:href="#DejaVuSans-69" x="478.710938"/>
     <use xlink:href="#DejaVuSans-6e" x="506.494141"/>
     <use xlink:href="#DejaVuSans-67" x="569.873047"/>
     <use xlink:href="#DejaVuSans-20" x="633.349609"/>
     <use xlink:href="#DejaVuSans-64" x="665.136719"/>
     <use xlink:href="#DejaVuSans-69" x="728.613281"/>
     <use xlink:href="#DejaVuSans-73" x="756.396484"/>
     <use xlink:href="#DejaVuSans-74" x="808.496094"/>
     <use xlink:href="#DejaVuSans-72" x="847.705078"/>
     <use xlink:href="#DejaVuSans-69" x="888.818359"/>
     <use xlink:href="#DejaVuSans-62" x="916.601562"/>
     <use xlink:href="#DejaVuSans-75" x="980.078125"/>
     <use xlink:href="#DejaVuSans-74" x="1043.457031"/>
     <use xlink:href="#DejaVuSans-69" x="1082.666016"/>
     <use xlink:href="#DejaVuSans-6f" x="1110.449219"/>
     <use xlink:href="#DejaVuSans-6e" x="1171.630859"/>
     <use xlink:href="#DejaVuSans-20" x="1235.009766"/>
     <use xlink:href="#DejaVuSans-6f" x="1266.796875"/>
     <use xlink:href="#DejaVuSans-66" x="1327.978516"/>
     <use xlink:href="#DejaVuSans-20" x="1363.183594"/>
     <use xlink:href="#DejaVuSans-6d" x="1394.970703"/>
     <use xlink:href="#DejaVuSans-61" x="1492.382812"/>
     <use xlink:href="#DejaVuSans-78" x="1553.662109"/>
     <use xlink:href="#DejaVuSans-69" x="1612.841797"/>
     <use xlink:href="#DejaVuSans-6d" x="1640.625"/>
     <use xlink:href="#DejaVuSans-61" x="1738.037109"/>
     <use xlink:href="#DejaVuSans-6c" x="1799.316406"/>
     <use xlink:href="#DejaVuSans-20" x="1827.099609"/>
     <use xlink:href="#DejaVuSans-66" x="1858.886719"/>
     <use xlink:href="#DejaVuSans-69" x="1894.091797"/>
     <use xlink:href="#DejaVuSans-74" x="1921.875"/>
     <use xlink:href="#DejaVuSans-6e" x="1961.083984"/>
     <use xlink:href="#DejaVuSans-65" x="2024.462891"/>
     <use xlink:href="#DejaVuSans-73" x="2085.986328"/>
     <use xlink:href="#DejaVuSans-73" x="2138.085938"/>
     <use xlink:href="#DejaVuSans-20" x="2190.185547"/>
     <use xlink:href="#DejaVuSans-76" x="2221.972656"/>
     <use xlink:href="#DejaVuSans-61" x="2281.152344"/>
     <use xlink:href="#DejaVuSans-6c" x="2342.431641"/>
     <use xlink:href="#DejaVuSans-75" x="2370.214844"/>
     <use xlink:href="#DejaVuSans-65" x="2433.59375"/>
     <use xlink:href="#DejaVuSans-73" x="2495.117188"/>
     <use xlink:href="#DejaVuSans-20" x="2547.216797"/>
     <use xlink:href="#DejaVuSans-69" x="2579.003906"/>
     <use xlink:href="#DejaVuSans-6e" x="2606.787109"/>
     <use xlink:href="#DejaVuSans-20" x="2670.166016"/>
     <use xlink:href="#DejaVuSans-73" x="2701.953125"/>
     <use xlink:href="#DejaVuSans-75" x="2754.052734"/>
     <use xlink:href="#DejaVuSans-62" x="2817.431641"/>
     <use xlink:href="#DejaVuSans-73" x="2880.908203"/>
     <use xlink:href="#DejaVuSans-65" x="2933.007812"/>
     <use xlink:href="#DejaVuSans-71" x="2994.53125"/>
     <use xlink:href="#DejaVuSans-75" x="3058.007812"/>
     <use xlink:href="#DejaVuSans-65" x="3121.386719"/>
     <use xlink:href="#DejaVuSans-6e" x="3182.910156"/>
     <use xlink:href="#DejaVuSans-74" x="3246.289062"/>
     <use xlink:href="#DejaVuSans-20" x="3285.498047"/>
     <use xlink:href="#DejaVuSans-70" x="3317.285156"/>
     <use xlink:href="#DejaVuSans-6f" x="3380.761719"/>
     <use xlink:href="#DejaVuSans-70" x="3441.943359"/>
     <use xlink:href="#DejaVuSans-75" x="3505.419922"/>
     <use xlink:href="#DejaVuSans-6c" x="3568.798828"/>
     <use xlink:href="#DejaVuSans-61" x="3596.582031"/>
     <use xlink:href="#DejaVuSans-74" x="3657.861328"/>
     <use xlink:href="#DejaVuSans-69" x="3697.070312"/>
     <use xlink:href="#DejaVuSans-6f" x="3724.853516"/>
     <use xlink:href="#DejaVuSans-6e" x="3786.035156"/>
     <use xlink:href="#DejaVuSans-73" x="3849.414062"/>
     <use xlink:href="#DejaVuSans-20" x="3901.513672"/>
     <use xlink:href="#DejaVuSans-23" x="3933.300781"/>
     <use xlink:href="#DejaVuSans-32" x="4017.089844"/>
    </g>
   </g>
  </g>
 </g>
 <defs>
  <clipPath id="p8f484a332b">
   <rect x="10.7" y="22.318125" width="1004.4" height="978.48"/>
  </clipPath>
 </defs>
</svg>
