<?xml version="1.0" encoding="utf-8" standalone="no"?>
<!DOCTYPE svg PUBLIC "-//W3C//DTD SVG 1.1//EN"
  "http://www.w3.org/Graphics/SVG/1.1/DTD/svg11.dtd">
<svg xmlns:xlink="http://www.w3.org/1999/xlink" width="1022.3pt" height="1024.67625pt" viewBox="0 0 1022.3 1024.67625" xmlns="http://www.w3.org/2000/svg" version="1.1">
 <metadata>
  <rdf:RDF xmlns:dc="http://purl.org/dc/elements/1.1/" xmlns:cc="http://creativecommons.org/ns#" xmlns:rdf="http://www.w3.org/1999/02/22-rdf-syntax-ns#">
   <cc:Work>
    <dc:type rdf:resource="http://purl.org/dc/dcmitype/StillImage"/>
    <dc:date>2022-02-07T14:43:25.102972</dc:date>
    <dc:format>image/svg+xml</dc:format>
    <dc:creator>
     <cc:Agent>
      <dc:title>Matplotlib v3.5.0, https://matplotlib.org/</dc:title>
     </cc:Agent>
    </dc:creator>
   </cc:Work>
  </rdf:RDF>
 </metadata>
 <defs>
  <style type="text/css">*{stroke-linejoin: round; stroke-linecap: butt}</style>
 </defs>
 <g id="figure_1">
  <g id="patch_1">
   <path d="M 0 1024.67625 
L 1022.3 1024.67625 
L 1022.3 0 
L 0 0 
L 0 1024.67625 
z
" style="fill: none"/>
  </g>
  <g id="axes_1">
   <g id="patch_2">
    <path d="M 10.7 1000.798125 
L 1015.1 1000.798125 
L 1015.1 22.318125 
L 10.7 22.318125 
z
" style="fill: #ffffff"/>
   </g>
   <g id="PolyCollection_1">
    <defs>
     <path id="m9b874f4acd" d="M 56.354545 -491.576704 
L 56.354545 -534.659546 
L 65.577686 -539.253206 
L 74.800826 -544.598453 
L 84.023967 -550.765984 
L 93.247107 -557.822241 
L 102.470248 -565.826833 
L 111.693388 -574.829774 
L 120.916529 -584.868638 
L 130.139669 -595.96573 
L 139.36281 -608.125402 
L 148.58595 -621.331625 
L 157.809091 -635.545971 
L 167.032231 -650.706107 
L 176.255372 -666.724926 
L 185.478512 -683.490398 
L 194.701653 -700.866215 
L 203.924793 -718.693261 
L 213.147934 -736.791904 
L 222.371074 -754.965074 
L 231.594215 -773.002058 
L 240.817355 -790.682896 
L 250.040496 -807.783242 
L 259.263636 -824.079544 
L 268.486777 -839.35434 
L 277.709917 -853.401511 
L 286.933058 -866.031297 
L 296.156198 -877.07491 
L 305.379339 -886.388584 
L 314.602479 -893.856938 
L 323.82562 -899.395554 
L 333.04876 -902.952692 
L 342.271901 -904.510125 
L 351.495041 -904.083077 
L 360.718182 -901.71931 
L 369.941322 -897.497408 
L 379.164463 -891.52435 
L 388.387603 -883.932457 
L 397.610744 -874.875847 
L 406.833884 -864.526499 
L 416.057025 -853.070056 
L 425.280165 -840.701486 
L 434.503306 -827.620723 
L 443.726446 -814.028384 
L 452.949587 -800.121673 
L 462.172727 -786.090555 
L 471.395868 -772.114277 
L 480.619008 -758.358315 
L 489.842149 -744.97179 
L 499.065289 -732.085396 
L 508.28843 -719.809891 
L 517.51157 -708.235132 
L 526.734711 -697.429693 
L 535.957851 -687.441021 
L 545.180992 -678.29611 
L 554.404132 -670.002647 
L 563.627273 -662.550559 
L 572.850413 -655.913885 
L 582.073554 -650.052893 
L 591.296694 -644.916345 
L 600.519835 -640.443812 
L 609.742975 -636.56797 
L 618.966116 -633.216783 
L 628.189256 -630.315519 
L 637.412397 -627.788552 
L 646.635537 -625.560931 
L 655.858678 -623.5597 
L 665.081818 -621.714994 
L 674.304959 -619.960919 
L 683.528099 -618.236273 
L 692.75124 -616.485125 
L 701.97438 -614.657308 
L 711.197521 -612.70884 
L 720.420661 -610.602316 
L 729.643802 -608.307248 
L 738.866942 -605.800384 
L 748.090083 -603.065956 
L 757.313223 -600.095853 
L 766.536364 -596.889677 
L 775.759504 -593.454643 
L 784.982645 -589.805314 
L 794.205785 -585.963121 
L 803.428926 -581.95569 
L 812.652066 -577.815959 
L 821.875207 -573.581113 
L 831.098347 -569.291384 
L 840.321488 -564.988737 
L 849.544628 -560.715533 
L 858.767769 -556.51319 
L 867.990909 -552.42094 
L 877.21405 -548.474707 
L 886.43719 -544.706173 
L 895.660331 -541.142049 
L 904.883471 -537.803592 
L 914.106612 -534.706357 
L 923.329752 -531.860186 
L 932.552893 -529.269415 
L 941.776033 -526.933262 
L 950.999174 -524.846369 
L 960.222314 -522.999451 
L 969.445455 -521.38001 
L 969.445455 -504.85624 
L 969.445455 -504.85624 
L 960.222314 -503.236799 
L 950.999174 -501.389881 
L 941.776033 -499.302988 
L 932.552893 -496.966835 
L 923.329752 -494.376064 
L 914.106612 -491.529893 
L 904.883471 -488.432658 
L 895.660331 -485.094201 
L 886.43719 -481.530077 
L 877.21405 -477.761543 
L 867.990909 -473.81531 
L 858.767769 -469.72306 
L 849.544628 -465.520717 
L 840.321488 -461.247513 
L 831.098347 -456.944866 
L 821.875207 -452.655137 
L 812.652066 -448.420291 
L 803.428926 -444.28056 
L 794.205785 -440.273129 
L 784.982645 -436.430936 
L 775.759504 -432.781607 
L 766.536364 -429.346573 
L 757.313223 -426.140397 
L 748.090083 -423.170294 
L 738.866942 -420.435866 
L 729.643802 -417.929002 
L 720.420661 -415.633934 
L 711.197521 -413.52741 
L 701.97438 -411.578942 
L 692.75124 -409.751125 
L 683.528099 -407.999977 
L 674.304959 -406.275331 
L 665.081818 -404.521256 
L 655.858678 -402.67655 
L 646.635537 -400.675319 
L 637.412397 -398.447698 
L 628.189256 -395.920731 
L 618.966116 -393.019467 
L 609.742975 -389.66828 
L 600.519835 -385.792438 
L 591.296694 -381.319905 
L 582.073554 -376.183357 
L 572.850413 -370.322365 
L 563.627273 -363.685691 
L 554.404132 -356.233603 
L 545.180992 -347.94014 
L 535.957851 -338.795229 
L 526.734711 -328.806557 
L 517.51157 -318.001118 
L 508.28843 -306.426359 
L 499.065289 -294.150854 
L 489.842149 -281.26446 
L 480.619008 -267.877935 
L 471.395868 -254.121973 
L 462.172727 -240.145695 
L 452.949587 -226.114577 
L 443.726446 -212.207866 
L 434.503306 -198.615527 
L 425.280165 -185.534764 
L 416.057025 -173.166194 
L 406.833884 -161.709751 
L 397.610744 -151.360403 
L 388.387603 -142.303793 
L 379.164463 -134.7119 
L 369.941322 -128.738842 
L 360.718182 -124.51694 
L 351.495041 -122.153173 
L 342.271901 -121.726125 
L 333.04876 -123.283558 
L 323.82562 -126.840696 
L 314.602479 -132.379312 
L 305.379339 -139.847666 
L 296.156198 -149.16134 
L 286.933058 -160.204953 
L 277.709917 -172.834739 
L 268.486777 -186.88191 
L 259.263636 -202.156706 
L 250.040496 -218.453008 
L 240.817355 -235.553354 
L 231.594215 -253.234192 
L 222.371074 -271.271176 
L 213.147934 -289.444346 
L 203.924793 -307.542989 
L 194.701653 -325.370035 
L 185.478512 -342.745852 
L 176.255372 -359.511324 
L 167.032231 -375.530143 
L 157.809091 -390.690279 
L 148.58595 -404.904625 
L 139.36281 -418.110848 
L 130.139669 -430.27052 
L 120.916529 -441.367612 
L 111.693388 -451.406476 
L 102.470248 -460.409417 
L 93.247107 -468.414009 
L 84.023967 -475.470266 
L 74.800826 -481.637797 
L 65.577686 -486.983044 
L 56.354545 -491.576704 
z
" style="stroke: #3f3f3f; stroke-width: 1.5"/>
    </defs>
    <g clip-path="url(#p087419a593)">
     <use xlink:href="#m9b874f4acd" x="0" y="1024.67625" style="fill: #3274a1; stroke: #3f3f3f; stroke-width: 1.5"/>
    </g>
   </g>
   <g id="matplotlib.axis_1">
    <g id="xtick_1">
     <g id="line2d_1">
      <defs>
       <path id="m188ee41084" d="M 0 0 
L 0 3.5 
" style="stroke: #000000; stroke-width: 0.8"/>
      </defs>
      <g>
       <use xlink:href="#m188ee41084" x="112.311602" y="1000.798125" style="stroke: #000000; stroke-width: 0.8"/>
      </g>
     </g>
     <g id="text_1">
      <!-- 0.00 -->
      <g transform="translate(101.178789 1015.396562)scale(0.1 -0.1)">
       <defs>
        <path id="DejaVuSans-30" d="M 2034 4250 
Q 1547 4250 1301 3770 
Q 1056 3291 1056 2328 
Q 1056 1369 1301 889 
Q 1547 409 2034 409 
Q 2525 409 2770 889 
Q 3016 1369 3016 2328 
Q 3016 3291 2770 3770 
Q 2525 4250 2034 4250 
z
M 2034 4750 
Q 2819 4750 3233 4129 
Q 3647 3509 3647 2328 
Q 3647 1150 3233 529 
Q 2819 -91 2034 -91 
Q 1250 -91 836 529 
Q 422 1150 422 2328 
Q 422 3509 836 4129 
Q 1250 4750 2034 4750 
z
" transform="scale(0.015625)"/>
        <path id="DejaVuSans-2e" d="M 684 794 
L 1344 794 
L 1344 0 
L 684 0 
L 684 794 
z
" transform="scale(0.015625)"/>
       </defs>
       <use xlink:href="#DejaVuSans-30"/>
       <use xlink:href="#DejaVuSans-2e" x="63.623047"/>
       <use xlink:href="#DejaVuSans-30" x="95.410156"/>
       <use xlink:href="#DejaVuSans-30" x="159.033203"/>
      </g>
     </g>
    </g>
    <g id="xtick_2">
     <g id="line2d_2">
      <g>
       <use xlink:href="#m188ee41084" x="230.733039" y="1000.798125" style="stroke: #000000; stroke-width: 0.8"/>
      </g>
     </g>
     <g id="text_2">
      <!-- 0.25 -->
      <g transform="translate(219.600226 1015.396562)scale(0.1 -0.1)">
       <defs>
        <path id="DejaVuSans-32" d="M 1228 531 
L 3431 531 
L 3431 0 
L 469 0 
L 469 531 
Q 828 903 1448 1529 
Q 2069 2156 2228 2338 
Q 2531 2678 2651 2914 
Q 2772 3150 2772 3378 
Q 2772 3750 2511 3984 
Q 2250 4219 1831 4219 
Q 1534 4219 1204 4116 
Q 875 4013 500 3803 
L 500 4441 
Q 881 4594 1212 4672 
Q 1544 4750 1819 4750 
Q 2544 4750 2975 4387 
Q 3406 4025 3406 3419 
Q 3406 3131 3298 2873 
Q 3191 2616 2906 2266 
Q 2828 2175 2409 1742 
Q 1991 1309 1228 531 
z
" transform="scale(0.015625)"/>
        <path id="DejaVuSans-35" d="M 691 4666 
L 3169 4666 
L 3169 4134 
L 1269 4134 
L 1269 2991 
Q 1406 3038 1543 3061 
Q 1681 3084 1819 3084 
Q 2600 3084 3056 2656 
Q 3513 2228 3513 1497 
Q 3513 744 3044 326 
Q 2575 -91 1722 -91 
Q 1428 -91 1123 -41 
Q 819 9 494 109 
L 494 744 
Q 775 591 1075 516 
Q 1375 441 1709 441 
Q 2250 441 2565 725 
Q 2881 1009 2881 1497 
Q 2881 1984 2565 2268 
Q 2250 2553 1709 2553 
Q 1456 2553 1204 2497 
Q 953 2441 691 2322 
L 691 4666 
z
" transform="scale(0.015625)"/>
       </defs>
       <use xlink:href="#DejaVuSans-30"/>
       <use xlink:href="#DejaVuSans-2e" x="63.623047"/>
       <use xlink:href="#DejaVuSans-32" x="95.410156"/>
       <use xlink:href="#DejaVuSans-35" x="159.033203"/>
      </g>
     </g>
    </g>
    <g id="xtick_3">
     <g id="line2d_3">
      <g>
       <use xlink:href="#m188ee41084" x="349.154476" y="1000.798125" style="stroke: #000000; stroke-width: 0.8"/>
      </g>
     </g>
     <g id="text_3">
      <!-- 0.50 -->
      <g transform="translate(338.021663 1015.396562)scale(0.1 -0.1)">
       <use xlink:href="#DejaVuSans-30"/>
       <use xlink:href="#DejaVuSans-2e" x="63.623047"/>
       <use xlink:href="#DejaVuSans-35" x="95.410156"/>
       <use xlink:href="#DejaVuSans-30" x="159.033203"/>
      </g>
     </g>
    </g>
    <g id="xtick_4">
     <g id="line2d_4">
      <g>
       <use xlink:href="#m188ee41084" x="467.575913" y="1000.798125" style="stroke: #000000; stroke-width: 0.8"/>
      </g>
     </g>
     <g id="text_4">
      <!-- 0.75 -->
      <g transform="translate(456.4431 1015.396562)scale(0.1 -0.1)">
       <defs>
        <path id="DejaVuSans-37" d="M 525 4666 
L 3525 4666 
L 3525 4397 
L 1831 0 
L 1172 0 
L 2766 4134 
L 525 4134 
L 525 4666 
z
" transform="scale(0.015625)"/>
       </defs>
       <use xlink:href="#DejaVuSans-30"/>
       <use xlink:href="#DejaVuSans-2e" x="63.623047"/>
       <use xlink:href="#DejaVuSans-37" x="95.410156"/>
       <use xlink:href="#DejaVuSans-35" x="159.033203"/>
      </g>
     </g>
    </g>
    <g id="xtick_5">
     <g id="line2d_5">
      <g>
       <use xlink:href="#m188ee41084" x="585.997349" y="1000.798125" style="stroke: #000000; stroke-width: 0.8"/>
      </g>
     </g>
     <g id="text_5">
      <!-- 1.00 -->
      <g transform="translate(574.864537 1015.396562)scale(0.1 -0.1)">
       <defs>
        <path id="DejaVuSans-31" d="M 794 531 
L 1825 531 
L 1825 4091 
L 703 3866 
L 703 4441 
L 1819 4666 
L 2450 4666 
L 2450 531 
L 3481 531 
L 3481 0 
L 794 0 
L 794 531 
z
" transform="scale(0.015625)"/>
       </defs>
       <use xlink:href="#DejaVuSans-31"/>
       <use xlink:href="#DejaVuSans-2e" x="63.623047"/>
       <use xlink:href="#DejaVuSans-30" x="95.410156"/>
       <use xlink:href="#DejaVuSans-30" x="159.033203"/>
      </g>
     </g>
    </g>
    <g id="xtick_6">
     <g id="line2d_6">
      <g>
       <use xlink:href="#m188ee41084" x="704.418786" y="1000.798125" style="stroke: #000000; stroke-width: 0.8"/>
      </g>
     </g>
     <g id="text_6">
      <!-- 1.25 -->
      <g transform="translate(693.285974 1015.396562)scale(0.1 -0.1)">
       <use xlink:href="#DejaVuSans-31"/>
       <use xlink:href="#DejaVuSans-2e" x="63.623047"/>
       <use xlink:href="#DejaVuSans-32" x="95.410156"/>
       <use xlink:href="#DejaVuSans-35" x="159.033203"/>
      </g>
     </g>
    </g>
    <g id="xtick_7">
     <g id="line2d_7">
      <g>
       <use xlink:href="#m188ee41084" x="822.840223" y="1000.798125" style="stroke: #000000; stroke-width: 0.8"/>
      </g>
     </g>
     <g id="text_7">
      <!-- 1.50 -->
      <g transform="translate(811.707411 1015.396562)scale(0.1 -0.1)">
       <use xlink:href="#DejaVuSans-31"/>
       <use xlink:href="#DejaVuSans-2e" x="63.623047"/>
       <use xlink:href="#DejaVuSans-35" x="95.410156"/>
       <use xlink:href="#DejaVuSans-30" x="159.033203"/>
      </g>
     </g>
    </g>
    <g id="xtick_8">
     <g id="line2d_8">
      <g>
       <use xlink:href="#m188ee41084" x="941.26166" y="1000.798125" style="stroke: #000000; stroke-width: 0.8"/>
      </g>
     </g>
     <g id="text_8">
      <!-- 1.75 -->
      <g transform="translate(930.128848 1015.396562)scale(0.1 -0.1)">
       <use xlink:href="#DejaVuSans-31"/>
       <use xlink:href="#DejaVuSans-2e" x="63.623047"/>
       <use xlink:href="#DejaVuSans-37" x="95.410156"/>
       <use xlink:href="#DejaVuSans-35" x="159.033203"/>
      </g>
     </g>
    </g>
   </g>
   <g id="matplotlib.axis_2">
    <g id="ytick_1">
     <g id="line2d_9">
      <defs>
       <path id="mc569a68875" d="M 0 0 
L -3.5 0 
" style="stroke: #000000; stroke-width: 0.8"/>
      </defs>
      <g>
       <use xlink:href="#mc569a68875" x="10.7" y="511.558125" style="stroke: #000000; stroke-width: 0.8"/>
      </g>
     </g>
    </g>
   </g>
   <g id="line2d_10">
    <path d="M 261.72486 511.558125 
L 625.255765 511.558125 
" clip-path="url(#p087419a593)" style="fill: none; stroke: #3f3f3f; stroke-width: 1.5; stroke-linecap: square"/>
   </g>
   <g id="line2d_11">
    <path d="M 313.652349 511.558125 
L 460.119719 511.558125 
" clip-path="url(#p087419a593)" style="fill: none; stroke: #3f3f3f; stroke-width: 4.5; stroke-linecap: square"/>
   </g>
   <g id="patch_3">
    <path d="M 10.7 1000.798125 
L 10.7 22.318125 
" style="fill: none; stroke: #000000; stroke-width: 0.8; stroke-linejoin: miter; stroke-linecap: square"/>
   </g>
   <g id="patch_4">
    <path d="M 1015.1 1000.798125 
L 1015.1 22.318125 
" style="fill: none; stroke: #000000; stroke-width: 0.8; stroke-linejoin: miter; stroke-linecap: square"/>
   </g>
   <g id="patch_5">
    <path d="M 10.7 1000.798125 
L 1015.1 1000.798125 
" style="fill: none; stroke: #000000; stroke-width: 0.8; stroke-linejoin: miter; stroke-linecap: square"/>
   </g>
   <g id="patch_6">
    <path d="M 10.7 22.318125 
L 1015.1 22.318125 
" style="fill: none; stroke: #000000; stroke-width: 0.8; stroke-linejoin: miter; stroke-linecap: square"/>
   </g>
   <g id="PathCollection_1">
    <defs>
     <path id="m9fd8fd9704" d="M 0 1.5 
C 0.397805 1.5 0.77937 1.341951 1.06066 1.06066 
C 1.341951 0.77937 1.5 0.397805 1.5 0 
C 1.5 -0.397805 1.341951 -0.77937 1.06066 -1.06066 
C 0.77937 -1.341951 0.397805 -1.5 0 -1.5 
C -0.397805 -1.5 -0.77937 -1.341951 -1.06066 -1.06066 
C -1.341951 -0.77937 -1.5 -0.397805 -1.5 0 
C -1.5 0.397805 -1.341951 0.77937 -1.06066 1.06066 
C -0.77937 1.341951 -0.397805 1.5 0 1.5 
z
" style="stroke: #3f3f3f"/>
    </defs>
    <g clip-path="url(#p087419a593)">
     <use xlink:href="#m9fd8fd9704" x="359.318002" y="511.558125" style="fill: #ffffff; stroke: #3f3f3f"/>
    </g>
   </g>
   <g id="text_9">
    <!-- Plot showing distribution of maximal fitness values in subsequent populations #1 -->
    <g transform="translate(268.0625 16.318125)scale(0.12 -0.12)">
     <defs>
      <path id="DejaVuSans-50" d="M 1259 4147 
L 1259 2394 
L 2053 2394 
Q 2494 2394 2734 2622 
Q 2975 2850 2975 3272 
Q 2975 3691 2734 3919 
Q 2494 4147 2053 4147 
L 1259 4147 
z
M 628 4666 
L 2053 4666 
Q 2838 4666 3239 4311 
Q 3641 3956 3641 3272 
Q 3641 2581 3239 2228 
Q 2838 1875 2053 1875 
L 1259 1875 
L 1259 0 
L 628 0 
L 628 4666 
z
" transform="scale(0.015625)"/>
      <path id="DejaVuSans-6c" d="M 603 4863 
L 1178 4863 
L 1178 0 
L 603 0 
L 603 4863 
z
" transform="scale(0.015625)"/>
      <path id="DejaVuSans-6f" d="M 1959 3097 
Q 1497 3097 1228 2736 
Q 959 2375 959 1747 
Q 959 1119 1226 758 
Q 1494 397 1959 397 
Q 2419 397 2687 759 
Q 2956 1122 2956 1747 
Q 2956 2369 2687 2733 
Q 2419 3097 1959 3097 
z
M 1959 3584 
Q 2709 3584 3137 3096 
Q 3566 2609 3566 1747 
Q 3566 888 3137 398 
Q 2709 -91 1959 -91 
Q 1206 -91 779 398 
Q 353 888 353 1747 
Q 353 2609 779 3096 
Q 1206 3584 1959 3584 
z
" transform="scale(0.015625)"/>
      <path id="DejaVuSans-74" d="M 1172 4494 
L 1172 3500 
L 2356 3500 
L 2356 3053 
L 1172 3053 
L 1172 1153 
Q 1172 725 1289 603 
Q 1406 481 1766 481 
L 2356 481 
L 2356 0 
L 1766 0 
Q 1100 0 847 248 
Q 594 497 594 1153 
L 594 3053 
L 172 3053 
L 172 3500 
L 594 3500 
L 594 4494 
L 1172 4494 
z
" transform="scale(0.015625)"/>
      <path id="DejaVuSans-20" transform="scale(0.015625)"/>
      <path id="DejaVuSans-73" d="M 2834 3397 
L 2834 2853 
Q 2591 2978 2328 3040 
Q 2066 3103 1784 3103 
Q 1356 3103 1142 2972 
Q 928 2841 928 2578 
Q 928 2378 1081 2264 
Q 1234 2150 1697 2047 
L 1894 2003 
Q 2506 1872 2764 1633 
Q 3022 1394 3022 966 
Q 3022 478 2636 193 
Q 2250 -91 1575 -91 
Q 1294 -91 989 -36 
Q 684 19 347 128 
L 347 722 
Q 666 556 975 473 
Q 1284 391 1588 391 
Q 1994 391 2212 530 
Q 2431 669 2431 922 
Q 2431 1156 2273 1281 
Q 2116 1406 1581 1522 
L 1381 1569 
Q 847 1681 609 1914 
Q 372 2147 372 2553 
Q 372 3047 722 3315 
Q 1072 3584 1716 3584 
Q 2034 3584 2315 3537 
Q 2597 3491 2834 3397 
z
" transform="scale(0.015625)"/>
      <path id="DejaVuSans-68" d="M 3513 2113 
L 3513 0 
L 2938 0 
L 2938 2094 
Q 2938 2591 2744 2837 
Q 2550 3084 2163 3084 
Q 1697 3084 1428 2787 
Q 1159 2491 1159 1978 
L 1159 0 
L 581 0 
L 581 4863 
L 1159 4863 
L 1159 2956 
Q 1366 3272 1645 3428 
Q 1925 3584 2291 3584 
Q 2894 3584 3203 3211 
Q 3513 2838 3513 2113 
z
" transform="scale(0.015625)"/>
      <path id="DejaVuSans-77" d="M 269 3500 
L 844 3500 
L 1563 769 
L 2278 3500 
L 2956 3500 
L 3675 769 
L 4391 3500 
L 4966 3500 
L 4050 0 
L 3372 0 
L 2619 2869 
L 1863 0 
L 1184 0 
L 269 3500 
z
" transform="scale(0.015625)"/>
      <path id="DejaVuSans-69" d="M 603 3500 
L 1178 3500 
L 1178 0 
L 603 0 
L 603 3500 
z
M 603 4863 
L 1178 4863 
L 1178 4134 
L 603 4134 
L 603 4863 
z
" transform="scale(0.015625)"/>
      <path id="DejaVuSans-6e" d="M 3513 2113 
L 3513 0 
L 2938 0 
L 2938 2094 
Q 2938 2591 2744 2837 
Q 2550 3084 2163 3084 
Q 1697 3084 1428 2787 
Q 1159 2491 1159 1978 
L 1159 0 
L 581 0 
L 581 3500 
L 1159 3500 
L 1159 2956 
Q 1366 3272 1645 3428 
Q 1925 3584 2291 3584 
Q 2894 3584 3203 3211 
Q 3513 2838 3513 2113 
z
" transform="scale(0.015625)"/>
      <path id="DejaVuSans-67" d="M 2906 1791 
Q 2906 2416 2648 2759 
Q 2391 3103 1925 3103 
Q 1463 3103 1205 2759 
Q 947 2416 947 1791 
Q 947 1169 1205 825 
Q 1463 481 1925 481 
Q 2391 481 2648 825 
Q 2906 1169 2906 1791 
z
M 3481 434 
Q 3481 -459 3084 -895 
Q 2688 -1331 1869 -1331 
Q 1566 -1331 1297 -1286 
Q 1028 -1241 775 -1147 
L 775 -588 
Q 1028 -725 1275 -790 
Q 1522 -856 1778 -856 
Q 2344 -856 2625 -561 
Q 2906 -266 2906 331 
L 2906 616 
Q 2728 306 2450 153 
Q 2172 0 1784 0 
Q 1141 0 747 490 
Q 353 981 353 1791 
Q 353 2603 747 3093 
Q 1141 3584 1784 3584 
Q 2172 3584 2450 3431 
Q 2728 3278 2906 2969 
L 2906 3500 
L 3481 3500 
L 3481 434 
z
" transform="scale(0.015625)"/>
      <path id="DejaVuSans-64" d="M 2906 2969 
L 2906 4863 
L 3481 4863 
L 3481 0 
L 2906 0 
L 2906 525 
Q 2725 213 2448 61 
Q 2172 -91 1784 -91 
Q 1150 -91 751 415 
Q 353 922 353 1747 
Q 353 2572 751 3078 
Q 1150 3584 1784 3584 
Q 2172 3584 2448 3432 
Q 2725 3281 2906 2969 
z
M 947 1747 
Q 947 1113 1208 752 
Q 1469 391 1925 391 
Q 2381 391 2643 752 
Q 2906 1113 2906 1747 
Q 2906 2381 2643 2742 
Q 2381 3103 1925 3103 
Q 1469 3103 1208 2742 
Q 947 2381 947 1747 
z
" transform="scale(0.015625)"/>
      <path id="DejaVuSans-72" d="M 2631 2963 
Q 2534 3019 2420 3045 
Q 2306 3072 2169 3072 
Q 1681 3072 1420 2755 
Q 1159 2438 1159 1844 
L 1159 0 
L 581 0 
L 581 3500 
L 1159 3500 
L 1159 2956 
Q 1341 3275 1631 3429 
Q 1922 3584 2338 3584 
Q 2397 3584 2469 3576 
Q 2541 3569 2628 3553 
L 2631 2963 
z
" transform="scale(0.015625)"/>
      <path id="DejaVuSans-62" d="M 3116 1747 
Q 3116 2381 2855 2742 
Q 2594 3103 2138 3103 
Q 1681 3103 1420 2742 
Q 1159 2381 1159 1747 
Q 1159 1113 1420 752 
Q 1681 391 2138 391 
Q 2594 391 2855 752 
Q 3116 1113 3116 1747 
z
M 1159 2969 
Q 1341 3281 1617 3432 
Q 1894 3584 2278 3584 
Q 2916 3584 3314 3078 
Q 3713 2572 3713 1747 
Q 3713 922 3314 415 
Q 2916 -91 2278 -91 
Q 1894 -91 1617 61 
Q 1341 213 1159 525 
L 1159 0 
L 581 0 
L 581 4863 
L 1159 4863 
L 1159 2969 
z
" transform="scale(0.015625)"/>
      <path id="DejaVuSans-75" d="M 544 1381 
L 544 3500 
L 1119 3500 
L 1119 1403 
Q 1119 906 1312 657 
Q 1506 409 1894 409 
Q 2359 409 2629 706 
Q 2900 1003 2900 1516 
L 2900 3500 
L 3475 3500 
L 3475 0 
L 2900 0 
L 2900 538 
Q 2691 219 2414 64 
Q 2138 -91 1772 -91 
Q 1169 -91 856 284 
Q 544 659 544 1381 
z
M 1991 3584 
L 1991 3584 
z
" transform="scale(0.015625)"/>
      <path id="DejaVuSans-66" d="M 2375 4863 
L 2375 4384 
L 1825 4384 
Q 1516 4384 1395 4259 
Q 1275 4134 1275 3809 
L 1275 3500 
L 2222 3500 
L 2222 3053 
L 1275 3053 
L 1275 0 
L 697 0 
L 697 3053 
L 147 3053 
L 147 3500 
L 697 3500 
L 697 3744 
Q 697 4328 969 4595 
Q 1241 4863 1831 4863 
L 2375 4863 
z
" transform="scale(0.015625)"/>
      <path id="DejaVuSans-6d" d="M 3328 2828 
Q 3544 3216 3844 3400 
Q 4144 3584 4550 3584 
Q 5097 3584 5394 3201 
Q 5691 2819 5691 2113 
L 5691 0 
L 5113 0 
L 5113 2094 
Q 5113 2597 4934 2840 
Q 4756 3084 4391 3084 
Q 3944 3084 3684 2787 
Q 3425 2491 3425 1978 
L 3425 0 
L 2847 0 
L 2847 2094 
Q 2847 2600 2669 2842 
Q 2491 3084 2119 3084 
Q 1678 3084 1418 2786 
Q 1159 2488 1159 1978 
L 1159 0 
L 581 0 
L 581 3500 
L 1159 3500 
L 1159 2956 
Q 1356 3278 1631 3431 
Q 1906 3584 2284 3584 
Q 2666 3584 2933 3390 
Q 3200 3197 3328 2828 
z
" transform="scale(0.015625)"/>
      <path id="DejaVuSans-61" d="M 2194 1759 
Q 1497 1759 1228 1600 
Q 959 1441 959 1056 
Q 959 750 1161 570 
Q 1363 391 1709 391 
Q 2188 391 2477 730 
Q 2766 1069 2766 1631 
L 2766 1759 
L 2194 1759 
z
M 3341 1997 
L 3341 0 
L 2766 0 
L 2766 531 
Q 2569 213 2275 61 
Q 1981 -91 1556 -91 
Q 1019 -91 701 211 
Q 384 513 384 1019 
Q 384 1609 779 1909 
Q 1175 2209 1959 2209 
L 2766 2209 
L 2766 2266 
Q 2766 2663 2505 2880 
Q 2244 3097 1772 3097 
Q 1472 3097 1187 3025 
Q 903 2953 641 2809 
L 641 3341 
Q 956 3463 1253 3523 
Q 1550 3584 1831 3584 
Q 2591 3584 2966 3190 
Q 3341 2797 3341 1997 
z
" transform="scale(0.015625)"/>
      <path id="DejaVuSans-78" d="M 3513 3500 
L 2247 1797 
L 3578 0 
L 2900 0 
L 1881 1375 
L 863 0 
L 184 0 
L 1544 1831 
L 300 3500 
L 978 3500 
L 1906 2253 
L 2834 3500 
L 3513 3500 
z
" transform="scale(0.015625)"/>
      <path id="DejaVuSans-65" d="M 3597 1894 
L 3597 1613 
L 953 1613 
Q 991 1019 1311 708 
Q 1631 397 2203 397 
Q 2534 397 2845 478 
Q 3156 559 3463 722 
L 3463 178 
Q 3153 47 2828 -22 
Q 2503 -91 2169 -91 
Q 1331 -91 842 396 
Q 353 884 353 1716 
Q 353 2575 817 3079 
Q 1281 3584 2069 3584 
Q 2775 3584 3186 3129 
Q 3597 2675 3597 1894 
z
M 3022 2063 
Q 3016 2534 2758 2815 
Q 2500 3097 2075 3097 
Q 1594 3097 1305 2825 
Q 1016 2553 972 2059 
L 3022 2063 
z
" transform="scale(0.015625)"/>
      <path id="DejaVuSans-76" d="M 191 3500 
L 800 3500 
L 1894 563 
L 2988 3500 
L 3597 3500 
L 2284 0 
L 1503 0 
L 191 3500 
z
" transform="scale(0.015625)"/>
      <path id="DejaVuSans-71" d="M 947 1747 
Q 947 1113 1208 752 
Q 1469 391 1925 391 
Q 2381 391 2643 752 
Q 2906 1113 2906 1747 
Q 2906 2381 2643 2742 
Q 2381 3103 1925 3103 
Q 1469 3103 1208 2742 
Q 947 2381 947 1747 
z
M 2906 525 
Q 2725 213 2448 61 
Q 2172 -91 1784 -91 
Q 1150 -91 751 415 
Q 353 922 353 1747 
Q 353 2572 751 3078 
Q 1150 3584 1784 3584 
Q 2172 3584 2448 3432 
Q 2725 3281 2906 2969 
L 2906 3500 
L 3481 3500 
L 3481 -1331 
L 2906 -1331 
L 2906 525 
z
" transform="scale(0.015625)"/>
      <path id="DejaVuSans-70" d="M 1159 525 
L 1159 -1331 
L 581 -1331 
L 581 3500 
L 1159 3500 
L 1159 2969 
Q 1341 3281 1617 3432 
Q 1894 3584 2278 3584 
Q 2916 3584 3314 3078 
Q 3713 2572 3713 1747 
Q 3713 922 3314 415 
Q 2916 -91 2278 -91 
Q 1894 -91 1617 61 
Q 1341 213 1159 525 
z
M 3116 1747 
Q 3116 2381 2855 2742 
Q 2594 3103 2138 3103 
Q 1681 3103 1420 2742 
Q 1159 2381 1159 1747 
Q 1159 1113 1420 752 
Q 1681 391 2138 391 
Q 2594 391 2855 752 
Q 3116 1113 3116 1747 
z
" transform="scale(0.015625)"/>
      <path id="DejaVuSans-23" d="M 3272 2816 
L 2363 2816 
L 2100 1772 
L 3016 1772 
L 3272 2816 
z
M 2803 4594 
L 2478 3297 
L 3391 3297 
L 3719 4594 
L 4219 4594 
L 3897 3297 
L 4872 3297 
L 4872 2816 
L 3775 2816 
L 3519 1772 
L 4513 1772 
L 4513 1294 
L 3397 1294 
L 3072 0 
L 2572 0 
L 2894 1294 
L 1978 1294 
L 1656 0 
L 1153 0 
L 1478 1294 
L 494 1294 
L 494 1772 
L 1594 1772 
L 1856 2816 
L 850 2816 
L 850 3297 
L 1978 3297 
L 2297 4594 
L 2803 4594 
z
" transform="scale(0.015625)"/>
     </defs>
     <use xlink:href="#DejaVuSans-50"/>
     <use xlink:href="#DejaVuSans-6c" x="60.302734"/>
     <use xlink:href="#DejaVuSans-6f" x="88.085938"/>
     <use xlink:href="#DejaVuSans-74" x="149.267578"/>
     <use xlink:href="#DejaVuSans-20" x="188.476562"/>
     <use xlink:href="#DejaVuSans-73" x="220.263672"/>
     <use xlink:href="#DejaVuSans-68" x="272.363281"/>
     <use xlink:href="#DejaVuSans-6f" x="335.742188"/>
     <use xlink:href="#DejaVuSans-77" x="396.923828"/>
     <use xlink:href="#DejaVuSans-69" x="478.710938"/>
     <use xlink:href="#DejaVuSans-6e" x="506.494141"/>
     <use xlink:href="#DejaVuSans-67" x="569.873047"/>
     <use xlink:href="#DejaVuSans-20" x="633.349609"/>
     <use xlink:href="#DejaVuSans-64" x="665.136719"/>
     <use xlink:href="#DejaVuSans-69" x="728.613281"/>
     <use xlink:href="#DejaVuSans-73" x="756.396484"/>
     <use xlink:href="#DejaVuSans-74" x="808.496094"/>
     <use xlink:href="#DejaVuSans-72" x="847.705078"/>
     <use xlink:href="#DejaVuSans-69" x="888.818359"/>
     <use xlink:href="#DejaVuSans-62" x="916.601562"/>
     <use xlink:href="#DejaVuSans-75" x="980.078125"/>
     <use xlink:href="#DejaVuSans-74" x="1043.457031"/>
     <use xlink:href="#DejaVuSans-69" x="1082.666016"/>
     <use xlink:href="#DejaVuSans-6f" x="1110.449219"/>
     <use xlink:href="#DejaVuSans-6e" x="1171.630859"/>
     <use xlink:href="#DejaVuSans-20" x="1235.009766"/>
     <use xlink:href="#DejaVuSans-6f" x="1266.796875"/>
     <use xlink:href="#DejaVuSans-66" x="1327.978516"/>
     <use xlink:href="#DejaVuSans-20" x="1363.183594"/>
     <use xlink:href="#DejaVuSans-6d" x="1394.970703"/>
     <use xlink:href="#DejaVuSans-61" x="1492.382812"/>
     <use xlink:href="#DejaVuSans-78" x="1553.662109"/>
     <use xlink:href="#DejaVuSans-69" x="1612.841797"/>
     <use xlink:href="#DejaVuSans-6d" x="1640.625"/>
     <use xlink:href="#DejaVuSans-61" x="1738.037109"/>
     <use xlink:href="#DejaVuSans-6c" x="1799.316406"/>
     <use xlink:href="#DejaVuSans-20" x="1827.099609"/>
     <use xlink:href="#DejaVuSans-66" x="1858.886719"/>
     <use xlink:href="#DejaVuSans-69" x="1894.091797"/>
     <use xlink:href="#DejaVuSans-74" x="1921.875"/>
     <use xlink:href="#DejaVuSans-6e" x="1961.083984"/>
     <use xlink:href="#DejaVuSans-65" x="2024.462891"/>
     <use xlink:href="#DejaVuSans-73" x="2085.986328"/>
     <use xlink:href="#DejaVuSans-73" x="2138.085938"/>
     <use xlink:href="#DejaVuSans-20" x="2190.185547"/>
     <use xlink:href="#DejaVuSans-76" x="2221.972656"/>
     <use xlink:href="#DejaVuSans-61" x="2281.152344"/>
     <use xlink:href="#DejaVuSans-6c" x="2342.431641"/>
     <use xlink:href="#DejaVuSans-75" x="2370.214844"/>
     <use xlink:href="#DejaVuSans-65" x="2433.59375"/>
     <use xlink:href="#DejaVuSans-73" x="2495.117188"/>
     <use xlink:href="#DejaVuSans-20" x="2547.216797"/>
     <use xlink:href="#DejaVuSans-69" x="2579.003906"/>
     <use xlink:href="#DejaVuSans-6e" x="2606.787109"/>
     <use xlink:href="#DejaVuSans-20" x="2670.166016"/>
     <use xlink:href="#DejaVuSans-73" x="2701.953125"/>
     <use xlink:href="#DejaVuSans-75" x="2754.052734"/>
     <use xlink:href="#DejaVuSans-62" x="2817.431641"/>
     <use xlink:href="#DejaVuSans-73" x="2880.908203"/>
     <use xlink:href="#DejaVuSans-65" x="2933.007812"/>
     <use xlink:href="#DejaVuSans-71" x="2994.53125"/>
     <use xlink:href="#DejaVuSans-75" x="3058.007812"/>
     <use xlink:href="#DejaVuSans-65" x="3121.386719"/>
     <use xlink:href="#DejaVuSans-6e" x="3182.910156"/>
     <use xlink:href="#DejaVuSans-74" x="3246.289062"/>
     <use xlink:href="#DejaVuSans-20" x="3285.498047"/>
     <use xlink:href="#DejaVuSans-70" x="3317.285156"/>
     <use xlink:href="#DejaVuSans-6f" x="3380.761719"/>
     <use xlink:href="#DejaVuSans-70" x="3441.943359"/>
     <use xlink:href="#DejaVuSans-75" x="3505.419922"/>
     <use xlink:href="#DejaVuSans-6c" x="3568.798828"/>
     <use xlink:href="#DejaVuSans-61" x="3596.582031"/>
     <use xlink:href="#DejaVuSans-74" x="3657.861328"/>
     <use xlink:href="#DejaVuSans-69" x="3697.070312"/>
     <use xlink:href="#DejaVuSans-6f" x="3724.853516"/>
     <use xlink:href="#DejaVuSans-6e" x="3786.035156"/>
     <use xlink:href="#DejaVuSans-73" x="3849.414062"/>
     <use xlink:href="#DejaVuSans-20" x="3901.513672"/>
     <use xlink:href="#DejaVuSans-23" x="3933.300781"/>
     <use xlink:href="#DejaVuSans-31" x="4017.089844"/>
    </g>
   </g>
  </g>
 </g>
 <defs>
  <clipPath id="p087419a593">
   <rect x="10.7" y="22.318125" width="1004.4" height="978.48"/>
  </clipPath>
 </defs>
</svg>
