<?xml version="1.0" encoding="utf-8" standalone="no"?>
<!DOCTYPE svg PUBLIC "-//W3C//DTD SVG 1.1//EN"
  "http://www.w3.org/Graphics/SVG/1.1/DTD/svg11.dtd">
<svg xmlns:xlink="http://www.w3.org/1999/xlink" width="1050.082813pt" height="1024.67625pt" viewBox="0 0 1050.082813 1024.67625" xmlns="http://www.w3.org/2000/svg" version="1.1">
 <metadata>
  <rdf:RDF xmlns:dc="http://purl.org/dc/elements/1.1/" xmlns:cc="http://creativecommons.org/ns#" xmlns:rdf="http://www.w3.org/1999/02/22-rdf-syntax-ns#">
   <cc:Work>
    <dc:type rdf:resource="http://purl.org/dc/dcmitype/StillImage"/>
    <dc:date>2022-02-07T14:43:25.227283</dc:date>
    <dc:format>image/svg+xml</dc:format>
    <dc:creator>
     <cc:Agent>
      <dc:title>Matplotlib v3.5.0, https://matplotlib.org/</dc:title>
     </cc:Agent>
    </dc:creator>
   </cc:Work>
  </rdf:RDF>
 </metadata>
 <defs>
  <style type="text/css">*{stroke-linejoin: round; stroke-linecap: butt}</style>
 </defs>
 <g id="figure_1">
  <g id="patch_1">
   <path d="M -0 1024.67625 
L 1050.082813 1024.67625 
L 1050.082813 0 
L -0 0 
L -0 1024.67625 
z
" style="fill: none"/>
  </g>
  <g id="axes_1">
   <g id="patch_2">
    <path d="M 38.482813 1000.798125 
L 1042.882812 1000.798125 
L 1042.882812 22.318125 
L 38.482813 22.318125 
z
" style="fill: #ffffff"/>
   </g>
   <g id="matplotlib.axis_1">
    <g id="xtick_1">
     <g id="line2d_1">
      <defs>
       <path id="mb8f81fcd89" d="M 0 0 
L 0 3.5 
" style="stroke: #000000; stroke-width: 0.8"/>
      </defs>
      <g>
       <use xlink:href="#mb8f81fcd89" x="83.832893" y="1000.798125" style="stroke: #000000; stroke-width: 0.8"/>
      </g>
     </g>
     <g id="text_1">
      <!-- 0 -->
      <g transform="translate(80.651643 1015.396562)scale(0.1 -0.1)">
       <defs>
        <path id="DejaVuSans-30" d="M 2034 4250 
Q 1547 4250 1301 3770 
Q 1056 3291 1056 2328 
Q 1056 1369 1301 889 
Q 1547 409 2034 409 
Q 2525 409 2770 889 
Q 3016 1369 3016 2328 
Q 3016 3291 2770 3770 
Q 2525 4250 2034 4250 
z
M 2034 4750 
Q 2819 4750 3233 4129 
Q 3647 3509 3647 2328 
Q 3647 1150 3233 529 
Q 2819 -91 2034 -91 
Q 1250 -91 836 529 
Q 422 1150 422 2328 
Q 422 3509 836 4129 
Q 1250 4750 2034 4750 
z
" transform="scale(0.015625)"/>
       </defs>
       <use xlink:href="#DejaVuSans-30"/>
      </g>
     </g>
    </g>
    <g id="xtick_2">
     <g id="line2d_2">
      <g>
       <use xlink:href="#mb8f81fcd89" x="236.065455" y="1000.798125" style="stroke: #000000; stroke-width: 0.8"/>
      </g>
     </g>
     <g id="text_2">
      <!-- 500 -->
      <g transform="translate(226.521705 1015.396562)scale(0.1 -0.1)">
       <defs>
        <path id="DejaVuSans-35" d="M 691 4666 
L 3169 4666 
L 3169 4134 
L 1269 4134 
L 1269 2991 
Q 1406 3038 1543 3061 
Q 1681 3084 1819 3084 
Q 2600 3084 3056 2656 
Q 3513 2228 3513 1497 
Q 3513 744 3044 326 
Q 2575 -91 1722 -91 
Q 1428 -91 1123 -41 
Q 819 9 494 109 
L 494 744 
Q 775 591 1075 516 
Q 1375 441 1709 441 
Q 2250 441 2565 725 
Q 2881 1009 2881 1497 
Q 2881 1984 2565 2268 
Q 2250 2553 1709 2553 
Q 1456 2553 1204 2497 
Q 953 2441 691 2322 
L 691 4666 
z
" transform="scale(0.015625)"/>
       </defs>
       <use xlink:href="#DejaVuSans-35"/>
       <use xlink:href="#DejaVuSans-30" x="63.623047"/>
       <use xlink:href="#DejaVuSans-30" x="127.246094"/>
      </g>
     </g>
    </g>
    <g id="xtick_3">
     <g id="line2d_3">
      <g>
       <use xlink:href="#mb8f81fcd89" x="388.298018" y="1000.798125" style="stroke: #000000; stroke-width: 0.8"/>
      </g>
     </g>
     <g id="text_3">
      <!-- 1000 -->
      <g transform="translate(375.573018 1015.396562)scale(0.1 -0.1)">
       <defs>
        <path id="DejaVuSans-31" d="M 794 531 
L 1825 531 
L 1825 4091 
L 703 3866 
L 703 4441 
L 1819 4666 
L 2450 4666 
L 2450 531 
L 3481 531 
L 3481 0 
L 794 0 
L 794 531 
z
" transform="scale(0.015625)"/>
       </defs>
       <use xlink:href="#DejaVuSans-31"/>
       <use xlink:href="#DejaVuSans-30" x="63.623047"/>
       <use xlink:href="#DejaVuSans-30" x="127.246094"/>
       <use xlink:href="#DejaVuSans-30" x="190.869141"/>
      </g>
     </g>
    </g>
    <g id="xtick_4">
     <g id="line2d_4">
      <g>
       <use xlink:href="#mb8f81fcd89" x="540.53058" y="1000.798125" style="stroke: #000000; stroke-width: 0.8"/>
      </g>
     </g>
     <g id="text_4">
      <!-- 1500 -->
      <g transform="translate(527.80558 1015.396562)scale(0.1 -0.1)">
       <use xlink:href="#DejaVuSans-31"/>
       <use xlink:href="#DejaVuSans-35" x="63.623047"/>
       <use xlink:href="#DejaVuSans-30" x="127.246094"/>
       <use xlink:href="#DejaVuSans-30" x="190.869141"/>
      </g>
     </g>
    </g>
    <g id="xtick_5">
     <g id="line2d_5">
      <g>
       <use xlink:href="#mb8f81fcd89" x="692.763142" y="1000.798125" style="stroke: #000000; stroke-width: 0.8"/>
      </g>
     </g>
     <g id="text_5">
      <!-- 2000 -->
      <g transform="translate(680.038142 1015.396562)scale(0.1 -0.1)">
       <defs>
        <path id="DejaVuSans-32" d="M 1228 531 
L 3431 531 
L 3431 0 
L 469 0 
L 469 531 
Q 828 903 1448 1529 
Q 2069 2156 2228 2338 
Q 2531 2678 2651 2914 
Q 2772 3150 2772 3378 
Q 2772 3750 2511 3984 
Q 2250 4219 1831 4219 
Q 1534 4219 1204 4116 
Q 875 4013 500 3803 
L 500 4441 
Q 881 4594 1212 4672 
Q 1544 4750 1819 4750 
Q 2544 4750 2975 4387 
Q 3406 4025 3406 3419 
Q 3406 3131 3298 2873 
Q 3191 2616 2906 2266 
Q 2828 2175 2409 1742 
Q 1991 1309 1228 531 
z
" transform="scale(0.015625)"/>
       </defs>
       <use xlink:href="#DejaVuSans-32"/>
       <use xlink:href="#DejaVuSans-30" x="63.623047"/>
       <use xlink:href="#DejaVuSans-30" x="127.246094"/>
       <use xlink:href="#DejaVuSans-30" x="190.869141"/>
      </g>
     </g>
    </g>
    <g id="xtick_6">
     <g id="line2d_6">
      <g>
       <use xlink:href="#mb8f81fcd89" x="844.995705" y="1000.798125" style="stroke: #000000; stroke-width: 0.8"/>
      </g>
     </g>
     <g id="text_6">
      <!-- 2500 -->
      <g transform="translate(832.270705 1015.396562)scale(0.1 -0.1)">
       <use xlink:href="#DejaVuSans-32"/>
       <use xlink:href="#DejaVuSans-35" x="63.623047"/>
       <use xlink:href="#DejaVuSans-30" x="127.246094"/>
       <use xlink:href="#DejaVuSans-30" x="190.869141"/>
      </g>
     </g>
    </g>
    <g id="xtick_7">
     <g id="line2d_7">
      <g>
       <use xlink:href="#mb8f81fcd89" x="997.228267" y="1000.798125" style="stroke: #000000; stroke-width: 0.8"/>
      </g>
     </g>
     <g id="text_7">
      <!-- 3000 -->
      <g transform="translate(984.503267 1015.396562)scale(0.1 -0.1)">
       <defs>
        <path id="DejaVuSans-33" d="M 2597 2516 
Q 3050 2419 3304 2112 
Q 3559 1806 3559 1356 
Q 3559 666 3084 287 
Q 2609 -91 1734 -91 
Q 1441 -91 1130 -33 
Q 819 25 488 141 
L 488 750 
Q 750 597 1062 519 
Q 1375 441 1716 441 
Q 2309 441 2620 675 
Q 2931 909 2931 1356 
Q 2931 1769 2642 2001 
Q 2353 2234 1838 2234 
L 1294 2234 
L 1294 2753 
L 1863 2753 
Q 2328 2753 2575 2939 
Q 2822 3125 2822 3475 
Q 2822 3834 2567 4026 
Q 2313 4219 1838 4219 
Q 1578 4219 1281 4162 
Q 984 4106 628 3988 
L 628 4550 
Q 988 4650 1302 4700 
Q 1616 4750 1894 4750 
Q 2613 4750 3031 4423 
Q 3450 4097 3450 3541 
Q 3450 3153 3228 2886 
Q 3006 2619 2597 2516 
z
" transform="scale(0.015625)"/>
       </defs>
       <use xlink:href="#DejaVuSans-33"/>
       <use xlink:href="#DejaVuSans-30" x="63.623047"/>
       <use xlink:href="#DejaVuSans-30" x="127.246094"/>
       <use xlink:href="#DejaVuSans-30" x="190.869141"/>
      </g>
     </g>
    </g>
   </g>
   <g id="matplotlib.axis_2">
    <g id="ytick_1">
     <g id="line2d_8">
      <defs>
       <path id="m0a26fc1799" d="M 0 0 
L -3.5 0 
" style="stroke: #000000; stroke-width: 0.8"/>
      </defs>
      <g>
       <use xlink:href="#m0a26fc1799" x="38.482813" y="956.321761" style="stroke: #000000; stroke-width: 0.8"/>
      </g>
     </g>
     <g id="text_8">
      <!-- −0.2 -->
      <g transform="translate(7.2 960.12098)scale(0.1 -0.1)">
       <defs>
        <path id="DejaVuSans-2212" d="M 678 2272 
L 4684 2272 
L 4684 1741 
L 678 1741 
L 678 2272 
z
" transform="scale(0.015625)"/>
        <path id="DejaVuSans-2e" d="M 684 794 
L 1344 794 
L 1344 0 
L 684 0 
L 684 794 
z
" transform="scale(0.015625)"/>
       </defs>
       <use xlink:href="#DejaVuSans-2212"/>
       <use xlink:href="#DejaVuSans-30" x="83.789062"/>
       <use xlink:href="#DejaVuSans-2e" x="147.412109"/>
       <use xlink:href="#DejaVuSans-32" x="179.199219"/>
      </g>
     </g>
    </g>
    <g id="ytick_2">
     <g id="line2d_9">
      <g>
       <use xlink:href="#m0a26fc1799" x="38.482813" y="847.457663" style="stroke: #000000; stroke-width: 0.8"/>
      </g>
     </g>
     <g id="text_9">
      <!-- 0.0 -->
      <g transform="translate(15.579688 851.256882)scale(0.1 -0.1)">
       <use xlink:href="#DejaVuSans-30"/>
       <use xlink:href="#DejaVuSans-2e" x="63.623047"/>
       <use xlink:href="#DejaVuSans-30" x="95.410156"/>
      </g>
     </g>
    </g>
    <g id="ytick_3">
     <g id="line2d_10">
      <g>
       <use xlink:href="#m0a26fc1799" x="38.482813" y="738.593565" style="stroke: #000000; stroke-width: 0.8"/>
      </g>
     </g>
     <g id="text_10">
      <!-- 0.2 -->
      <g transform="translate(15.579688 742.392784)scale(0.1 -0.1)">
       <use xlink:href="#DejaVuSans-30"/>
       <use xlink:href="#DejaVuSans-2e" x="63.623047"/>
       <use xlink:href="#DejaVuSans-32" x="95.410156"/>
      </g>
     </g>
    </g>
    <g id="ytick_4">
     <g id="line2d_11">
      <g>
       <use xlink:href="#m0a26fc1799" x="38.482813" y="629.729467" style="stroke: #000000; stroke-width: 0.8"/>
      </g>
     </g>
     <g id="text_11">
      <!-- 0.4 -->
      <g transform="translate(15.579688 633.528686)scale(0.1 -0.1)">
       <defs>
        <path id="DejaVuSans-34" d="M 2419 4116 
L 825 1625 
L 2419 1625 
L 2419 4116 
z
M 2253 4666 
L 3047 4666 
L 3047 1625 
L 3713 1625 
L 3713 1100 
L 3047 1100 
L 3047 0 
L 2419 0 
L 2419 1100 
L 313 1100 
L 313 1709 
L 2253 4666 
z
" transform="scale(0.015625)"/>
       </defs>
       <use xlink:href="#DejaVuSans-30"/>
       <use xlink:href="#DejaVuSans-2e" x="63.623047"/>
       <use xlink:href="#DejaVuSans-34" x="95.410156"/>
      </g>
     </g>
    </g>
    <g id="ytick_5">
     <g id="line2d_12">
      <g>
       <use xlink:href="#m0a26fc1799" x="38.482813" y="520.865369" style="stroke: #000000; stroke-width: 0.8"/>
      </g>
     </g>
     <g id="text_12">
      <!-- 0.6 -->
      <g transform="translate(15.579688 524.664588)scale(0.1 -0.1)">
       <defs>
        <path id="DejaVuSans-36" d="M 2113 2584 
Q 1688 2584 1439 2293 
Q 1191 2003 1191 1497 
Q 1191 994 1439 701 
Q 1688 409 2113 409 
Q 2538 409 2786 701 
Q 3034 994 3034 1497 
Q 3034 2003 2786 2293 
Q 2538 2584 2113 2584 
z
M 3366 4563 
L 3366 3988 
Q 3128 4100 2886 4159 
Q 2644 4219 2406 4219 
Q 1781 4219 1451 3797 
Q 1122 3375 1075 2522 
Q 1259 2794 1537 2939 
Q 1816 3084 2150 3084 
Q 2853 3084 3261 2657 
Q 3669 2231 3669 1497 
Q 3669 778 3244 343 
Q 2819 -91 2113 -91 
Q 1303 -91 875 529 
Q 447 1150 447 2328 
Q 447 3434 972 4092 
Q 1497 4750 2381 4750 
Q 2619 4750 2861 4703 
Q 3103 4656 3366 4563 
z
" transform="scale(0.015625)"/>
       </defs>
       <use xlink:href="#DejaVuSans-30"/>
       <use xlink:href="#DejaVuSans-2e" x="63.623047"/>
       <use xlink:href="#DejaVuSans-36" x="95.410156"/>
      </g>
     </g>
    </g>
    <g id="ytick_6">
     <g id="line2d_13">
      <g>
       <use xlink:href="#m0a26fc1799" x="38.482813" y="412.001271" style="stroke: #000000; stroke-width: 0.8"/>
      </g>
     </g>
     <g id="text_13">
      <!-- 0.8 -->
      <g transform="translate(15.579688 415.80049)scale(0.1 -0.1)">
       <defs>
        <path id="DejaVuSans-38" d="M 2034 2216 
Q 1584 2216 1326 1975 
Q 1069 1734 1069 1313 
Q 1069 891 1326 650 
Q 1584 409 2034 409 
Q 2484 409 2743 651 
Q 3003 894 3003 1313 
Q 3003 1734 2745 1975 
Q 2488 2216 2034 2216 
z
M 1403 2484 
Q 997 2584 770 2862 
Q 544 3141 544 3541 
Q 544 4100 942 4425 
Q 1341 4750 2034 4750 
Q 2731 4750 3128 4425 
Q 3525 4100 3525 3541 
Q 3525 3141 3298 2862 
Q 3072 2584 2669 2484 
Q 3125 2378 3379 2068 
Q 3634 1759 3634 1313 
Q 3634 634 3220 271 
Q 2806 -91 2034 -91 
Q 1263 -91 848 271 
Q 434 634 434 1313 
Q 434 1759 690 2068 
Q 947 2378 1403 2484 
z
M 1172 3481 
Q 1172 3119 1398 2916 
Q 1625 2713 2034 2713 
Q 2441 2713 2670 2916 
Q 2900 3119 2900 3481 
Q 2900 3844 2670 4047 
Q 2441 4250 2034 4250 
Q 1625 4250 1398 4047 
Q 1172 3844 1172 3481 
z
" transform="scale(0.015625)"/>
       </defs>
       <use xlink:href="#DejaVuSans-30"/>
       <use xlink:href="#DejaVuSans-2e" x="63.623047"/>
       <use xlink:href="#DejaVuSans-38" x="95.410156"/>
      </g>
     </g>
    </g>
    <g id="ytick_7">
     <g id="line2d_14">
      <g>
       <use xlink:href="#m0a26fc1799" x="38.482813" y="303.137173" style="stroke: #000000; stroke-width: 0.8"/>
      </g>
     </g>
     <g id="text_14">
      <!-- 1.0 -->
      <g transform="translate(15.579688 306.936392)scale(0.1 -0.1)">
       <use xlink:href="#DejaVuSans-31"/>
       <use xlink:href="#DejaVuSans-2e" x="63.623047"/>
       <use xlink:href="#DejaVuSans-30" x="95.410156"/>
      </g>
     </g>
    </g>
    <g id="ytick_8">
     <g id="line2d_15">
      <g>
       <use xlink:href="#m0a26fc1799" x="38.482813" y="194.273076" style="stroke: #000000; stroke-width: 0.8"/>
      </g>
     </g>
     <g id="text_15">
      <!-- 1.2 -->
      <g transform="translate(15.579688 198.072294)scale(0.1 -0.1)">
       <use xlink:href="#DejaVuSans-31"/>
       <use xlink:href="#DejaVuSans-2e" x="63.623047"/>
       <use xlink:href="#DejaVuSans-32" x="95.410156"/>
      </g>
     </g>
    </g>
    <g id="ytick_9">
     <g id="line2d_16">
      <g>
       <use xlink:href="#m0a26fc1799" x="38.482813" y="85.408978" style="stroke: #000000; stroke-width: 0.8"/>
      </g>
     </g>
     <g id="text_16">
      <!-- 1.4 -->
      <g transform="translate(15.579688 89.208196)scale(0.1 -0.1)">
       <use xlink:href="#DejaVuSans-31"/>
       <use xlink:href="#DejaVuSans-2e" x="63.623047"/>
       <use xlink:href="#DejaVuSans-34" x="95.410156"/>
      </g>
     </g>
    </g>
   </g>
   <g id="line2d_17">
    <path d="M 84.137358 627.784831 
L 86.877544 526.176845 
L 105.145452 526.176845 
L 108.190103 498.725507 
L 126.45801 498.725507 
L 129.502662 470.015042 
L 202.574291 470.015042 
L 205.618943 468.025111 
L 281.735224 468.025111 
L 284.779875 466.137651 
L 296.95848 466.137651 
L 300.003131 464.283454 
L 360.896156 464.283454 
L 363.940808 430.596213 
L 458.324996 430.594397 
L 461.369648 426.102058 
L 567.932441 426.074525 
L 570.977092 374.818832 
L 589.245 374.818832 
L 592.289651 373.324421 
L 598.378954 373.324421 
L 601.423605 372.322676 
L 631.870117 372.322676 
L 634.914769 371.637 
L 637.95942 371.637 
L 641.004071 370.121403 
L 674.495235 370.121403 
L 677.539886 354.444271 
L 707.986399 354.444271 
L 711.03105 353.923702 
L 790.191982 353.923702 
L 793.236633 315.70419 
L 838.906402 315.703539 
L 841.951053 288.266476 
L 933.290591 288.263941 
L 936.335242 288.073893 
L 966.781755 288.073305 
L 969.826406 287.940296 
L 997.228267 287.847643 
L 997.228267 287.847643 
" clip-path="url(#p462d0cea75)" style="fill: none; stroke: #0000ff; stroke-width: 1.5; stroke-linecap: square"/>
   </g>
   <g id="line2d_18">
    <path d="M 84.137358 526.205327 
L 86.877544 526.205327 
L 89.922195 514.338451 
L 135.591964 514.338451 
L 138.636615 514.184095 
L 141.681267 514.184095 
L 144.725918 485.586099 
L 150.81522 485.586099 
L 153.859872 451.728025 
L 184.306384 451.726482 
L 187.351035 450.65912 
L 190.395686 450.65912 
L 193.440338 449.900935 
L 242.154758 449.864289 
L 245.199409 416.203856 
L 254.333363 416.203856 
L 257.378014 407.064808 
L 382.208715 407.002795 
L 385.253366 357.766317 
L 394.38732 357.766317 
L 397.431971 357.198511 
L 525.307324 357.104923 
L 528.351975 322.560182 
L 555.753836 322.546554 
L 574.021744 322.545969 
L 577.066395 298.318241 
L 644.048722 298.316795 
L 647.093374 280.972047 
L 720.165004 280.832897 
L 735.38826 280.827023 
L 738.432911 246.366352 
L 765.834772 246.354839 
L 771.924075 246.227781 
L 851.085007 246.141898 
L 854.129658 245.083322 
L 872.397566 245.082888 
L 875.442217 244.860948 
L 905.88873 244.828379 
L 908.933381 233.157777 
L 939.379893 233.074184 
L 951.558498 233.045885 
L 997.228267 233.045659 
L 997.228267 233.045659 
" clip-path="url(#p462d0cea75)" style="fill: none; stroke: #0000ff; stroke-width: 1.5; stroke-linecap: square"/>
   </g>
   <g id="line2d_19">
    <path d="M 84.137358 527.333153 
L 86.877544 521.272685 
L 99.056149 521.272685 
L 102.1008 493.44553 
L 156.904523 493.44553 
L 159.949174 461.487879 
L 184.306384 461.487879 
L 187.351035 438.929938 
L 211.708245 438.929938 
L 214.752896 398.522423 
L 260.422665 398.522423 
L 263.467316 397.356399 
L 324.360341 397.356399 
L 327.404993 380.801651 
L 403.521274 380.732101 
L 406.565925 380.269122 
L 430.923135 380.265272 
L 433.967786 377.595689 
L 437.012438 375.842918 
L 491.81616 375.734745 
L 494.860811 340.393321 
L 522.262672 340.388684 
L 525.307324 315.783499 
L 558.798487 315.71914 
L 561.843139 315.583415 
L 577.066395 315.640377 
L 580.111046 315.720584 
L 583.155697 315.465756 
L 595.334302 315.465756 
L 598.378954 315.702967 
L 647.093374 315.715167 
L 650.138025 299.654034 
L 653.182676 239.796157 
L 668.405932 239.78312 
L 671.450584 239.260956 
L 726.254306 239.164317 
L 729.298957 237.12239 
L 799.325936 237.053227 
L 802.370587 236.895628 
L 869.352915 236.855867 
L 872.397566 236.447532 
L 881.53152 236.418347 
L 884.576171 236.161739 
L 960.692452 236.0982 
L 963.737103 235.897771 
L 997.228267 235.891227 
L 997.228267 235.891227 
" clip-path="url(#p462d0cea75)" style="fill: none; stroke: #0000ff; stroke-width: 1.5; stroke-linecap: square"/>
   </g>
   <g id="line2d_20">
    <path d="M 84.137358 659.533766 
L 86.877544 526.205327 
L 89.922195 526.205327 
L 92.966847 525.868253 
L 111.234754 525.868253 
L 114.279405 524.426696 
L 162.993825 524.426696 
L 166.038477 498.624206 
L 187.351035 498.624206 
L 190.395686 498.001875 
L 208.663594 498.001875 
L 211.708245 470.216603 
L 226.931501 470.216603 
L 229.976153 463.369519 
L 306.092434 463.369519 
L 309.137085 453.695319 
L 370.03011 453.695319 
L 373.074761 451.446313 
L 388.298018 451.446313 
L 391.342669 449.374434 
L 415.699879 449.374434 
L 418.74453 447.576239 
L 440.057089 447.576239 
L 443.10174 436.057369 
L 446.146391 436.057369 
L 449.191043 424.500926 
L 476.592904 424.500926 
L 479.637555 423.815273 
L 507.039416 423.815273 
L 510.084067 423.655191 
L 525.307324 423.655191 
L 528.351975 364.177001 
L 607.512907 364.177001 
L 610.557559 364.020385 
L 613.60221 316.07265 
L 674.495235 316.07265 
L 677.539886 315.711951 
L 726.254306 315.711951 
L 729.298957 315.218045 
L 732.343609 315.218045 
L 735.38826 299.284875 
L 741.477562 299.284875 
L 744.522214 299.160885 
L 762.790121 299.160802 
L 765.834772 237.734541 
L 826.727797 237.734541 
L 829.772448 226.268605 
L 863.263612 226.268605 
L 866.308263 225.967691 
L 878.486868 225.967691 
L 881.53152 224.320488 
L 927.201288 224.320488 
L 930.24594 212.254699 
L 954.60315 212.254699 
L 957.647801 178.801436 
L 997.228267 178.801436 
L 997.228267 178.801436 
" clip-path="url(#p462d0cea75)" style="fill: none; stroke: #0000ff; stroke-width: 1.5; stroke-linecap: square"/>
   </g>
   <g id="line2d_21">
    <path d="M 84.137358 956.321761 
L 86.877544 856.529672 
L 89.922195 856.527981 
L 92.966847 797.608292 
L 105.145452 797.608292 
L 108.190103 778.678547 
L 111.234754 761.885237 
L 114.279405 749.905077 
L 117.324057 744.837952 
L 120.368708 744.837442 
L 123.413359 715.032075 
L 126.45801 700.63122 
L 129.502662 700.63122 
L 132.547313 698.09171 
L 135.591964 675.050338 
L 144.725918 674.94281 
L 147.770569 624.308957 
L 181.261733 624.308957 
L 184.306384 603.639447 
L 306.092434 603.597691 
L 309.137085 592.956602 
L 321.31569 592.913445 
L 324.360341 530.261575 
L 376.119413 530.173736 
L 379.164064 525.203103 
L 382.208715 525.203103 
L 385.253366 525.006404 
L 394.38732 525.006404 
L 397.431971 525.122388 
L 409.610576 525.122388 
L 412.655228 512.016508 
L 421.789181 512.045011 
L 433.967786 512.012023 
L 537.485929 511.906261 
L 552.709185 511.810125 
L 589.245 511.749578 
L 592.289651 511.583937 
L 595.334302 511.708294 
L 613.60221 511.631087 
L 619.691512 511.631087 
L 625.780815 511.621661 
L 628.825466 511.478742 
L 631.870117 511.615609 
L 637.95942 511.615609 
L 677.539886 511.547163 
L 686.67384 511.583982 
L 698.852445 511.573415 
L 701.897096 509.45632 
L 704.941747 508.949864 
L 707.986399 509.064878 
L 711.03105 508.21191 
L 714.075701 508.21191 
L 717.120352 508.096999 
L 729.298957 508.096999 
L 732.343609 500.370054 
L 735.38826 500.411231 
L 744.522214 500.150827 
L 747.566865 499.866863 
L 750.611516 499.866863 
L 753.656167 499.411796 
L 756.700819 499.866863 
L 759.74547 499.597003 
L 762.790121 499.597003 
L 765.834772 494.284153 
L 768.879423 494.284153 
L 774.968726 493.942034 
L 778.013377 493.621598 
L 814.549192 493.725708 
L 817.593843 493.764982 
L 820.638495 493.039111 
L 823.683146 480.792898 
L 851.085007 480.733027 
L 854.129658 480.6369 
L 863.263612 480.674722 
L 893.710125 480.636645 
L 896.754776 456.588162 
L 899.799427 456.588162 
L 902.844078 435.557126 
L 915.022683 435.630694 
L 918.067335 435.104537 
L 921.111986 435.23088 
L 966.781755 435.23088 
L 969.826406 435.094148 
L 982.005011 435.094148 
L 985.049662 434.898729 
L 997.228267 434.921101 
L 997.228267 434.921101 
" clip-path="url(#p462d0cea75)" style="fill: none; stroke: #0000ff; stroke-width: 1.5; stroke-linecap: square"/>
   </g>
   <g id="line2d_22">
    <path d="M 84.137358 627.784831 
L 86.877544 627.784831 
L 89.922195 526.205327 
L 92.966847 526.205327 
L 96.011498 525.728716 
L 102.1008 525.728716 
L 105.145452 501.261893 
L 111.234754 501.261893 
L 114.279405 458.091896 
L 129.502662 458.091896 
L 132.547313 443.16832 
L 144.725918 443.16832 
L 147.770569 442.887007 
L 150.81522 442.014165 
L 153.859872 442.014165 
L 156.904523 442.355527 
L 172.127779 442.37403 
L 175.17243 441.059446 
L 184.306384 441.081391 
L 187.351035 439.975291 
L 202.574291 439.943454 
L 205.618943 439.675622 
L 208.663594 437.14266 
L 217.797548 437.08212 
L 220.842199 428.352768 
L 223.88685 428.330685 
L 226.931501 397.276905 
L 239.110106 397.234547 
L 242.154758 396.035948 
L 245.199409 396.035948 
L 248.24406 392.072238 
L 251.288711 391.820405 
L 257.378014 391.801708 
L 260.422665 391.128174 
L 266.511968 391.128174 
L 269.556619 350.130681 
L 290.869178 350.099529 
L 293.913829 336.443829 
L 303.047783 336.441461 
L 306.092434 333.423368 
L 339.583598 333.347017 
L 342.628249 258.89256 
L 363.940808 258.841939 
L 366.985459 223.982922 
L 370.03011 223.867835 
L 373.074761 194.855324 
L 388.298018 194.855324 
L 391.342669 193.535806 
L 400.476623 193.455361 
L 406.565925 193.373101 
L 412.655228 193.373101 
L 415.699879 175.292499 
L 437.012438 175.292499 
L 440.057089 174.218683 
L 458.324996 174.218683 
L 461.369648 140.749937 
L 549.664534 140.749937 
L 552.709185 129.61889 
L 555.753836 129.61889 
L 558.798487 124.441646 
L 577.066395 124.441646 
L 580.111046 123.236754 
L 610.557559 123.236691 
L 613.60221 85.204365 
L 756.700819 85.195974 
L 759.74547 78.316229 
L 805.415238 78.311787 
L 808.45989 73.085309 
L 851.085007 73.078321 
L 854.129658 69.843692 
L 921.111986 69.843487 
L 924.156637 68.789977 
L 927.201288 68.789977 
L 930.24594 66.799776 
L 997.228267 66.794489 
L 997.228267 66.794489 
" clip-path="url(#p462d0cea75)" style="fill: none; stroke: #0000ff; stroke-width: 1.5; stroke-linecap: square"/>
   </g>
   <g id="line2d_23">
    <path d="M 84.137358 526.205327 
L 96.011498 526.205327 
L 99.056149 499.886437 
L 108.190103 499.886437 
L 111.234754 487.846852 
L 117.324057 487.846852 
L 120.368708 454.230154 
L 150.81522 454.228813 
L 153.859872 414.480334 
L 178.217081 414.477165 
L 181.261733 413.893531 
L 184.306384 413.554957 
L 233.020804 413.47012 
L 236.065455 413.206992 
L 239.110106 413.089028 
L 275.645921 413.004524 
L 278.690573 405.725556 
L 296.95848 405.711792 
L 300.003131 405.412087 
L 312.181736 405.405311 
L 315.226388 403.874531 
L 351.762203 403.833724 
L 354.806854 403.642319 
L 397.431971 403.547349 
L 400.476623 383.753002 
L 403.521274 383.753002 
L 406.565925 383.553725 
L 409.610576 383.467762 
L 412.655228 278.896037 
L 437.012438 278.896037 
L 440.057089 257.576553 
L 443.10174 223.024832 
L 446.146391 222.580472 
L 452.235694 222.562651 
L 455.280345 221.984051 
L 458.324996 221.773043 
L 482.682206 221.719969 
L 494.860811 221.571695 
L 510.084067 221.575705 
L 567.932441 221.472911 
L 570.977092 221.224874 
L 598.378954 221.208022 
L 610.557559 221.198634 
L 644.048722 221.191137 
L 647.093374 219.27548 
L 668.405932 219.23763 
L 674.495235 219.155949 
L 683.629189 219.141837 
L 686.67384 218.809348 
L 695.807794 218.879208 
L 704.941747 218.748195 
L 720.165004 218.691348 
L 723.209655 218.514923 
L 747.566865 218.520998 
L 750.611516 218.30151 
L 826.727797 218.198228 
L 829.772448 218.112836 
L 841.951053 218.13471 
L 908.933381 218.02905 
L 927.201288 218.034409 
L 982.005011 218.035199 
L 985.049662 187.562755 
L 997.228267 187.560803 
L 997.228267 187.560803 
" clip-path="url(#p462d0cea75)" style="fill: none; stroke: #0000ff; stroke-width: 1.5; stroke-linecap: square"/>
   </g>
   <g id="line2d_24">
    <path d="M 84.137358 526.205327 
L 86.877544 526.205327 
L 89.922195 498.725507 
L 147.770569 498.639575 
L 150.81522 469.126283 
L 187.351035 469.122087 
L 190.395686 386.106676 
L 281.735224 386.105622 
L 284.779875 374.221731 
L 312.181736 374.221781 
L 315.226388 368.873908 
L 321.31569 368.82409 
L 324.360341 364.382667 
L 342.628249 364.374552 
L 345.6729 363.271352 
L 357.851505 363.269272 
L 360.896156 311.812215 
L 376.119413 311.809245 
L 379.164064 310.630668 
L 412.655228 310.607536 
L 415.699879 310.389212 
L 430.923135 310.374676 
L 433.967786 268.790477 
L 525.307324 268.781988 
L 528.351975 251.608797 
L 592.289651 251.598053 
L 595.334302 193.383892 
L 604.468256 193.394232 
L 607.512907 179.342258 
L 704.941747 179.334575 
L 707.986399 163.051357 
L 714.075701 163.051357 
L 717.120352 162.561308 
L 729.298957 162.558106 
L 732.343609 162.27686 
L 738.432911 162.27686 
L 741.477562 162.106052 
L 753.656167 162.06248 
L 759.74547 162.001157 
L 762.790121 153.644296 
L 997.228267 153.641144 
L 997.228267 153.641144 
" clip-path="url(#p462d0cea75)" style="fill: none; stroke: #0000ff; stroke-width: 1.5; stroke-linecap: square"/>
   </g>
   <g id="line2d_25">
    <path d="M 84.137358 785.033804 
L 86.877544 523.211753 
L 96.011498 523.211753 
L 99.056149 493.701889 
L 108.190103 493.701889 
L 111.234754 486.475783 
L 120.368708 486.475783 
L 123.413359 461.414017 
L 126.45801 454.558416 
L 159.949174 454.558416 
L 162.993825 447.256283 
L 181.261733 447.256283 
L 184.306384 410.786124 
L 190.395686 410.786124 
L 193.440338 409.828798 
L 217.797548 409.828798 
L 220.842199 407.180644 
L 223.88685 407.180644 
L 226.931501 364.676924 
L 321.31569 364.593299 
L 324.360341 332.858174 
L 516.17337 332.760363 
L 519.218021 274.888478 
L 741.477562 274.87837 
L 744.522214 271.511272 
L 750.611516 271.510716 
L 753.656167 215.515214 
L 787.147331 215.507806 
L 790.191982 214.405791 
L 793.236633 214.405791 
L 796.281285 211.766344 
L 829.772448 211.749589 
L 832.8171 207.408655 
L 951.558498 207.358151 
L 954.60315 206.301898 
L 966.781755 206.297897 
L 969.826406 206.145643 
L 975.915708 206.131154 
L 978.96036 205.308745 
L 997.228267 205.307066 
L 997.228267 205.307066 
" clip-path="url(#p462d0cea75)" style="fill: none; stroke: #0000ff; stroke-width: 1.5; stroke-linecap: square"/>
   </g>
   <g id="line2d_26">
    <path d="M 84.137358 537.956274 
L 86.877544 498.725507 
L 89.922195 468.73062 
L 120.368708 468.73062 
L 123.413359 468.496907 
L 129.502662 468.496907 
L 132.547313 435.726529 
L 138.636615 435.726366 
L 141.681267 431.820669 
L 156.904523 431.818907 
L 159.949174 431.582074 
L 162.993825 403.431573 
L 166.038477 403.431573 
L 169.083128 397.228256 
L 190.395686 397.228256 
L 193.440338 345.381586 
L 223.88685 345.381586 
L 226.931501 327.205708 
L 242.154758 327.205708 
L 245.199409 314.506775 
L 290.869178 314.506775 
L 293.913829 249.343302 
L 315.226388 249.343302 
L 318.271039 244.777354 
L 440.057089 244.777354 
L 443.10174 204.023439 
L 510.084067 204.023439 
L 513.128719 158.763155 
L 583.155697 158.763155 
L 586.200349 134.859896 
L 826.727797 134.843772 
L 829.772448 130.0906 
L 848.040356 130.089395 
L 851.085007 124.182927 
L 927.201288 124.182108 
L 930.24594 108.46694 
L 972.871057 108.465188 
L 975.915708 104.960896 
L 997.228267 104.958794 
L 997.228267 104.958794 
" clip-path="url(#p462d0cea75)" style="fill: none; stroke: #0000ff; stroke-width: 1.5; stroke-linecap: square"/>
   </g>
   <g id="patch_3">
    <path d="M 38.482813 1000.798125 
L 38.482813 22.318125 
" style="fill: none; stroke: #000000; stroke-width: 0.8; stroke-linejoin: miter; stroke-linecap: square"/>
   </g>
   <g id="patch_4">
    <path d="M 1042.882812 1000.798125 
L 1042.882812 22.318125 
" style="fill: none; stroke: #000000; stroke-width: 0.8; stroke-linejoin: miter; stroke-linecap: square"/>
   </g>
   <g id="patch_5">
    <path d="M 38.482813 1000.798125 
L 1042.882812 1000.798125 
" style="fill: none; stroke: #000000; stroke-width: 0.8; stroke-linejoin: miter; stroke-linecap: square"/>
   </g>
   <g id="patch_6">
    <path d="M 38.482813 22.318125 
L 1042.882812 22.318125 
" style="fill: none; stroke: #000000; stroke-width: 0.8; stroke-linejoin: miter; stroke-linecap: square"/>
   </g>
   <g id="text_17">
    <!-- Plot showing value of maximal fitness in time for all experiments, configuration #2 -->
    <g transform="translate(291.304062 16.318125)scale(0.12 -0.12)">
     <defs>
      <path id="DejaVuSans-50" d="M 1259 4147 
L 1259 2394 
L 2053 2394 
Q 2494 2394 2734 2622 
Q 2975 2850 2975 3272 
Q 2975 3691 2734 3919 
Q 2494 4147 2053 4147 
L 1259 4147 
z
M 628 4666 
L 2053 4666 
Q 2838 4666 3239 4311 
Q 3641 3956 3641 3272 
Q 3641 2581 3239 2228 
Q 2838 1875 2053 1875 
L 1259 1875 
L 1259 0 
L 628 0 
L 628 4666 
z
" transform="scale(0.015625)"/>
      <path id="DejaVuSans-6c" d="M 603 4863 
L 1178 4863 
L 1178 0 
L 603 0 
L 603 4863 
z
" transform="scale(0.015625)"/>
      <path id="DejaVuSans-6f" d="M 1959 3097 
Q 1497 3097 1228 2736 
Q 959 2375 959 1747 
Q 959 1119 1226 758 
Q 1494 397 1959 397 
Q 2419 397 2687 759 
Q 2956 1122 2956 1747 
Q 2956 2369 2687 2733 
Q 2419 3097 1959 3097 
z
M 1959 3584 
Q 2709 3584 3137 3096 
Q 3566 2609 3566 1747 
Q 3566 888 3137 398 
Q 2709 -91 1959 -91 
Q 1206 -91 779 398 
Q 353 888 353 1747 
Q 353 2609 779 3096 
Q 1206 3584 1959 3584 
z
" transform="scale(0.015625)"/>
      <path id="DejaVuSans-74" d="M 1172 4494 
L 1172 3500 
L 2356 3500 
L 2356 3053 
L 1172 3053 
L 1172 1153 
Q 1172 725 1289 603 
Q 1406 481 1766 481 
L 2356 481 
L 2356 0 
L 1766 0 
Q 1100 0 847 248 
Q 594 497 594 1153 
L 594 3053 
L 172 3053 
L 172 3500 
L 594 3500 
L 594 4494 
L 1172 4494 
z
" transform="scale(0.015625)"/>
      <path id="DejaVuSans-20" transform="scale(0.015625)"/>
      <path id="DejaVuSans-73" d="M 2834 3397 
L 2834 2853 
Q 2591 2978 2328 3040 
Q 2066 3103 1784 3103 
Q 1356 3103 1142 2972 
Q 928 2841 928 2578 
Q 928 2378 1081 2264 
Q 1234 2150 1697 2047 
L 1894 2003 
Q 2506 1872 2764 1633 
Q 3022 1394 3022 966 
Q 3022 478 2636 193 
Q 2250 -91 1575 -91 
Q 1294 -91 989 -36 
Q 684 19 347 128 
L 347 722 
Q 666 556 975 473 
Q 1284 391 1588 391 
Q 1994 391 2212 530 
Q 2431 669 2431 922 
Q 2431 1156 2273 1281 
Q 2116 1406 1581 1522 
L 1381 1569 
Q 847 1681 609 1914 
Q 372 2147 372 2553 
Q 372 3047 722 3315 
Q 1072 3584 1716 3584 
Q 2034 3584 2315 3537 
Q 2597 3491 2834 3397 
z
" transform="scale(0.015625)"/>
      <path id="DejaVuSans-68" d="M 3513 2113 
L 3513 0 
L 2938 0 
L 2938 2094 
Q 2938 2591 2744 2837 
Q 2550 3084 2163 3084 
Q 1697 3084 1428 2787 
Q 1159 2491 1159 1978 
L 1159 0 
L 581 0 
L 581 4863 
L 1159 4863 
L 1159 2956 
Q 1366 3272 1645 3428 
Q 1925 3584 2291 3584 
Q 2894 3584 3203 3211 
Q 3513 2838 3513 2113 
z
" transform="scale(0.015625)"/>
      <path id="DejaVuSans-77" d="M 269 3500 
L 844 3500 
L 1563 769 
L 2278 3500 
L 2956 3500 
L 3675 769 
L 4391 3500 
L 4966 3500 
L 4050 0 
L 3372 0 
L 2619 2869 
L 1863 0 
L 1184 0 
L 269 3500 
z
" transform="scale(0.015625)"/>
      <path id="DejaVuSans-69" d="M 603 3500 
L 1178 3500 
L 1178 0 
L 603 0 
L 603 3500 
z
M 603 4863 
L 1178 4863 
L 1178 4134 
L 603 4134 
L 603 4863 
z
" transform="scale(0.015625)"/>
      <path id="DejaVuSans-6e" d="M 3513 2113 
L 3513 0 
L 2938 0 
L 2938 2094 
Q 2938 2591 2744 2837 
Q 2550 3084 2163 3084 
Q 1697 3084 1428 2787 
Q 1159 2491 1159 1978 
L 1159 0 
L 581 0 
L 581 3500 
L 1159 3500 
L 1159 2956 
Q 1366 3272 1645 3428 
Q 1925 3584 2291 3584 
Q 2894 3584 3203 3211 
Q 3513 2838 3513 2113 
z
" transform="scale(0.015625)"/>
      <path id="DejaVuSans-67" d="M 2906 1791 
Q 2906 2416 2648 2759 
Q 2391 3103 1925 3103 
Q 1463 3103 1205 2759 
Q 947 2416 947 1791 
Q 947 1169 1205 825 
Q 1463 481 1925 481 
Q 2391 481 2648 825 
Q 2906 1169 2906 1791 
z
M 3481 434 
Q 3481 -459 3084 -895 
Q 2688 -1331 1869 -1331 
Q 1566 -1331 1297 -1286 
Q 1028 -1241 775 -1147 
L 775 -588 
Q 1028 -725 1275 -790 
Q 1522 -856 1778 -856 
Q 2344 -856 2625 -561 
Q 2906 -266 2906 331 
L 2906 616 
Q 2728 306 2450 153 
Q 2172 0 1784 0 
Q 1141 0 747 490 
Q 353 981 353 1791 
Q 353 2603 747 3093 
Q 1141 3584 1784 3584 
Q 2172 3584 2450 3431 
Q 2728 3278 2906 2969 
L 2906 3500 
L 3481 3500 
L 3481 434 
z
" transform="scale(0.015625)"/>
      <path id="DejaVuSans-76" d="M 191 3500 
L 800 3500 
L 1894 563 
L 2988 3500 
L 3597 3500 
L 2284 0 
L 1503 0 
L 191 3500 
z
" transform="scale(0.015625)"/>
      <path id="DejaVuSans-61" d="M 2194 1759 
Q 1497 1759 1228 1600 
Q 959 1441 959 1056 
Q 959 750 1161 570 
Q 1363 391 1709 391 
Q 2188 391 2477 730 
Q 2766 1069 2766 1631 
L 2766 1759 
L 2194 1759 
z
M 3341 1997 
L 3341 0 
L 2766 0 
L 2766 531 
Q 2569 213 2275 61 
Q 1981 -91 1556 -91 
Q 1019 -91 701 211 
Q 384 513 384 1019 
Q 384 1609 779 1909 
Q 1175 2209 1959 2209 
L 2766 2209 
L 2766 2266 
Q 2766 2663 2505 2880 
Q 2244 3097 1772 3097 
Q 1472 3097 1187 3025 
Q 903 2953 641 2809 
L 641 3341 
Q 956 3463 1253 3523 
Q 1550 3584 1831 3584 
Q 2591 3584 2966 3190 
Q 3341 2797 3341 1997 
z
" transform="scale(0.015625)"/>
      <path id="DejaVuSans-75" d="M 544 1381 
L 544 3500 
L 1119 3500 
L 1119 1403 
Q 1119 906 1312 657 
Q 1506 409 1894 409 
Q 2359 409 2629 706 
Q 2900 1003 2900 1516 
L 2900 3500 
L 3475 3500 
L 3475 0 
L 2900 0 
L 2900 538 
Q 2691 219 2414 64 
Q 2138 -91 1772 -91 
Q 1169 -91 856 284 
Q 544 659 544 1381 
z
M 1991 3584 
L 1991 3584 
z
" transform="scale(0.015625)"/>
      <path id="DejaVuSans-65" d="M 3597 1894 
L 3597 1613 
L 953 1613 
Q 991 1019 1311 708 
Q 1631 397 2203 397 
Q 2534 397 2845 478 
Q 3156 559 3463 722 
L 3463 178 
Q 3153 47 2828 -22 
Q 2503 -91 2169 -91 
Q 1331 -91 842 396 
Q 353 884 353 1716 
Q 353 2575 817 3079 
Q 1281 3584 2069 3584 
Q 2775 3584 3186 3129 
Q 3597 2675 3597 1894 
z
M 3022 2063 
Q 3016 2534 2758 2815 
Q 2500 3097 2075 3097 
Q 1594 3097 1305 2825 
Q 1016 2553 972 2059 
L 3022 2063 
z
" transform="scale(0.015625)"/>
      <path id="DejaVuSans-66" d="M 2375 4863 
L 2375 4384 
L 1825 4384 
Q 1516 4384 1395 4259 
Q 1275 4134 1275 3809 
L 1275 3500 
L 2222 3500 
L 2222 3053 
L 1275 3053 
L 1275 0 
L 697 0 
L 697 3053 
L 147 3053 
L 147 3500 
L 697 3500 
L 697 3744 
Q 697 4328 969 4595 
Q 1241 4863 1831 4863 
L 2375 4863 
z
" transform="scale(0.015625)"/>
      <path id="DejaVuSans-6d" d="M 3328 2828 
Q 3544 3216 3844 3400 
Q 4144 3584 4550 3584 
Q 5097 3584 5394 3201 
Q 5691 2819 5691 2113 
L 5691 0 
L 5113 0 
L 5113 2094 
Q 5113 2597 4934 2840 
Q 4756 3084 4391 3084 
Q 3944 3084 3684 2787 
Q 3425 2491 3425 1978 
L 3425 0 
L 2847 0 
L 2847 2094 
Q 2847 2600 2669 2842 
Q 2491 3084 2119 3084 
Q 1678 3084 1418 2786 
Q 1159 2488 1159 1978 
L 1159 0 
L 581 0 
L 581 3500 
L 1159 3500 
L 1159 2956 
Q 1356 3278 1631 3431 
Q 1906 3584 2284 3584 
Q 2666 3584 2933 3390 
Q 3200 3197 3328 2828 
z
" transform="scale(0.015625)"/>
      <path id="DejaVuSans-78" d="M 3513 3500 
L 2247 1797 
L 3578 0 
L 2900 0 
L 1881 1375 
L 863 0 
L 184 0 
L 1544 1831 
L 300 3500 
L 978 3500 
L 1906 2253 
L 2834 3500 
L 3513 3500 
z
" transform="scale(0.015625)"/>
      <path id="DejaVuSans-72" d="M 2631 2963 
Q 2534 3019 2420 3045 
Q 2306 3072 2169 3072 
Q 1681 3072 1420 2755 
Q 1159 2438 1159 1844 
L 1159 0 
L 581 0 
L 581 3500 
L 1159 3500 
L 1159 2956 
Q 1341 3275 1631 3429 
Q 1922 3584 2338 3584 
Q 2397 3584 2469 3576 
Q 2541 3569 2628 3553 
L 2631 2963 
z
" transform="scale(0.015625)"/>
      <path id="DejaVuSans-70" d="M 1159 525 
L 1159 -1331 
L 581 -1331 
L 581 3500 
L 1159 3500 
L 1159 2969 
Q 1341 3281 1617 3432 
Q 1894 3584 2278 3584 
Q 2916 3584 3314 3078 
Q 3713 2572 3713 1747 
Q 3713 922 3314 415 
Q 2916 -91 2278 -91 
Q 1894 -91 1617 61 
Q 1341 213 1159 525 
z
M 3116 1747 
Q 3116 2381 2855 2742 
Q 2594 3103 2138 3103 
Q 1681 3103 1420 2742 
Q 1159 2381 1159 1747 
Q 1159 1113 1420 752 
Q 1681 391 2138 391 
Q 2594 391 2855 752 
Q 3116 1113 3116 1747 
z
" transform="scale(0.015625)"/>
      <path id="DejaVuSans-2c" d="M 750 794 
L 1409 794 
L 1409 256 
L 897 -744 
L 494 -744 
L 750 256 
L 750 794 
z
" transform="scale(0.015625)"/>
      <path id="DejaVuSans-63" d="M 3122 3366 
L 3122 2828 
Q 2878 2963 2633 3030 
Q 2388 3097 2138 3097 
Q 1578 3097 1268 2742 
Q 959 2388 959 1747 
Q 959 1106 1268 751 
Q 1578 397 2138 397 
Q 2388 397 2633 464 
Q 2878 531 3122 666 
L 3122 134 
Q 2881 22 2623 -34 
Q 2366 -91 2075 -91 
Q 1284 -91 818 406 
Q 353 903 353 1747 
Q 353 2603 823 3093 
Q 1294 3584 2113 3584 
Q 2378 3584 2631 3529 
Q 2884 3475 3122 3366 
z
" transform="scale(0.015625)"/>
      <path id="DejaVuSans-23" d="M 3272 2816 
L 2363 2816 
L 2100 1772 
L 3016 1772 
L 3272 2816 
z
M 2803 4594 
L 2478 3297 
L 3391 3297 
L 3719 4594 
L 4219 4594 
L 3897 3297 
L 4872 3297 
L 4872 2816 
L 3775 2816 
L 3519 1772 
L 4513 1772 
L 4513 1294 
L 3397 1294 
L 3072 0 
L 2572 0 
L 2894 1294 
L 1978 1294 
L 1656 0 
L 1153 0 
L 1478 1294 
L 494 1294 
L 494 1772 
L 1594 1772 
L 1856 2816 
L 850 2816 
L 850 3297 
L 1978 3297 
L 2297 4594 
L 2803 4594 
z
" transform="scale(0.015625)"/>
     </defs>
     <use xlink:href="#DejaVuSans-50"/>
     <use xlink:href="#DejaVuSans-6c" x="60.302734"/>
     <use xlink:href="#DejaVuSans-6f" x="88.085938"/>
     <use xlink:href="#DejaVuSans-74" x="149.267578"/>
     <use xlink:href="#DejaVuSans-20" x="188.476562"/>
     <use xlink:href="#DejaVuSans-73" x="220.263672"/>
     <use xlink:href="#DejaVuSans-68" x="272.363281"/>
     <use xlink:href="#DejaVuSans-6f" x="335.742188"/>
     <use xlink:href="#DejaVuSans-77" x="396.923828"/>
     <use xlink:href="#DejaVuSans-69" x="478.710938"/>
     <use xlink:href="#DejaVuSans-6e" x="506.494141"/>
     <use xlink:href="#DejaVuSans-67" x="569.873047"/>
     <use xlink:href="#DejaVuSans-20" x="633.349609"/>
     <use xlink:href="#DejaVuSans-76" x="665.136719"/>
     <use xlink:href="#DejaVuSans-61" x="724.316406"/>
     <use xlink:href="#DejaVuSans-6c" x="785.595703"/>
     <use xlink:href="#DejaVuSans-75" x="813.378906"/>
     <use xlink:href="#DejaVuSans-65" x="876.757812"/>
     <use xlink:href="#DejaVuSans-20" x="938.28125"/>
     <use xlink:href="#DejaVuSans-6f" x="970.068359"/>
     <use xlink:href="#DejaVuSans-66" x="1031.25"/>
     <use xlink:href="#DejaVuSans-20" x="1066.455078"/>
     <use xlink:href="#DejaVuSans-6d" x="1098.242188"/>
     <use xlink:href="#DejaVuSans-61" x="1195.654297"/>
     <use xlink:href="#DejaVuSans-78" x="1256.933594"/>
     <use xlink:href="#DejaVuSans-69" x="1316.113281"/>
     <use xlink:href="#DejaVuSans-6d" x="1343.896484"/>
     <use xlink:href="#DejaVuSans-61" x="1441.308594"/>
     <use xlink:href="#DejaVuSans-6c" x="1502.587891"/>
     <use xlink:href="#DejaVuSans-20" x="1530.371094"/>
     <use xlink:href="#DejaVuSans-66" x="1562.158203"/>
     <use xlink:href="#DejaVuSans-69" x="1597.363281"/>
     <use xlink:href="#DejaVuSans-74" x="1625.146484"/>
     <use xlink:href="#DejaVuSans-6e" x="1664.355469"/>
     <use xlink:href="#DejaVuSans-65" x="1727.734375"/>
     <use xlink:href="#DejaVuSans-73" x="1789.257812"/>
     <use xlink:href="#DejaVuSans-73" x="1841.357422"/>
     <use xlink:href="#DejaVuSans-20" x="1893.457031"/>
     <use xlink:href="#DejaVuSans-69" x="1925.244141"/>
     <use xlink:href="#DejaVuSans-6e" x="1953.027344"/>
     <use xlink:href="#DejaVuSans-20" x="2016.40625"/>
     <use xlink:href="#DejaVuSans-74" x="2048.193359"/>
     <use xlink:href="#DejaVuSans-69" x="2087.402344"/>
     <use xlink:href="#DejaVuSans-6d" x="2115.185547"/>
     <use xlink:href="#DejaVuSans-65" x="2212.597656"/>
     <use xlink:href="#DejaVuSans-20" x="2274.121094"/>
     <use xlink:href="#DejaVuSans-66" x="2305.908203"/>
     <use xlink:href="#DejaVuSans-6f" x="2341.113281"/>
     <use xlink:href="#DejaVuSans-72" x="2402.294922"/>
     <use xlink:href="#DejaVuSans-20" x="2443.408203"/>
     <use xlink:href="#DejaVuSans-61" x="2475.195312"/>
     <use xlink:href="#DejaVuSans-6c" x="2536.474609"/>
     <use xlink:href="#DejaVuSans-6c" x="2564.257812"/>
     <use xlink:href="#DejaVuSans-20" x="2592.041016"/>
     <use xlink:href="#DejaVuSans-65" x="2623.828125"/>
     <use xlink:href="#DejaVuSans-78" x="2683.601562"/>
     <use xlink:href="#DejaVuSans-70" x="2742.78125"/>
     <use xlink:href="#DejaVuSans-65" x="2806.257812"/>
     <use xlink:href="#DejaVuSans-72" x="2867.78125"/>
     <use xlink:href="#DejaVuSans-69" x="2908.894531"/>
     <use xlink:href="#DejaVuSans-6d" x="2936.677734"/>
     <use xlink:href="#DejaVuSans-65" x="3034.089844"/>
     <use xlink:href="#DejaVuSans-6e" x="3095.613281"/>
     <use xlink:href="#DejaVuSans-74" x="3158.992188"/>
     <use xlink:href="#DejaVuSans-73" x="3198.201172"/>
     <use xlink:href="#DejaVuSans-2c" x="3250.300781"/>
     <use xlink:href="#DejaVuSans-20" x="3282.087891"/>
     <use xlink:href="#DejaVuSans-63" x="3313.875"/>
     <use xlink:href="#DejaVuSans-6f" x="3368.855469"/>
     <use xlink:href="#DejaVuSans-6e" x="3430.037109"/>
     <use xlink:href="#DejaVuSans-66" x="3493.416016"/>
     <use xlink:href="#DejaVuSans-69" x="3528.621094"/>
     <use xlink:href="#DejaVuSans-67" x="3556.404297"/>
     <use xlink:href="#DejaVuSans-75" x="3619.880859"/>
     <use xlink:href="#DejaVuSans-72" x="3683.259766"/>
     <use xlink:href="#DejaVuSans-61" x="3724.373047"/>
     <use xlink:href="#DejaVuSans-74" x="3785.652344"/>
     <use xlink:href="#DejaVuSans-69" x="3824.861328"/>
     <use xlink:href="#DejaVuSans-6f" x="3852.644531"/>
     <use xlink:href="#DejaVuSans-6e" x="3913.826172"/>
     <use xlink:href="#DejaVuSans-20" x="3977.205078"/>
     <use xlink:href="#DejaVuSans-23" x="4008.992188"/>
     <use xlink:href="#DejaVuSans-32" x="4092.78125"/>
    </g>
   </g>
  </g>
 </g>
 <defs>
  <clipPath id="p462d0cea75">
   <rect x="38.482813" y="22.318125" width="1004.4" height="978.48"/>
  </clipPath>
 </defs>
</svg>
