<?xml version="1.0" encoding="utf-8" standalone="no"?>
<!DOCTYPE svg PUBLIC "-//W3C//DTD SVG 1.1//EN"
  "http://www.w3.org/Graphics/SVG/1.1/DTD/svg11.dtd">
<svg xmlns:xlink="http://www.w3.org/1999/xlink" width="1041.703125pt" height="1024.67625pt" viewBox="0 0 1041.703125 1024.67625" xmlns="http://www.w3.org/2000/svg" version="1.1">
 <metadata>
  <rdf:RDF xmlns:dc="http://purl.org/dc/elements/1.1/" xmlns:cc="http://creativecommons.org/ns#" xmlns:rdf="http://www.w3.org/1999/02/22-rdf-syntax-ns#">
   <cc:Work>
    <dc:type rdf:resource="http://purl.org/dc/dcmitype/StillImage"/>
    <dc:date>2022-02-07T14:43:24.938989</dc:date>
    <dc:format>image/svg+xml</dc:format>
    <dc:creator>
     <cc:Agent>
      <dc:title>Matplotlib v3.5.0, https://matplotlib.org/</dc:title>
     </cc:Agent>
    </dc:creator>
   </cc:Work>
  </rdf:RDF>
 </metadata>
 <defs>
  <style type="text/css">*{stroke-linejoin: round; stroke-linecap: butt}</style>
 </defs>
 <g id="figure_1">
  <g id="patch_1">
   <path d="M 0 1024.67625 
L 1041.703125 1024.67625 
L 1041.703125 0 
L 0 0 
L 0 1024.67625 
z
" style="fill: none"/>
  </g>
  <g id="axes_1">
   <g id="patch_2">
    <path d="M 30.103125 1000.798125 
L 1034.503125 1000.798125 
L 1034.503125 22.318125 
L 30.103125 22.318125 
z
" style="fill: #ffffff"/>
   </g>
   <g id="matplotlib.axis_1">
    <g id="xtick_1">
     <g id="line2d_1">
      <defs>
       <path id="m52e7ee28e0" d="M 0 0 
L 0 3.5 
" style="stroke: #000000; stroke-width: 0.8"/>
      </defs>
      <g>
       <use xlink:href="#m52e7ee28e0" x="75.453205" y="1000.798125" style="stroke: #000000; stroke-width: 0.8"/>
      </g>
     </g>
     <g id="text_1">
      <!-- 0 -->
      <g transform="translate(72.271955 1015.396562)scale(0.1 -0.1)">
       <defs>
        <path id="DejaVuSans-30" d="M 2034 4250 
Q 1547 4250 1301 3770 
Q 1056 3291 1056 2328 
Q 1056 1369 1301 889 
Q 1547 409 2034 409 
Q 2525 409 2770 889 
Q 3016 1369 3016 2328 
Q 3016 3291 2770 3770 
Q 2525 4250 2034 4250 
z
M 2034 4750 
Q 2819 4750 3233 4129 
Q 3647 3509 3647 2328 
Q 3647 1150 3233 529 
Q 2819 -91 2034 -91 
Q 1250 -91 836 529 
Q 422 1150 422 2328 
Q 422 3509 836 4129 
Q 1250 4750 2034 4750 
z
" transform="scale(0.015625)"/>
       </defs>
       <use xlink:href="#DejaVuSans-30"/>
      </g>
     </g>
    </g>
    <g id="xtick_2">
     <g id="line2d_2">
      <g>
       <use xlink:href="#m52e7ee28e0" x="227.685768" y="1000.798125" style="stroke: #000000; stroke-width: 0.8"/>
      </g>
     </g>
     <g id="text_2">
      <!-- 500 -->
      <g transform="translate(218.142018 1015.396562)scale(0.1 -0.1)">
       <defs>
        <path id="DejaVuSans-35" d="M 691 4666 
L 3169 4666 
L 3169 4134 
L 1269 4134 
L 1269 2991 
Q 1406 3038 1543 3061 
Q 1681 3084 1819 3084 
Q 2600 3084 3056 2656 
Q 3513 2228 3513 1497 
Q 3513 744 3044 326 
Q 2575 -91 1722 -91 
Q 1428 -91 1123 -41 
Q 819 9 494 109 
L 494 744 
Q 775 591 1075 516 
Q 1375 441 1709 441 
Q 2250 441 2565 725 
Q 2881 1009 2881 1497 
Q 2881 1984 2565 2268 
Q 2250 2553 1709 2553 
Q 1456 2553 1204 2497 
Q 953 2441 691 2322 
L 691 4666 
z
" transform="scale(0.015625)"/>
       </defs>
       <use xlink:href="#DejaVuSans-35"/>
       <use xlink:href="#DejaVuSans-30" x="63.623047"/>
       <use xlink:href="#DejaVuSans-30" x="127.246094"/>
      </g>
     </g>
    </g>
    <g id="xtick_3">
     <g id="line2d_3">
      <g>
       <use xlink:href="#m52e7ee28e0" x="379.91833" y="1000.798125" style="stroke: #000000; stroke-width: 0.8"/>
      </g>
     </g>
     <g id="text_3">
      <!-- 1000 -->
      <g transform="translate(367.19333 1015.396562)scale(0.1 -0.1)">
       <defs>
        <path id="DejaVuSans-31" d="M 794 531 
L 1825 531 
L 1825 4091 
L 703 3866 
L 703 4441 
L 1819 4666 
L 2450 4666 
L 2450 531 
L 3481 531 
L 3481 0 
L 794 0 
L 794 531 
z
" transform="scale(0.015625)"/>
       </defs>
       <use xlink:href="#DejaVuSans-31"/>
       <use xlink:href="#DejaVuSans-30" x="63.623047"/>
       <use xlink:href="#DejaVuSans-30" x="127.246094"/>
       <use xlink:href="#DejaVuSans-30" x="190.869141"/>
      </g>
     </g>
    </g>
    <g id="xtick_4">
     <g id="line2d_4">
      <g>
       <use xlink:href="#m52e7ee28e0" x="532.150892" y="1000.798125" style="stroke: #000000; stroke-width: 0.8"/>
      </g>
     </g>
     <g id="text_4">
      <!-- 1500 -->
      <g transform="translate(519.425892 1015.396562)scale(0.1 -0.1)">
       <use xlink:href="#DejaVuSans-31"/>
       <use xlink:href="#DejaVuSans-35" x="63.623047"/>
       <use xlink:href="#DejaVuSans-30" x="127.246094"/>
       <use xlink:href="#DejaVuSans-30" x="190.869141"/>
      </g>
     </g>
    </g>
    <g id="xtick_5">
     <g id="line2d_5">
      <g>
       <use xlink:href="#m52e7ee28e0" x="684.383455" y="1000.798125" style="stroke: #000000; stroke-width: 0.8"/>
      </g>
     </g>
     <g id="text_5">
      <!-- 2000 -->
      <g transform="translate(671.658455 1015.396562)scale(0.1 -0.1)">
       <defs>
        <path id="DejaVuSans-32" d="M 1228 531 
L 3431 531 
L 3431 0 
L 469 0 
L 469 531 
Q 828 903 1448 1529 
Q 2069 2156 2228 2338 
Q 2531 2678 2651 2914 
Q 2772 3150 2772 3378 
Q 2772 3750 2511 3984 
Q 2250 4219 1831 4219 
Q 1534 4219 1204 4116 
Q 875 4013 500 3803 
L 500 4441 
Q 881 4594 1212 4672 
Q 1544 4750 1819 4750 
Q 2544 4750 2975 4387 
Q 3406 4025 3406 3419 
Q 3406 3131 3298 2873 
Q 3191 2616 2906 2266 
Q 2828 2175 2409 1742 
Q 1991 1309 1228 531 
z
" transform="scale(0.015625)"/>
       </defs>
       <use xlink:href="#DejaVuSans-32"/>
       <use xlink:href="#DejaVuSans-30" x="63.623047"/>
       <use xlink:href="#DejaVuSans-30" x="127.246094"/>
       <use xlink:href="#DejaVuSans-30" x="190.869141"/>
      </g>
     </g>
    </g>
    <g id="xtick_6">
     <g id="line2d_6">
      <g>
       <use xlink:href="#m52e7ee28e0" x="836.616017" y="1000.798125" style="stroke: #000000; stroke-width: 0.8"/>
      </g>
     </g>
     <g id="text_6">
      <!-- 2500 -->
      <g transform="translate(823.891017 1015.396562)scale(0.1 -0.1)">
       <use xlink:href="#DejaVuSans-32"/>
       <use xlink:href="#DejaVuSans-35" x="63.623047"/>
       <use xlink:href="#DejaVuSans-30" x="127.246094"/>
       <use xlink:href="#DejaVuSans-30" x="190.869141"/>
      </g>
     </g>
    </g>
    <g id="xtick_7">
     <g id="line2d_7">
      <g>
       <use xlink:href="#m52e7ee28e0" x="988.84858" y="1000.798125" style="stroke: #000000; stroke-width: 0.8"/>
      </g>
     </g>
     <g id="text_7">
      <!-- 3000 -->
      <g transform="translate(976.12358 1015.396562)scale(0.1 -0.1)">
       <defs>
        <path id="DejaVuSans-33" d="M 2597 2516 
Q 3050 2419 3304 2112 
Q 3559 1806 3559 1356 
Q 3559 666 3084 287 
Q 2609 -91 1734 -91 
Q 1441 -91 1130 -33 
Q 819 25 488 141 
L 488 750 
Q 750 597 1062 519 
Q 1375 441 1716 441 
Q 2309 441 2620 675 
Q 2931 909 2931 1356 
Q 2931 1769 2642 2001 
Q 2353 2234 1838 2234 
L 1294 2234 
L 1294 2753 
L 1863 2753 
Q 2328 2753 2575 2939 
Q 2822 3125 2822 3475 
Q 2822 3834 2567 4026 
Q 2313 4219 1838 4219 
Q 1578 4219 1281 4162 
Q 984 4106 628 3988 
L 628 4550 
Q 988 4650 1302 4700 
Q 1616 4750 1894 4750 
Q 2613 4750 3031 4423 
Q 3450 4097 3450 3541 
Q 3450 3153 3228 2886 
Q 3006 2619 2597 2516 
z
" transform="scale(0.015625)"/>
       </defs>
       <use xlink:href="#DejaVuSans-33"/>
       <use xlink:href="#DejaVuSans-30" x="63.623047"/>
       <use xlink:href="#DejaVuSans-30" x="127.246094"/>
       <use xlink:href="#DejaVuSans-30" x="190.869141"/>
      </g>
     </g>
    </g>
   </g>
   <g id="matplotlib.axis_2">
    <g id="ytick_1">
     <g id="line2d_8">
      <defs>
       <path id="m78a63a9623" d="M 0 0 
L -3.5 0 
" style="stroke: #000000; stroke-width: 0.8"/>
      </defs>
      <g>
       <use xlink:href="#m78a63a9623" x="30.103125" y="920.042388" style="stroke: #000000; stroke-width: 0.8"/>
      </g>
     </g>
     <g id="text_8">
      <!-- 0.2 -->
      <g transform="translate(7.2 923.841607)scale(0.1 -0.1)">
       <defs>
        <path id="DejaVuSans-2e" d="M 684 794 
L 1344 794 
L 1344 0 
L 684 0 
L 684 794 
z
" transform="scale(0.015625)"/>
       </defs>
       <use xlink:href="#DejaVuSans-30"/>
       <use xlink:href="#DejaVuSans-2e" x="63.623047"/>
       <use xlink:href="#DejaVuSans-32" x="95.410156"/>
      </g>
     </g>
    </g>
    <g id="ytick_2">
     <g id="line2d_9">
      <g>
       <use xlink:href="#m78a63a9623" x="30.103125" y="774.924893" style="stroke: #000000; stroke-width: 0.8"/>
      </g>
     </g>
     <g id="text_9">
      <!-- 0.4 -->
      <g transform="translate(7.2 778.724112)scale(0.1 -0.1)">
       <defs>
        <path id="DejaVuSans-34" d="M 2419 4116 
L 825 1625 
L 2419 1625 
L 2419 4116 
z
M 2253 4666 
L 3047 4666 
L 3047 1625 
L 3713 1625 
L 3713 1100 
L 3047 1100 
L 3047 0 
L 2419 0 
L 2419 1100 
L 313 1100 
L 313 1709 
L 2253 4666 
z
" transform="scale(0.015625)"/>
       </defs>
       <use xlink:href="#DejaVuSans-30"/>
       <use xlink:href="#DejaVuSans-2e" x="63.623047"/>
       <use xlink:href="#DejaVuSans-34" x="95.410156"/>
      </g>
     </g>
    </g>
    <g id="ytick_3">
     <g id="line2d_10">
      <g>
       <use xlink:href="#m78a63a9623" x="30.103125" y="629.807399" style="stroke: #000000; stroke-width: 0.8"/>
      </g>
     </g>
     <g id="text_10">
      <!-- 0.6 -->
      <g transform="translate(7.2 633.606618)scale(0.1 -0.1)">
       <defs>
        <path id="DejaVuSans-36" d="M 2113 2584 
Q 1688 2584 1439 2293 
Q 1191 2003 1191 1497 
Q 1191 994 1439 701 
Q 1688 409 2113 409 
Q 2538 409 2786 701 
Q 3034 994 3034 1497 
Q 3034 2003 2786 2293 
Q 2538 2584 2113 2584 
z
M 3366 4563 
L 3366 3988 
Q 3128 4100 2886 4159 
Q 2644 4219 2406 4219 
Q 1781 4219 1451 3797 
Q 1122 3375 1075 2522 
Q 1259 2794 1537 2939 
Q 1816 3084 2150 3084 
Q 2853 3084 3261 2657 
Q 3669 2231 3669 1497 
Q 3669 778 3244 343 
Q 2819 -91 2113 -91 
Q 1303 -91 875 529 
Q 447 1150 447 2328 
Q 447 3434 972 4092 
Q 1497 4750 2381 4750 
Q 2619 4750 2861 4703 
Q 3103 4656 3366 4563 
z
" transform="scale(0.015625)"/>
       </defs>
       <use xlink:href="#DejaVuSans-30"/>
       <use xlink:href="#DejaVuSans-2e" x="63.623047"/>
       <use xlink:href="#DejaVuSans-36" x="95.410156"/>
      </g>
     </g>
    </g>
    <g id="ytick_4">
     <g id="line2d_11">
      <g>
       <use xlink:href="#m78a63a9623" x="30.103125" y="484.689904" style="stroke: #000000; stroke-width: 0.8"/>
      </g>
     </g>
     <g id="text_11">
      <!-- 0.8 -->
      <g transform="translate(7.2 488.489123)scale(0.1 -0.1)">
       <defs>
        <path id="DejaVuSans-38" d="M 2034 2216 
Q 1584 2216 1326 1975 
Q 1069 1734 1069 1313 
Q 1069 891 1326 650 
Q 1584 409 2034 409 
Q 2484 409 2743 651 
Q 3003 894 3003 1313 
Q 3003 1734 2745 1975 
Q 2488 2216 2034 2216 
z
M 1403 2484 
Q 997 2584 770 2862 
Q 544 3141 544 3541 
Q 544 4100 942 4425 
Q 1341 4750 2034 4750 
Q 2731 4750 3128 4425 
Q 3525 4100 3525 3541 
Q 3525 3141 3298 2862 
Q 3072 2584 2669 2484 
Q 3125 2378 3379 2068 
Q 3634 1759 3634 1313 
Q 3634 634 3220 271 
Q 2806 -91 2034 -91 
Q 1263 -91 848 271 
Q 434 634 434 1313 
Q 434 1759 690 2068 
Q 947 2378 1403 2484 
z
M 1172 3481 
Q 1172 3119 1398 2916 
Q 1625 2713 2034 2713 
Q 2441 2713 2670 2916 
Q 2900 3119 2900 3481 
Q 2900 3844 2670 4047 
Q 2441 4250 2034 4250 
Q 1625 4250 1398 4047 
Q 1172 3844 1172 3481 
z
" transform="scale(0.015625)"/>
       </defs>
       <use xlink:href="#DejaVuSans-30"/>
       <use xlink:href="#DejaVuSans-2e" x="63.623047"/>
       <use xlink:href="#DejaVuSans-38" x="95.410156"/>
      </g>
     </g>
    </g>
    <g id="ytick_5">
     <g id="line2d_12">
      <g>
       <use xlink:href="#m78a63a9623" x="30.103125" y="339.57241" style="stroke: #000000; stroke-width: 0.8"/>
      </g>
     </g>
     <g id="text_12">
      <!-- 1.0 -->
      <g transform="translate(7.2 343.371629)scale(0.1 -0.1)">
       <use xlink:href="#DejaVuSans-31"/>
       <use xlink:href="#DejaVuSans-2e" x="63.623047"/>
       <use xlink:href="#DejaVuSans-30" x="95.410156"/>
      </g>
     </g>
    </g>
    <g id="ytick_6">
     <g id="line2d_13">
      <g>
       <use xlink:href="#m78a63a9623" x="30.103125" y="194.454916" style="stroke: #000000; stroke-width: 0.8"/>
      </g>
     </g>
     <g id="text_13">
      <!-- 1.2 -->
      <g transform="translate(7.2 198.254134)scale(0.1 -0.1)">
       <use xlink:href="#DejaVuSans-31"/>
       <use xlink:href="#DejaVuSans-2e" x="63.623047"/>
       <use xlink:href="#DejaVuSans-32" x="95.410156"/>
      </g>
     </g>
    </g>
    <g id="ytick_7">
     <g id="line2d_14">
      <g>
       <use xlink:href="#m78a63a9623" x="30.103125" y="49.337421" style="stroke: #000000; stroke-width: 0.8"/>
      </g>
     </g>
     <g id="text_14">
      <!-- 1.4 -->
      <g transform="translate(7.2 53.13664)scale(0.1 -0.1)">
       <use xlink:href="#DejaVuSans-31"/>
       <use xlink:href="#DejaVuSans-2e" x="63.623047"/>
       <use xlink:href="#DejaVuSans-34" x="95.410156"/>
      </g>
     </g>
    </g>
   </g>
   <g id="line2d_15">
    <path d="M 75.75767 956.321761 
L 78.497857 956.321761 
L 81.542508 900.693388 
L 84.587159 900.693388 
L 87.63181 843.855703 
L 209.41786 843.749805 
L 218.551814 843.545018 
L 230.730419 843.624299 
L 236.819721 843.676045 
L 239.864373 843.621153 
L 245.953675 843.681461 
L 252.042978 843.592387 
L 255.087629 842.784909 
L 258.13228 841.071654 
L 261.176931 842.571453 
L 264.221583 842.555445 
L 267.266234 841.714508 
L 270.310885 841.326782 
L 273.355536 841.326782 
L 276.400188 839.986282 
L 279.444839 838.817972 
L 282.48949 839.55404 
L 285.534141 839.55404 
L 288.578793 839.904504 
L 309.891351 839.866698 
L 312.936003 838.517394 
L 331.20391 838.517394 
L 337.293213 838.890021 
L 340.337864 838.890021 
L 343.382515 839.029959 
L 367.739725 839.127933 
L 373.829028 838.703747 
L 386.007633 838.703747 
L 389.052284 838.896739 
L 392.096935 837.919864 
L 416.454145 837.919864 
L 419.498796 838.143114 
L 449.945309 838.143114 
L 452.98996 839.046951 
L 468.213216 839.046951 
L 471.257867 838.258144 
L 474.302519 838.258144 
L 477.34717 839.046951 
L 486.481124 839.046951 
L 489.525775 838.84389 
L 495.615077 839.127933 
L 498.659729 838.674145 
L 507.793682 838.674145 
L 510.838334 838.419911 
L 519.972287 838.419911 
L 523.016939 837.689177 
L 526.06159 837.689177 
L 529.106241 838.368064 
L 532.150892 838.59436 
L 538.240195 838.885255 
L 541.284846 838.419911 
L 644.802989 838.403271 
L 647.84764 838.876935 
L 650.892291 838.876935 
L 653.936942 838.992805 
L 656.981594 837.469337 
L 669.160199 837.469337 
L 672.20485 838.258144 
L 675.249501 838.258144 
L 678.294152 838.698317 
L 681.338804 838.419911 
L 717.874619 838.419911 
L 720.91927 838.269993 
L 730.053224 838.269993 
L 733.097875 838.419911 
L 736.142526 838.269993 
L 745.27648 838.252677 
L 751.365782 838.753587 
L 754.410433 836.882219 
L 757.455085 836.290027 
L 760.499736 836.882219 
L 766.589038 836.882219 
L 769.63369 837.689177 
L 787.901597 837.689177 
L 790.946248 838.14529 
L 803.124853 838.14529 
L 806.169505 838.59612 
L 809.214156 838.84389 
L 812.258807 838.709557 
L 818.34811 838.709557 
L 821.392761 838.305786 
L 824.437412 838.379822 
L 827.482063 838.709557 
L 836.616017 838.709557 
L 839.660668 838.84389 
L 845.749971 838.930879 
L 848.794622 838.419911 
L 873.151832 838.419911 
L 876.196483 838.733431 
L 882.285786 838.733431 
L 888.375088 839.046951 
L 897.509042 839.046951 
L 900.553693 838.419911 
L 903.598345 839.046951 
L 909.687647 838.63885 
L 912.732298 839.046951 
L 915.77695 838.14529 
L 918.821601 838.14529 
L 921.866252 838.528545 
L 958.402067 838.419911 
L 961.446718 838.733431 
L 967.536021 838.733431 
L 970.580672 838.379822 
L 988.84858 838.379822 
L 988.84858 838.379822 
" clip-path="url(#pea75fbf437)" style="fill: none; stroke: #0000ff; stroke-width: 1.5; stroke-linecap: square"/>
   </g>
   <g id="line2d_16">
    <path d="M 75.75767 956.321761 
L 78.497857 900.693388 
L 84.587159 900.693388 
L 87.63181 843.855703 
L 248.998326 843.828002 
L 255.087629 843.730599 
L 322.069956 843.682446 
L 328.159259 843.703111 
L 337.293213 843.661179 
L 343.382515 843.728484 
L 349.471818 843.667933 
L 538.240195 843.666376 
L 541.284846 843.29071 
L 553.463451 843.386708 
L 556.508102 843.609016 
L 565.642056 843.594885 
L 568.686707 843.594885 
L 571.731359 843.15823 
L 574.77601 843.15823 
L 577.820661 839.069997 
L 583.909964 839.069997 
L 586.954615 829.716112 
L 599.13322 829.716112 
L 602.177871 833.805234 
L 614.356476 833.805234 
L 617.401127 836.051909 
L 620.445779 836.431529 
L 623.49043 836.577003 
L 626.535081 834.588226 
L 638.713686 834.588226 
L 641.758337 834.137429 
L 647.84764 834.137429 
L 650.892291 834.588226 
L 656.981594 834.588226 
L 660.026245 834.914487 
L 663.070896 835.582255 
L 669.160199 835.582255 
L 672.20485 836.091403 
L 675.249501 832.31666 
L 678.294152 836.311267 
L 681.338804 835.374758 
L 684.383455 835.374758 
L 687.428106 833.331645 
L 699.606711 833.331645 
L 702.651362 833.984788 
L 705.696014 833.984788 
L 708.740665 833.36362 
L 714.829967 833.36362 
L 717.874619 833.984788 
L 720.91927 833.984788 
L 723.963921 833.613173 
L 727.008572 833.613173 
L 730.053224 833.152955 
L 739.187177 833.152955 
L 742.231829 833.613173 
L 748.321131 833.613173 
L 751.365782 831.516102 
L 845.749971 831.516102 
L 848.794622 834.258834 
L 860.973227 834.292097 
L 864.017878 833.416139 
L 879.241135 833.416139 
L 882.285786 832.886784 
L 900.553693 832.886784 
L 903.598345 833.10482 
L 918.821601 833.10482 
L 921.866252 833.457781 
L 924.910903 833.457781 
L 927.955555 835.023989 
L 934.044857 836.040609 
L 937.089508 833.120808 
L 952.312765 833.120808 
L 955.357416 832.189761 
L 958.402067 831.97557 
L 961.446718 831.97557 
L 964.49137 832.189761 
L 967.536021 832.886453 
L 988.84858 832.886453 
L 988.84858 832.886453 
" clip-path="url(#pea75fbf437)" style="fill: none; stroke: #0000ff; stroke-width: 1.5; stroke-linecap: square"/>
   </g>
   <g id="line2d_17">
    <path d="M 75.75767 956.321761 
L 78.497857 900.693388 
L 81.542508 843.855703 
L 297.712746 843.814154 
L 300.757398 807.588606 
L 303.802049 807.588606 
L 306.8467 806.545108 
L 309.891351 792.753903 
L 312.936003 755.426857 
L 315.980654 727.11218 
L 319.025305 715.495961 
L 322.069956 727.11218 
L 328.159259 727.11218 
L 331.20391 728.885463 
L 334.248561 732.174283 
L 340.337864 732.174283 
L 343.382515 735.249231 
L 346.427166 735.249231 
L 349.471818 736.131324 
L 370.784376 736.131324 
L 373.829028 727.650416 
L 376.873679 727.650416 
L 379.91833 740.25469 
L 382.962981 729.272788 
L 386.007633 712.751159 
L 389.052284 720.513405 
L 392.096935 720.513405 
L 395.141586 722.885814 
L 398.186238 722.885814 
L 401.230889 714.134156 
L 407.320191 714.134156 
L 410.364843 704.546024 
L 413.409494 714.65905 
L 416.454145 722.885814 
L 419.498796 722.885814 
L 422.543448 729.272788 
L 425.588099 699.612488 
L 428.63275 699.612488 
L 431.677401 729.272788 
L 434.722053 696.213387 
L 440.811355 696.213387 
L 443.856006 700.764108 
L 498.659729 700.764108 
L 504.749031 710.278163 
L 510.838334 710.278163 
L 513.882985 715.953726 
L 519.972287 715.953726 
L 523.016939 719.477099 
L 526.06159 699.488279 
L 538.240195 699.488279 
L 541.284846 705.961682 
L 547.374149 705.961682 
L 550.4188 689.644751 
L 586.954615 689.644751 
L 589.999266 693.021576 
L 593.043917 710.042015 
L 596.088569 710.042015 
L 599.13322 713.841814 
L 605.222522 713.841814 
L 608.267174 709.541059 
L 620.445779 709.541059 
L 623.49043 713.841814 
L 626.535081 713.841814 
L 629.579732 710.053591 
L 632.624384 710.053591 
L 635.669035 701.38224 
L 641.758337 701.38224 
L 644.802989 709.280578 
L 647.84764 710.053591 
L 650.892291 706.478849 
L 660.026245 706.478849 
L 663.070896 714.094581 
L 666.115547 703.353739 
L 675.249501 703.353739 
L 678.294152 703.618762 
L 681.338804 714.094581 
L 684.383455 698.380079 
L 696.56206 698.380079 
L 699.606711 687.493637 
L 702.651362 698.380079 
L 727.008572 698.380079 
L 730.053224 696.523972 
L 775.722992 696.523972 
L 778.767643 709.657356 
L 790.946248 709.657356 
L 793.9909 715.14861 
L 803.124853 715.14861 
L 806.169505 701.670125 
L 809.214156 684.149032 
L 824.437412 684.149032 
L 827.482063 686.89661 
L 836.616017 686.89661 
L 839.660668 692.460159 
L 848.794622 692.460159 
L 851.839273 700.760156 
L 860.973227 700.760156 
L 864.017878 701.670125 
L 867.06253 690.721455 
L 879.241135 690.721455 
L 882.285786 680.058102 
L 903.598345 680.058102 
L 906.642996 690.721455 
L 909.687647 690.721455 
L 912.732298 706.491183 
L 918.821601 706.491183 
L 921.866252 707.010757 
L 931.000206 707.010757 
L 934.044857 710.03799 
L 946.223462 710.03799 
L 949.268113 723.66839 
L 955.357416 723.66839 
L 958.402067 718.514249 
L 961.446718 704.154798 
L 964.49137 704.154798 
L 967.536021 707.750691 
L 970.580672 707.888783 
L 973.625323 707.888783 
L 976.669975 709.613214 
L 982.759277 676.539689 
L 988.84858 676.539689 
L 988.84858 676.539689 
" clip-path="url(#pea75fbf437)" style="fill: none; stroke: #0000ff; stroke-width: 1.5; stroke-linecap: square"/>
   </g>
   <g id="line2d_18">
    <path d="M 75.75767 956.321761 
L 78.497857 900.693388 
L 81.542508 843.855703 
L 121.122974 843.855221 
L 124.167625 774.823047 
L 130.256928 774.823047 
L 133.301579 770.755736 
L 151.569487 770.755736 
L 154.614138 750.70019 
L 200.283906 750.64069 
L 203.328558 750.439898 
L 206.373209 750.439898 
L 209.41786 748.962203 
L 212.462511 748.982216 
L 215.507163 749.239929 
L 258.13228 749.239929 
L 261.176931 701.232265 
L 303.802049 701.197358 
L 306.8467 647.679285 
L 437.766704 647.614557 
L 440.811355 637.401755 
L 443.856006 635.956975 
L 446.900658 602.295162 
L 459.079263 602.27838 
L 465.168565 602.439431 
L 468.213216 602.240897 
L 492.570426 602.240897 
L 495.615077 570.308259 
L 535.195544 570.19901 
L 538.240195 570.150278 
L 541.284846 568.14094 
L 544.329497 568.14094 
L 547.374149 570.150278 
L 565.642056 570.19901 
L 568.686707 568.49985 
L 583.909964 568.439127 
L 586.954615 568.256612 
L 596.088569 568.242753 
L 599.13322 558.722813 
L 614.356476 558.722813 
L 617.401127 558.882997 
L 626.535081 558.855393 
L 635.669035 558.94329 
L 638.713686 558.526253 
L 660.026245 558.573694 
L 663.070896 558.773566 
L 666.115547 558.775868 
L 669.160199 558.572877 
L 696.56206 558.64821 
L 699.606711 552.482579 
L 723.963921 552.359932 
L 745.27648 552.359932 
L 748.321131 534.454536 
L 772.678341 534.454536 
L 775.722992 534.13663 
L 793.9909 534.13663 
L 797.035551 534.34062 
L 806.169505 534.335145 
L 809.214156 384.359217 
L 815.303458 384.420271 
L 818.34811 384.155681 
L 824.437412 384.052197 
L 830.526715 384.114021 
L 873.151832 384.17608 
L 876.196483 384.265631 
L 879.241135 384.158492 
L 882.285786 330.809786 
L 888.375088 330.809786 
L 891.41974 308.963049 
L 894.464391 308.978448 
L 897.509042 308.727329 
L 900.553693 299.564429 
L 906.642996 299.564429 
L 909.687647 299.262907 
L 912.732298 299.493277 
L 918.821601 299.443852 
L 921.866252 299.372524 
L 924.910903 292.938918 
L 931.000206 292.475271 
L 934.044857 290.693788 
L 952.312765 290.693788 
L 955.357416 291.524483 
L 958.402067 291.524483 
L 961.446718 291.243318 
L 964.49137 290.802183 
L 967.536021 279.436731 
L 979.714626 279.436731 
L 982.759277 279.822635 
L 988.84858 279.822635 
L 988.84858 279.822635 
" clip-path="url(#pea75fbf437)" style="fill: none; stroke: #0000ff; stroke-width: 1.5; stroke-linecap: square"/>
   </g>
   <g id="line2d_19">
    <path d="M 75.75767 900.693388 
L 78.497857 843.855703 
L 157.658789 843.828759 
L 160.70344 843.712405 
L 319.025305 843.608194 
L 328.159259 843.557762 
L 614.356476 843.609351 
L 617.401127 842.424393 
L 626.535081 842.248349 
L 660.026245 842.273661 
L 663.070896 841.825568 
L 821.392761 841.802288 
L 824.437412 840.102486 
L 833.571366 840.102486 
L 836.616017 841.792338 
L 931.000206 841.744163 
L 937.089508 841.676874 
L 940.13416 839.763756 
L 943.178811 838.789339 
L 958.402067 838.789339 
L 961.446718 839.763759 
L 964.49137 831.488068 
L 967.536021 833.553081 
L 973.625323 833.553081 
L 976.669975 787.587289 
L 979.714626 787.587289 
L 982.759277 788.933937 
L 985.803928 788.272383 
L 988.84858 775.276082 
L 988.84858 775.276082 
" clip-path="url(#pea75fbf437)" style="fill: none; stroke: #0000ff; stroke-width: 1.5; stroke-linecap: square"/>
   </g>
   <g id="line2d_20">
    <path d="M 75.75767 956.321761 
L 78.497857 956.321761 
L 81.542508 900.693388 
L 84.587159 900.693388 
L 87.63181 843.855703 
L 99.810415 843.827646 
L 102.855067 834.103724 
L 108.944369 834.071057 
L 111.98902 834.071057 
L 115.033672 830.292306 
L 127.212277 830.220523 
L 130.256928 815.229147 
L 136.34623 815.224566 
L 139.390882 780.53873 
L 145.480184 780.538399 
L 148.524835 779.977719 
L 151.569487 779.977719 
L 154.614138 779.478907 
L 157.658789 674.14997 
L 255.087629 674.084975 
L 261.176931 674.05258 
L 413.409494 674.030867 
L 416.454145 619.770957 
L 529.106241 619.679211 
L 532.150892 581.706821 
L 541.284846 581.634641 
L 556.508102 581.588173 
L 562.597405 581.598764 
L 690.472757 581.588188 
L 693.517409 555.003268 
L 733.097875 554.951945 
L 736.142526 536.395816 
L 745.27648 536.330925 
L 751.365782 536.269895 
L 839.660668 536.316539 
L 842.70532 523.288796 
L 952.312765 523.269189 
L 955.357416 514.171504 
L 988.84858 514.102151 
L 988.84858 514.102151 
" clip-path="url(#pea75fbf437)" style="fill: none; stroke: #0000ff; stroke-width: 1.5; stroke-linecap: square"/>
   </g>
   <g id="line2d_21">
    <path d="M 75.75767 956.321761 
L 78.497857 843.855703 
L 142.435533 843.855682 
L 145.480184 835.198746 
L 151.569487 835.198746 
L 154.614138 806.313724 
L 166.792743 806.313724 
L 169.837394 782.603815 
L 182.015999 782.603815 
L 185.06065 734.058755 
L 191.149953 734.058755 
L 194.194604 673.744006 
L 197.239255 673.744006 
L 200.283906 534.024903 
L 215.507163 534.024209 
L 218.551814 531.941031 
L 221.596465 531.935716 
L 224.641116 531.807478 
L 227.685768 529.072259 
L 230.730419 529.081222 
L 233.77507 524.65218 
L 236.819721 523.830913 
L 242.909024 523.830913 
L 245.953675 523.569362 
L 248.998326 523.569362 
L 252.042978 523.205055 
L 255.087629 523.205055 
L 258.13228 522.375816 
L 261.176931 517.865935 
L 264.221583 517.024337 
L 270.310885 517.024337 
L 273.355536 515.729592 
L 276.400188 515.729592 
L 279.444839 497.847398 
L 288.578793 497.846963 
L 291.623444 497.61264 
L 294.668095 468.777885 
L 328.159259 468.777885 
L 331.20391 468.651595 
L 337.293213 468.651595 
L 340.337864 468.071198 
L 343.382515 467.773382 
L 346.427166 467.773382 
L 349.471818 448.688671 
L 352.516469 448.688671 
L 355.56112 448.502248 
L 358.605771 446.46854 
L 361.650423 446.46854 
L 364.695074 448.507708 
L 373.829028 448.507708 
L 379.91833 447.879342 
L 386.007633 447.817704 
L 392.096935 447.709614 
L 395.141586 438.42039 
L 404.27554 438.463638 
L 407.320191 434.380297 
L 410.364843 424.988529 
L 419.498796 424.988529 
L 422.543448 294.437455 
L 428.63275 294.437455 
L 431.677401 289.336028 
L 434.722053 289.201447 
L 437.766704 289.201447 
L 440.811355 288.929975 
L 443.856006 286.694206 
L 452.98996 286.694206 
L 456.034611 276.537769 
L 483.436472 276.537769 
L 486.481124 275.861241 
L 492.570426 275.861241 
L 495.615077 241.066493 
L 498.659729 240.707255 
L 501.70438 231.46992 
L 507.793682 231.46992 
L 510.838334 223.884085 
L 513.882985 223.884085 
L 516.927636 231.380229 
L 519.972287 230.814565 
L 532.150892 230.814565 
L 535.195544 229.972047 
L 538.240195 229.271398 
L 544.329497 229.271398 
L 547.374149 229.457124 
L 550.4188 227.776323 
L 553.463451 227.776323 
L 556.508102 225.487389 
L 559.552754 228.654105 
L 562.597405 225.417422 
L 568.686707 225.417422 
L 571.731359 221.799616 
L 574.77601 221.502702 
L 577.820661 221.799616 
L 580.865312 223.004664 
L 583.909964 210.317104 
L 586.954615 210.219103 
L 589.999266 201.151439 
L 593.043917 196.191675 
L 599.13322 196.191675 
L 602.177871 189.75948 
L 605.222522 190.071182 
L 608.267174 190.071182 
L 611.311825 194.651136 
L 614.356476 195.921577 
L 617.401127 195.921577 
L 620.445779 195.424527 
L 629.579732 195.424527 
L 632.624384 193.901243 
L 635.669035 182.792254 
L 641.758337 182.792254 
L 644.802989 178.446389 
L 650.892291 178.446389 
L 653.936942 182.792254 
L 663.070896 182.792254 
L 666.115547 179.508112 
L 669.160199 180.705436 
L 672.20485 180.705436 
L 675.249501 177.966425 
L 678.294152 180.824841 
L 681.338804 180.824841 
L 684.383455 180.399027 
L 687.428106 180.399027 
L 690.472757 180.05683 
L 693.517409 179.043921 
L 702.651362 179.043921 
L 705.696014 176.844907 
L 714.829967 176.844907 
L 717.874619 179.261834 
L 723.963921 179.261834 
L 727.008572 178.853014 
L 733.097875 178.853014 
L 736.142526 179.369029 
L 742.231829 179.606808 
L 745.27648 177.520278 
L 748.321131 177.5427 
L 751.365782 177.325231 
L 757.455085 177.325231 
L 760.499736 175.159828 
L 766.589038 175.159828 
L 769.63369 175.951253 
L 772.678341 175.951253 
L 775.722992 176.450228 
L 778.767643 177.187074 
L 781.812295 177.187074 
L 784.856946 177.901023 
L 787.901597 170.353009 
L 793.9909 170.353009 
L 797.035551 175.777595 
L 800.080202 174.433536 
L 803.124853 172.75396 
L 812.258807 172.75396 
L 815.303458 173.153916 
L 818.34811 173.153916 
L 821.392761 168.733213 
L 824.437412 170.119019 
L 879.241135 170.119019 
L 882.285786 168.682463 
L 885.330437 168.682463 
L 888.375088 170.119019 
L 891.41974 170.119019 
L 894.464391 97.056022 
L 906.642996 97.12071 
L 909.687647 94.9815 
L 915.77695 94.9815 
L 918.821601 93.586734 
L 921.866252 92.950695 
L 924.910903 66.794489 
L 988.84858 66.794489 
L 988.84858 66.794489 
" clip-path="url(#pea75fbf437)" style="fill: none; stroke: #0000ff; stroke-width: 1.5; stroke-linecap: square"/>
   </g>
   <g id="line2d_22">
    <path d="M 75.75767 956.321761 
L 78.497857 900.693388 
L 81.542508 843.855703 
L 136.34623 843.842459 
L 139.390882 791.937137 
L 142.435533 789.034185 
L 145.480184 803.038975 
L 148.524835 803.038975 
L 151.569487 756.169696 
L 154.614138 766.27516 
L 157.658789 748.147116 
L 160.70344 744.092505 
L 163.748092 738.884523 
L 166.792743 728.362207 
L 169.837394 728.362207 
L 172.882045 709.39138 
L 188.105301 709.39138 
L 191.149953 706.008905 
L 209.41786 706.008905 
L 212.462511 707.028131 
L 218.551814 707.028131 
L 221.596465 706.25383 
L 224.641116 706.542088 
L 233.77507 706.542088 
L 236.819721 705.452936 
L 242.909024 705.452936 
L 245.953675 706.381953 
L 248.998326 705.862356 
L 252.042978 705.862356 
L 255.087629 705.524657 
L 258.13228 705.777594 
L 261.176931 705.777594 
L 267.266234 705.366845 
L 270.310885 705.524798 
L 273.355536 705.524798 
L 276.400188 704.773059 
L 279.444839 705.524798 
L 285.534141 705.524798 
L 288.578793 705.261548 
L 297.712746 705.261548 
L 300.757398 705.047519 
L 306.8467 704.951001 
L 309.891351 704.849286 
L 319.025305 704.266896 
L 328.159259 704.266896 
L 331.20391 704.38801 
L 334.248561 704.38801 
L 337.293213 703.930069 
L 343.382515 703.930069 
L 346.427166 704.38801 
L 352.516469 704.31784 
L 358.605771 704.38801 
L 361.650423 704.38801 
L 364.695074 705.02807 
L 367.739725 704.807278 
L 370.784376 704.123895 
L 379.91833 704.123895 
L 382.962981 704.341157 
L 401.230889 704.371101 
L 404.27554 704.591371 
L 437.766704 704.619751 
L 440.811355 704.278136 
L 443.856006 704.278136 
L 446.900658 704.736097 
L 452.98996 704.736097 
L 456.034611 703.60745 
L 462.123914 703.60745 
L 465.168565 703.723041 
L 468.213216 703.723041 
L 471.257867 704.043555 
L 474.302519 701.188453 
L 480.391821 701.188453 
L 483.436472 703.074687 
L 486.481124 703.775381 
L 495.615077 703.676486 
L 498.659729 704.153483 
L 501.70438 704.189742 
L 504.749031 703.336291 
L 510.838334 703.336291 
L 513.882985 703.219101 
L 547.374149 703.219101 
L 550.4188 703.683477 
L 553.463451 703.580315 
L 556.508102 703.297445 
L 559.552754 703.580315 
L 571.731359 703.452483 
L 574.77601 701.163662 
L 580.865312 701.163662 
L 583.909964 703.510126 
L 596.088569 703.560063 
L 599.13322 703.987456 
L 602.177871 704.096714 
L 605.222522 703.107205 
L 617.401127 703.107205 
L 620.445779 703.813453 
L 623.49043 704.769652 
L 626.535081 703.135861 
L 647.84764 703.086797 
L 650.892291 703.280084 
L 666.115547 703.280084 
L 669.160199 704.088983 
L 672.20485 704.68151 
L 675.249501 704.82032 
L 678.294152 703.014351 
L 681.338804 703.014351 
L 684.383455 704.256068 
L 687.428106 703.979951 
L 690.472757 703.979951 
L 693.517409 704.256068 
L 696.56206 704.358822 
L 699.606711 703.770226 
L 708.740665 703.770226 
L 711.785316 704.499585 
L 714.829967 704.257683 
L 717.874619 704.913307 
L 720.91927 704.366107 
L 723.963921 704.366107 
L 727.008572 703.145963 
L 730.053224 701.466386 
L 733.097875 703.145963 
L 745.27648 703.145963 
L 748.321131 702.890428 
L 751.365782 704.27374 
L 754.410433 703.640982 
L 763.544387 703.640982 
L 766.589038 703.519221 
L 769.63369 703.519221 
L 772.678341 703.883683 
L 781.812295 703.883683 
L 784.856946 701.831463 
L 797.035551 701.831463 
L 800.080202 703.089354 
L 812.258807 703.089354 
L 815.303458 703.62381 
L 824.437412 703.62381 
L 827.482063 704.068771 
L 833.571366 704.068771 
L 836.616017 704.303463 
L 854.883925 704.303463 
L 857.928576 704.579724 
L 864.017878 704.800572 
L 867.06253 704.800572 
L 870.107181 703.589069 
L 891.41974 703.589069 
L 894.464391 704.505791 
L 900.553693 704.586755 
L 903.598345 703.641833 
L 909.687647 703.641833 
L 912.732298 703.471591 
L 918.821601 703.471591 
L 921.866252 703.641833 
L 924.910903 704.159268 
L 927.955555 703.757606 
L 931.000206 703.021499 
L 934.044857 703.021499 
L 937.089508 701.768385 
L 949.268113 701.768385 
L 952.312765 703.021499 
L 964.49137 703.021499 
L 967.536021 703.377255 
L 970.580672 703.377255 
L 973.625323 703.820429 
L 976.669975 702.316252 
L 979.714626 702.316252 
L 982.759277 702.712497 
L 988.84858 702.712497 
L 988.84858 702.712497 
" clip-path="url(#pea75fbf437)" style="fill: none; stroke: #0000ff; stroke-width: 1.5; stroke-linecap: square"/>
   </g>
   <g id="line2d_23">
    <path d="M 75.75767 956.321761 
L 78.497857 900.693388 
L 81.542508 843.855703 
L 462.123914 843.761741 
L 465.168565 832.052163 
L 471.257867 832.052163 
L 474.302519 823.390103 
L 477.34717 823.390103 
L 480.391821 813.88102 
L 483.436472 808.074212 
L 486.481124 808.074212 
L 489.525775 813.88102 
L 492.570426 807.79665 
L 504.749031 807.79665 
L 507.793682 809.138263 
L 510.838334 808.733164 
L 513.882985 808.733164 
L 516.927636 810.994042 
L 519.972287 800.425662 
L 523.016939 807.856348 
L 526.06159 807.856348 
L 529.106241 811.337309 
L 532.150892 811.337309 
L 535.195544 807.703224 
L 538.240195 807.703224 
L 541.284846 796.595596 
L 544.329497 796.595596 
L 547.374149 798.563705 
L 568.686707 798.563705 
L 571.731359 797.443667 
L 586.954615 797.443667 
L 589.999266 795.539774 
L 599.13322 795.539774 
L 602.177871 794.9289 
L 614.356476 794.9289 
L 617.401127 795.539774 
L 623.49043 795.539774 
L 626.535081 775.818258 
L 644.802989 775.818258 
L 647.84764 774.902393 
L 650.892291 775.818258 
L 653.936942 769.708293 
L 656.981594 768.629392 
L 660.026245 768.317276 
L 669.160199 768.317276 
L 672.20485 766.262295 
L 675.249501 766.262295 
L 678.294152 765.492474 
L 684.383455 765.492474 
L 687.428106 762.443084 
L 690.472757 762.443084 
L 693.517409 768.317276 
L 696.56206 772.227297 
L 699.606711 752.248363 
L 702.651362 752.248363 
L 705.696014 747.34261 
L 733.097875 747.34261 
L 736.142526 755.452859 
L 739.187177 755.452859 
L 742.231829 752.117564 
L 748.321131 752.117564 
L 751.365782 752.984253 
L 754.410433 752.984253 
L 757.455085 751.458578 
L 760.499736 751.458578 
L 763.544387 751.23601 
L 766.589038 751.23601 
L 769.63369 751.458578 
L 772.678341 751.458578 
L 775.722992 755.649343 
L 778.767643 746.493591 
L 806.169505 746.493591 
L 809.214156 749.906517 
L 812.258807 761.337862 
L 815.303458 761.337862 
L 818.34811 762.731558 
L 824.437412 762.731558 
L 827.482063 762.58775 
L 830.526715 762.731558 
L 836.616017 762.731558 
L 839.660668 743.154779 
L 842.70532 743.154779 
L 845.749971 742.131532 
L 860.973227 742.131532 
L 864.017878 736.080583 
L 867.06253 736.080583 
L 870.107181 743.176434 
L 885.330437 743.176434 
L 888.375088 752.907594 
L 891.41974 752.907594 
L 894.464391 751.762268 
L 906.642996 751.762268 
L 909.687647 752.907594 
L 912.732298 752.907594 
L 915.77695 746.044305 
L 940.13416 746.044305 
L 943.178811 697.055812 
L 946.223462 746.044305 
L 949.268113 746.044305 
L 952.312765 756.857352 
L 955.357416 756.857352 
L 958.402067 755.123191 
L 961.446718 755.123191 
L 964.49137 749.591161 
L 967.536021 749.591161 
L 970.580672 746.755111 
L 988.84858 746.755111 
L 988.84858 746.755111 
" clip-path="url(#pea75fbf437)" style="fill: none; stroke: #0000ff; stroke-width: 1.5; stroke-linecap: square"/>
   </g>
   <g id="line2d_24">
    <path d="M 75.75767 956.321761 
L 78.497857 956.321761 
L 81.542508 900.693388 
L 90.676462 900.693388 
L 93.721113 843.855703 
L 136.34623 843.85356 
L 139.390882 811.232473 
L 154.614138 811.23157 
L 157.658789 796.245132 
L 160.70344 796.245132 
L 163.748092 777.383329 
L 166.792743 768.56939 
L 178.971348 768.56939 
L 182.015999 767.728261 
L 188.105301 767.728261 
L 191.149953 768.065891 
L 194.194604 768.065891 
L 197.239255 732.85995 
L 200.283906 732.85995 
L 203.328558 673.95259 
L 212.462511 673.949449 
L 215.507163 721.827004 
L 221.596465 721.827004 
L 224.641116 684.794018 
L 239.864373 684.794018 
L 242.909024 683.220574 
L 245.953675 675.014613 
L 255.087629 674.97625 
L 258.13228 674.198801 
L 261.176931 674.973039 
L 264.221583 674.97625 
L 267.266234 674.716291 
L 303.802049 674.610618 
L 306.8467 674.399483 
L 349.471818 674.411713 
L 352.516469 673.925653 
L 364.695074 673.966957 
L 367.739725 674.405063 
L 370.784376 647.447777 
L 373.829028 647.299397 
L 376.873679 647.447777 
L 392.096935 647.428566 
L 395.141586 647.583234 
L 425.588099 647.521964 
L 428.63275 628.792008 
L 431.677401 628.651841 
L 434.722053 628.651841 
L 437.766704 628.105216 
L 440.811355 628.651841 
L 456.034611 628.630806 
L 459.079263 628.516078 
L 468.213216 628.516078 
L 474.302519 627.733671 
L 526.06159 627.719084 
L 529.106241 627.871461 
L 532.150892 627.871461 
L 535.195544 627.739788 
L 562.597405 627.718396 
L 565.642056 627.852951 
L 589.999266 627.860379 
L 593.043917 627.709501 
L 596.088569 627.709501 
L 599.13322 627.862991 
L 602.177871 627.842053 
L 605.222522 587.29617 
L 620.445779 587.29617 
L 623.49043 627.784012 
L 647.84764 627.717976 
L 650.892291 614.401544 
L 653.936942 614.401544 
L 656.981594 627.723282 
L 830.526715 627.703463 
L 833.571366 627.202293 
L 836.616017 627.202293 
L 839.660668 627.703635 
L 897.509042 627.702501 
L 979.714626 627.661463 
L 982.759277 626.815398 
L 988.84858 626.815398 
L 988.84858 626.815398 
" clip-path="url(#pea75fbf437)" style="fill: none; stroke: #0000ff; stroke-width: 1.5; stroke-linecap: square"/>
   </g>
   <g id="patch_3">
    <path d="M 30.103125 1000.798125 
L 30.103125 22.318125 
" style="fill: none; stroke: #000000; stroke-width: 0.8; stroke-linejoin: miter; stroke-linecap: square"/>
   </g>
   <g id="patch_4">
    <path d="M 1034.503125 1000.798125 
L 1034.503125 22.318125 
" style="fill: none; stroke: #000000; stroke-width: 0.8; stroke-linejoin: miter; stroke-linecap: square"/>
   </g>
   <g id="patch_5">
    <path d="M 30.103125 1000.798125 
L 1034.503125 1000.798125 
" style="fill: none; stroke: #000000; stroke-width: 0.8; stroke-linejoin: miter; stroke-linecap: square"/>
   </g>
   <g id="patch_6">
    <path d="M 30.103125 22.318125 
L 1034.503125 22.318125 
" style="fill: none; stroke: #000000; stroke-width: 0.8; stroke-linejoin: miter; stroke-linecap: square"/>
   </g>
   <g id="text_15">
    <!-- Plot showing value of maximal fitness in time for all experiments, configuration #1 -->
    <g transform="translate(282.924375 16.318125)scale(0.12 -0.12)">
     <defs>
      <path id="DejaVuSans-50" d="M 1259 4147 
L 1259 2394 
L 2053 2394 
Q 2494 2394 2734 2622 
Q 2975 2850 2975 3272 
Q 2975 3691 2734 3919 
Q 2494 4147 2053 4147 
L 1259 4147 
z
M 628 4666 
L 2053 4666 
Q 2838 4666 3239 4311 
Q 3641 3956 3641 3272 
Q 3641 2581 3239 2228 
Q 2838 1875 2053 1875 
L 1259 1875 
L 1259 0 
L 628 0 
L 628 4666 
z
" transform="scale(0.015625)"/>
      <path id="DejaVuSans-6c" d="M 603 4863 
L 1178 4863 
L 1178 0 
L 603 0 
L 603 4863 
z
" transform="scale(0.015625)"/>
      <path id="DejaVuSans-6f" d="M 1959 3097 
Q 1497 3097 1228 2736 
Q 959 2375 959 1747 
Q 959 1119 1226 758 
Q 1494 397 1959 397 
Q 2419 397 2687 759 
Q 2956 1122 2956 1747 
Q 2956 2369 2687 2733 
Q 2419 3097 1959 3097 
z
M 1959 3584 
Q 2709 3584 3137 3096 
Q 3566 2609 3566 1747 
Q 3566 888 3137 398 
Q 2709 -91 1959 -91 
Q 1206 -91 779 398 
Q 353 888 353 1747 
Q 353 2609 779 3096 
Q 1206 3584 1959 3584 
z
" transform="scale(0.015625)"/>
      <path id="DejaVuSans-74" d="M 1172 4494 
L 1172 3500 
L 2356 3500 
L 2356 3053 
L 1172 3053 
L 1172 1153 
Q 1172 725 1289 603 
Q 1406 481 1766 481 
L 2356 481 
L 2356 0 
L 1766 0 
Q 1100 0 847 248 
Q 594 497 594 1153 
L 594 3053 
L 172 3053 
L 172 3500 
L 594 3500 
L 594 4494 
L 1172 4494 
z
" transform="scale(0.015625)"/>
      <path id="DejaVuSans-20" transform="scale(0.015625)"/>
      <path id="DejaVuSans-73" d="M 2834 3397 
L 2834 2853 
Q 2591 2978 2328 3040 
Q 2066 3103 1784 3103 
Q 1356 3103 1142 2972 
Q 928 2841 928 2578 
Q 928 2378 1081 2264 
Q 1234 2150 1697 2047 
L 1894 2003 
Q 2506 1872 2764 1633 
Q 3022 1394 3022 966 
Q 3022 478 2636 193 
Q 2250 -91 1575 -91 
Q 1294 -91 989 -36 
Q 684 19 347 128 
L 347 722 
Q 666 556 975 473 
Q 1284 391 1588 391 
Q 1994 391 2212 530 
Q 2431 669 2431 922 
Q 2431 1156 2273 1281 
Q 2116 1406 1581 1522 
L 1381 1569 
Q 847 1681 609 1914 
Q 372 2147 372 2553 
Q 372 3047 722 3315 
Q 1072 3584 1716 3584 
Q 2034 3584 2315 3537 
Q 2597 3491 2834 3397 
z
" transform="scale(0.015625)"/>
      <path id="DejaVuSans-68" d="M 3513 2113 
L 3513 0 
L 2938 0 
L 2938 2094 
Q 2938 2591 2744 2837 
Q 2550 3084 2163 3084 
Q 1697 3084 1428 2787 
Q 1159 2491 1159 1978 
L 1159 0 
L 581 0 
L 581 4863 
L 1159 4863 
L 1159 2956 
Q 1366 3272 1645 3428 
Q 1925 3584 2291 3584 
Q 2894 3584 3203 3211 
Q 3513 2838 3513 2113 
z
" transform="scale(0.015625)"/>
      <path id="DejaVuSans-77" d="M 269 3500 
L 844 3500 
L 1563 769 
L 2278 3500 
L 2956 3500 
L 3675 769 
L 4391 3500 
L 4966 3500 
L 4050 0 
L 3372 0 
L 2619 2869 
L 1863 0 
L 1184 0 
L 269 3500 
z
" transform="scale(0.015625)"/>
      <path id="DejaVuSans-69" d="M 603 3500 
L 1178 3500 
L 1178 0 
L 603 0 
L 603 3500 
z
M 603 4863 
L 1178 4863 
L 1178 4134 
L 603 4134 
L 603 4863 
z
" transform="scale(0.015625)"/>
      <path id="DejaVuSans-6e" d="M 3513 2113 
L 3513 0 
L 2938 0 
L 2938 2094 
Q 2938 2591 2744 2837 
Q 2550 3084 2163 3084 
Q 1697 3084 1428 2787 
Q 1159 2491 1159 1978 
L 1159 0 
L 581 0 
L 581 3500 
L 1159 3500 
L 1159 2956 
Q 1366 3272 1645 3428 
Q 1925 3584 2291 3584 
Q 2894 3584 3203 3211 
Q 3513 2838 3513 2113 
z
" transform="scale(0.015625)"/>
      <path id="DejaVuSans-67" d="M 2906 1791 
Q 2906 2416 2648 2759 
Q 2391 3103 1925 3103 
Q 1463 3103 1205 2759 
Q 947 2416 947 1791 
Q 947 1169 1205 825 
Q 1463 481 1925 481 
Q 2391 481 2648 825 
Q 2906 1169 2906 1791 
z
M 3481 434 
Q 3481 -459 3084 -895 
Q 2688 -1331 1869 -1331 
Q 1566 -1331 1297 -1286 
Q 1028 -1241 775 -1147 
L 775 -588 
Q 1028 -725 1275 -790 
Q 1522 -856 1778 -856 
Q 2344 -856 2625 -561 
Q 2906 -266 2906 331 
L 2906 616 
Q 2728 306 2450 153 
Q 2172 0 1784 0 
Q 1141 0 747 490 
Q 353 981 353 1791 
Q 353 2603 747 3093 
Q 1141 3584 1784 3584 
Q 2172 3584 2450 3431 
Q 2728 3278 2906 2969 
L 2906 3500 
L 3481 3500 
L 3481 434 
z
" transform="scale(0.015625)"/>
      <path id="DejaVuSans-76" d="M 191 3500 
L 800 3500 
L 1894 563 
L 2988 3500 
L 3597 3500 
L 2284 0 
L 1503 0 
L 191 3500 
z
" transform="scale(0.015625)"/>
      <path id="DejaVuSans-61" d="M 2194 1759 
Q 1497 1759 1228 1600 
Q 959 1441 959 1056 
Q 959 750 1161 570 
Q 1363 391 1709 391 
Q 2188 391 2477 730 
Q 2766 1069 2766 1631 
L 2766 1759 
L 2194 1759 
z
M 3341 1997 
L 3341 0 
L 2766 0 
L 2766 531 
Q 2569 213 2275 61 
Q 1981 -91 1556 -91 
Q 1019 -91 701 211 
Q 384 513 384 1019 
Q 384 1609 779 1909 
Q 1175 2209 1959 2209 
L 2766 2209 
L 2766 2266 
Q 2766 2663 2505 2880 
Q 2244 3097 1772 3097 
Q 1472 3097 1187 3025 
Q 903 2953 641 2809 
L 641 3341 
Q 956 3463 1253 3523 
Q 1550 3584 1831 3584 
Q 2591 3584 2966 3190 
Q 3341 2797 3341 1997 
z
" transform="scale(0.015625)"/>
      <path id="DejaVuSans-75" d="M 544 1381 
L 544 3500 
L 1119 3500 
L 1119 1403 
Q 1119 906 1312 657 
Q 1506 409 1894 409 
Q 2359 409 2629 706 
Q 2900 1003 2900 1516 
L 2900 3500 
L 3475 3500 
L 3475 0 
L 2900 0 
L 2900 538 
Q 2691 219 2414 64 
Q 2138 -91 1772 -91 
Q 1169 -91 856 284 
Q 544 659 544 1381 
z
M 1991 3584 
L 1991 3584 
z
" transform="scale(0.015625)"/>
      <path id="DejaVuSans-65" d="M 3597 1894 
L 3597 1613 
L 953 1613 
Q 991 1019 1311 708 
Q 1631 397 2203 397 
Q 2534 397 2845 478 
Q 3156 559 3463 722 
L 3463 178 
Q 3153 47 2828 -22 
Q 2503 -91 2169 -91 
Q 1331 -91 842 396 
Q 353 884 353 1716 
Q 353 2575 817 3079 
Q 1281 3584 2069 3584 
Q 2775 3584 3186 3129 
Q 3597 2675 3597 1894 
z
M 3022 2063 
Q 3016 2534 2758 2815 
Q 2500 3097 2075 3097 
Q 1594 3097 1305 2825 
Q 1016 2553 972 2059 
L 3022 2063 
z
" transform="scale(0.015625)"/>
      <path id="DejaVuSans-66" d="M 2375 4863 
L 2375 4384 
L 1825 4384 
Q 1516 4384 1395 4259 
Q 1275 4134 1275 3809 
L 1275 3500 
L 2222 3500 
L 2222 3053 
L 1275 3053 
L 1275 0 
L 697 0 
L 697 3053 
L 147 3053 
L 147 3500 
L 697 3500 
L 697 3744 
Q 697 4328 969 4595 
Q 1241 4863 1831 4863 
L 2375 4863 
z
" transform="scale(0.015625)"/>
      <path id="DejaVuSans-6d" d="M 3328 2828 
Q 3544 3216 3844 3400 
Q 4144 3584 4550 3584 
Q 5097 3584 5394 3201 
Q 5691 2819 5691 2113 
L 5691 0 
L 5113 0 
L 5113 2094 
Q 5113 2597 4934 2840 
Q 4756 3084 4391 3084 
Q 3944 3084 3684 2787 
Q 3425 2491 3425 1978 
L 3425 0 
L 2847 0 
L 2847 2094 
Q 2847 2600 2669 2842 
Q 2491 3084 2119 3084 
Q 1678 3084 1418 2786 
Q 1159 2488 1159 1978 
L 1159 0 
L 581 0 
L 581 3500 
L 1159 3500 
L 1159 2956 
Q 1356 3278 1631 3431 
Q 1906 3584 2284 3584 
Q 2666 3584 2933 3390 
Q 3200 3197 3328 2828 
z
" transform="scale(0.015625)"/>
      <path id="DejaVuSans-78" d="M 3513 3500 
L 2247 1797 
L 3578 0 
L 2900 0 
L 1881 1375 
L 863 0 
L 184 0 
L 1544 1831 
L 300 3500 
L 978 3500 
L 1906 2253 
L 2834 3500 
L 3513 3500 
z
" transform="scale(0.015625)"/>
      <path id="DejaVuSans-72" d="M 2631 2963 
Q 2534 3019 2420 3045 
Q 2306 3072 2169 3072 
Q 1681 3072 1420 2755 
Q 1159 2438 1159 1844 
L 1159 0 
L 581 0 
L 581 3500 
L 1159 3500 
L 1159 2956 
Q 1341 3275 1631 3429 
Q 1922 3584 2338 3584 
Q 2397 3584 2469 3576 
Q 2541 3569 2628 3553 
L 2631 2963 
z
" transform="scale(0.015625)"/>
      <path id="DejaVuSans-70" d="M 1159 525 
L 1159 -1331 
L 581 -1331 
L 581 3500 
L 1159 3500 
L 1159 2969 
Q 1341 3281 1617 3432 
Q 1894 3584 2278 3584 
Q 2916 3584 3314 3078 
Q 3713 2572 3713 1747 
Q 3713 922 3314 415 
Q 2916 -91 2278 -91 
Q 1894 -91 1617 61 
Q 1341 213 1159 525 
z
M 3116 1747 
Q 3116 2381 2855 2742 
Q 2594 3103 2138 3103 
Q 1681 3103 1420 2742 
Q 1159 2381 1159 1747 
Q 1159 1113 1420 752 
Q 1681 391 2138 391 
Q 2594 391 2855 752 
Q 3116 1113 3116 1747 
z
" transform="scale(0.015625)"/>
      <path id="DejaVuSans-2c" d="M 750 794 
L 1409 794 
L 1409 256 
L 897 -744 
L 494 -744 
L 750 256 
L 750 794 
z
" transform="scale(0.015625)"/>
      <path id="DejaVuSans-63" d="M 3122 3366 
L 3122 2828 
Q 2878 2963 2633 3030 
Q 2388 3097 2138 3097 
Q 1578 3097 1268 2742 
Q 959 2388 959 1747 
Q 959 1106 1268 751 
Q 1578 397 2138 397 
Q 2388 397 2633 464 
Q 2878 531 3122 666 
L 3122 134 
Q 2881 22 2623 -34 
Q 2366 -91 2075 -91 
Q 1284 -91 818 406 
Q 353 903 353 1747 
Q 353 2603 823 3093 
Q 1294 3584 2113 3584 
Q 2378 3584 2631 3529 
Q 2884 3475 3122 3366 
z
" transform="scale(0.015625)"/>
      <path id="DejaVuSans-23" d="M 3272 2816 
L 2363 2816 
L 2100 1772 
L 3016 1772 
L 3272 2816 
z
M 2803 4594 
L 2478 3297 
L 3391 3297 
L 3719 4594 
L 4219 4594 
L 3897 3297 
L 4872 3297 
L 4872 2816 
L 3775 2816 
L 3519 1772 
L 4513 1772 
L 4513 1294 
L 3397 1294 
L 3072 0 
L 2572 0 
L 2894 1294 
L 1978 1294 
L 1656 0 
L 1153 0 
L 1478 1294 
L 494 1294 
L 494 1772 
L 1594 1772 
L 1856 2816 
L 850 2816 
L 850 3297 
L 1978 3297 
L 2297 4594 
L 2803 4594 
z
" transform="scale(0.015625)"/>
     </defs>
     <use xlink:href="#DejaVuSans-50"/>
     <use xlink:href="#DejaVuSans-6c" x="60.302734"/>
     <use xlink:href="#DejaVuSans-6f" x="88.085938"/>
     <use xlink:href="#DejaVuSans-74" x="149.267578"/>
     <use xlink:href="#DejaVuSans-20" x="188.476562"/>
     <use xlink:href="#DejaVuSans-73" x="220.263672"/>
     <use xlink:href="#DejaVuSans-68" x="272.363281"/>
     <use xlink:href="#DejaVuSans-6f" x="335.742188"/>
     <use xlink:href="#DejaVuSans-77" x="396.923828"/>
     <use xlink:href="#DejaVuSans-69" x="478.710938"/>
     <use xlink:href="#DejaVuSans-6e" x="506.494141"/>
     <use xlink:href="#DejaVuSans-67" x="569.873047"/>
     <use xlink:href="#DejaVuSans-20" x="633.349609"/>
     <use xlink:href="#DejaVuSans-76" x="665.136719"/>
     <use xlink:href="#DejaVuSans-61" x="724.316406"/>
     <use xlink:href="#DejaVuSans-6c" x="785.595703"/>
     <use xlink:href="#DejaVuSans-75" x="813.378906"/>
     <use xlink:href="#DejaVuSans-65" x="876.757812"/>
     <use xlink:href="#DejaVuSans-20" x="938.28125"/>
     <use xlink:href="#DejaVuSans-6f" x="970.068359"/>
     <use xlink:href="#DejaVuSans-66" x="1031.25"/>
     <use xlink:href="#DejaVuSans-20" x="1066.455078"/>
     <use xlink:href="#DejaVuSans-6d" x="1098.242188"/>
     <use xlink:href="#DejaVuSans-61" x="1195.654297"/>
     <use xlink:href="#DejaVuSans-78" x="1256.933594"/>
     <use xlink:href="#DejaVuSans-69" x="1316.113281"/>
     <use xlink:href="#DejaVuSans-6d" x="1343.896484"/>
     <use xlink:href="#DejaVuSans-61" x="1441.308594"/>
     <use xlink:href="#DejaVuSans-6c" x="1502.587891"/>
     <use xlink:href="#DejaVuSans-20" x="1530.371094"/>
     <use xlink:href="#DejaVuSans-66" x="1562.158203"/>
     <use xlink:href="#DejaVuSans-69" x="1597.363281"/>
     <use xlink:href="#DejaVuSans-74" x="1625.146484"/>
     <use xlink:href="#DejaVuSans-6e" x="1664.355469"/>
     <use xlink:href="#DejaVuSans-65" x="1727.734375"/>
     <use xlink:href="#DejaVuSans-73" x="1789.257812"/>
     <use xlink:href="#DejaVuSans-73" x="1841.357422"/>
     <use xlink:href="#DejaVuSans-20" x="1893.457031"/>
     <use xlink:href="#DejaVuSans-69" x="1925.244141"/>
     <use xlink:href="#DejaVuSans-6e" x="1953.027344"/>
     <use xlink:href="#DejaVuSans-20" x="2016.40625"/>
     <use xlink:href="#DejaVuSans-74" x="2048.193359"/>
     <use xlink:href="#DejaVuSans-69" x="2087.402344"/>
     <use xlink:href="#DejaVuSans-6d" x="2115.185547"/>
     <use xlink:href="#DejaVuSans-65" x="2212.597656"/>
     <use xlink:href="#DejaVuSans-20" x="2274.121094"/>
     <use xlink:href="#DejaVuSans-66" x="2305.908203"/>
     <use xlink:href="#DejaVuSans-6f" x="2341.113281"/>
     <use xlink:href="#DejaVuSans-72" x="2402.294922"/>
     <use xlink:href="#DejaVuSans-20" x="2443.408203"/>
     <use xlink:href="#DejaVuSans-61" x="2475.195312"/>
     <use xlink:href="#DejaVuSans-6c" x="2536.474609"/>
     <use xlink:href="#DejaVuSans-6c" x="2564.257812"/>
     <use xlink:href="#DejaVuSans-20" x="2592.041016"/>
     <use xlink:href="#DejaVuSans-65" x="2623.828125"/>
     <use xlink:href="#DejaVuSans-78" x="2683.601562"/>
     <use xlink:href="#DejaVuSans-70" x="2742.78125"/>
     <use xlink:href="#DejaVuSans-65" x="2806.257812"/>
     <use xlink:href="#DejaVuSans-72" x="2867.78125"/>
     <use xlink:href="#DejaVuSans-69" x="2908.894531"/>
     <use xlink:href="#DejaVuSans-6d" x="2936.677734"/>
     <use xlink:href="#DejaVuSans-65" x="3034.089844"/>
     <use xlink:href="#DejaVuSans-6e" x="3095.613281"/>
     <use xlink:href="#DejaVuSans-74" x="3158.992188"/>
     <use xlink:href="#DejaVuSans-73" x="3198.201172"/>
     <use xlink:href="#DejaVuSans-2c" x="3250.300781"/>
     <use xlink:href="#DejaVuSans-20" x="3282.087891"/>
     <use xlink:href="#DejaVuSans-63" x="3313.875"/>
     <use xlink:href="#DejaVuSans-6f" x="3368.855469"/>
     <use xlink:href="#DejaVuSans-6e" x="3430.037109"/>
     <use xlink:href="#DejaVuSans-66" x="3493.416016"/>
     <use xlink:href="#DejaVuSans-69" x="3528.621094"/>
     <use xlink:href="#DejaVuSans-67" x="3556.404297"/>
     <use xlink:href="#DejaVuSans-75" x="3619.880859"/>
     <use xlink:href="#DejaVuSans-72" x="3683.259766"/>
     <use xlink:href="#DejaVuSans-61" x="3724.373047"/>
     <use xlink:href="#DejaVuSans-74" x="3785.652344"/>
     <use xlink:href="#DejaVuSans-69" x="3824.861328"/>
     <use xlink:href="#DejaVuSans-6f" x="3852.644531"/>
     <use xlink:href="#DejaVuSans-6e" x="3913.826172"/>
     <use xlink:href="#DejaVuSans-20" x="3977.205078"/>
     <use xlink:href="#DejaVuSans-23" x="4008.992188"/>
     <use xlink:href="#DejaVuSans-31" x="4092.78125"/>
    </g>
   </g>
  </g>
 </g>
 <defs>
  <clipPath id="pea75fbf437">
   <rect x="30.103125" y="22.318125" width="1004.4" height="978.48"/>
  </clipPath>
 </defs>
</svg>
